<?xml version="1.0" encoding="utf-8"?>
<svg viewBox="0 0 500 500.0001" width="500" height="500.0001" xmlns="http://www.w3.org/2000/svg">
  <defs>
    <style>.st0{fill:#000;}</style>
  </defs>
  <g transform="matrix(3.5605690479278564, 0, 0, 3.5714290142059326, 0, 0)">
    <path class="st0" d="M 33.4 0 L 0 57.9 L 66.9 57.9 L 33.4 0 Z M 33.4 2 L 33.4 56.9 L 1.7 56.9 L 33.4 2"/>
    <path class="st0" d="M 140.427 19.8 L 140.427 0 L 82.927 0 L 82.927 57.5 L 102.827 57.5 L 102.827 39.225 L 121.627 38.6 L 121.627 19.8 L 140.427 19.8 Z M 101.827 37.6 L 101.827 56.4 L 83.927 56.4 L 83.927 1 L 120.627 37.6 L 101.827 37.6 Z"/>
    <path class="st0" d="M 33.4 82.1 L 0 140 L 66.9 140 L 33.4 82.1 Z M 33.4 84.1 L 33.4 139 L 1.7 139 L 33.4 84.1"/>
    <path class="st0" d="M 112.227 110.8 L 112.227 82.6 L 111.727 82.6 C 104.027 82.6 96.827 85.6 91.427 91 C 86.027 96.4 83.027 103.6 83.027 111.3 C 83.027 119 86.027 126.2 91.427 131.6 C 96.827 137 104.027 140 111.727 140 L 140.427 140 L 140.427 110.8 L 112.227 110.8 Z M 111.727 139.1 C 104.327 139.1 97.327 136.2 92.127 131 C 86.927 125.8 84.027 118.8 84.027 111.4 L 111.727 111.4 L 112.227 111.9"/>
  </g>
</svg>