<svg id="eZSTECgKPAs1" xmlns="http://www.w3.org/2000/svg" xmlns:xlink="http://www.w3.org/1999/xlink" viewBox="0 0 1080 1080" shape-rendering="geometricPrecision" text-rendering="geometricPrecision"><ellipse rx="17.145218" ry="17.145218" transform="matrix(31.495652 0 0 31.495652 539.999825 539.999825)" fill="#fff" stroke-width="0"/><g transform="matrix(18.330928 0 0 18.330928-326.136348-272.060175)"><rect width="1.7" height="40.6" rx="0" ry="0" transform="translate(66.3 24)" fill="#ffb26d"/><path d="M53,54.3c-2.5-.2-3.1-1.4-4.3-4.5L41.2,30.6h-5.4l1.4,3.7L31.8,48c-1.6,4-3.2,6.1-5.3,6.4v.3h7.8v-.3c-3-.3-3.5-2-1.9-6.3h10.3l1.1,2.6c.9,2,.8,3.4-1.5,3.6v.4h10.7v-.4ZM32.5,47.6l5-12.6L40,41.3l2.5,6.3h-10Z" fill="#262682"/><polygon points="58.9,30.7 54.7,30.7 54.7,26.4 53,26.4 53,30.7 48.5,30.7 49.1,32.2 53,32.2 53,36.5 54.7,36.5 54.7,32.2 58.9,32.2" fill="#262682"/></g></svg>
