<?xml version="1.0" encoding="utf-8"?>
<svg viewBox="77.825 0.0001 344.3499 499.9999" width="344.3499" height="499.9999" xmlns="http://www.w3.org/2000/svg">
  <g transform="matrix(0.9999999999999999, 0, 0, 0.9999999999999999, 297.41894531249994, 207.47499084472656)">
    <g transform="matrix(6.51296, 0, 0, 6.51296, -245.841141, -234.438583)">
      <path class="st0" d="M52.76,13.53l-0.65-0.24c-0.2-0.07-0.41,0.03-0.48,0.22c-0.07,0.2,0.03,0.41,0.22,0.48&#10;&#9;&#9;&#9;c0,0,0.74,0.26,0.78,0.26c0.15,0,0.3-0.09,0.35-0.25C53.05,13.82,52.95,13.6,52.76,13.53z" style="fill: rgb(171, 22, 62);"/>
      <path class="st0" d="M31.35,12.71c0,0-0.33-0.09-0.81-0.26c-0.52-0.18-0.92-0.02-1.27,0.12c-0.13,0.05-0.26,0.1-0.4,0.14&#10;&#9;&#9;&#9;c-0.19,0.05-0.29,0.24-0.24,0.43c0.04,0.15,0.18,0.26,0.34,0.26c0.13,0,0.43-0.12,0.56-0.18c0.34-0.14,0.52-0.2,0.78-0.11&#10;&#9;&#9;&#9;c0.51,0.18,0.85,0.27,0.86,0.27c0.19,0.05,0.38-0.06,0.43-0.25C31.65,12.96,31.54,12.76,31.35,12.71z" style="fill: rgb(171, 22, 62);"/>
      <path class="st0" d="M29.43,9.33c0-0.5-0.41-0.66-0.7-0.66l-1.09,0c0,0-0.43,0.02-0.43,0.35c0,0.33,0.43,0.35,0.43,0.35l0.4,0&#10;&#9;&#9;&#9;c-0.11,0.06-0.19,0.18-0.19,0.31c0,0.19,0.16,0.35,0.35,0.35c0,0,0.34,0,0.47,0C29.15,10.02,29.43,9.86,29.43,9.33z" style="fill: rgb(171, 22, 62);"/>
      <path class="st0" d="M27.67,7.18c0.53-0.29,0.79-0.06,1.22,0.04c0.32,0.08,0.83,0.19,1.3,0.07c0.2-0.05,0.33-0.17,0.31-0.36&#10;&#9;&#9;&#9;c0.06,0.01,0.13,0.03,0.19,0.04c0.45,0.09,0.91,0.18,1.4,0.74c0.26,0.3,0.34,0.69,0.36,0.97l-1.03,0c-0.4,0-1.32,0-1.33,0.97&#10;&#9;&#9;&#9;c0,0.4,0.05,1.02,0.08,1.41l-0.47,0.01c-0.19,0.01-0.34,0.18-0.33,0.37c0.01,0.18,0.16,0.33,0.35,0.33c0.01,0,0.86-0.03,0.86-0.03&#10;&#9;&#9;&#9;c0.1-0.01,0.18-0.05,0.25-0.12c0.06-0.07,0.09-0.17,0.08-0.26c0-0.01-0.11-1.07-0.11-1.63c0-0.18,0.12-0.37,0.46-0.33&#10;&#9;&#9;&#9;c-0.08,0.02-0.19,0.11-0.19,0.31c0,0.2,0.19,0.33,0.4,0.33c0,0,0.47,0,0.72,0s0.37-0.16,0.37-0.37c0-0.18-0.07-0.22-0.12-0.28&#10;&#9;&#9;&#9;l0.25,0c0.42,0,0.46-0.42,0.46-0.66c0-0.04,0.1-0.74-0.53-1.46c-0.65-0.74-1.29-0.83-1.76-0.97c-0.16-0.04-0.28-0.08-0.42-0.09&#10;&#9;&#9;&#9;c-0.19-0.02-0.38,0.04-0.44,0.22c-0.02,0.07-0.02,0.14,0,0.21c-0.38,0.03-0.65-0.03-0.93-0.1c-0.47-0.11-0.89-0.29-1.6,0.18&#10;&#9;&#9;&#9;c-0.17,0.11-0.31,0.32-0.22,0.5C27.3,7.3,27.61,7.21,27.67,7.18z" style="fill: rgb(171, 22, 62);"/>
      <path class="st0" d="M25.47,20.15c0,0,2.82,0.27,2.84,0.27c0.09,0,0.18-0.03,0.25-0.1c0.08-0.07,0.12-0.17,0.13-0.27l0.02-0.95&#10;&#9;&#9;&#9;c0.01-0.21-0.16-0.38-0.37-0.39c0,0-0.01,0-0.01,0c-0.2,0-0.37,0.16-0.38,0.37l-0.01,0.54l-2.4-0.23&#10;&#9;&#9;&#9;c-0.21-0.02-0.39,0.13-0.41,0.34S25.26,20.13,25.47,20.15z" style="fill: rgb(171, 22, 62);"/>
      <path class="st0" d="M55.87,14.25c-0.34-0.27-0.69-0.55-0.9-0.9l-0.06-0.1c-0.27-0.44-0.57-0.94-1.5-1.22&#10;&#9;&#9;&#9;c-0.32-0.1-0.69-0.1-1.09-0.1c-0.46,0-0.93,0-1.32-0.15c-0.33-0.12-0.6-0.26-0.86-0.39c-0.71-0.35-1.38-0.68-2.93-0.68&#10;&#9;&#9;&#9;c-2.88,0-4.98,1.77-5.35,4.52c-0.38,2.85,0.9,4.63,2.16,5.87c-0.59,0.9-1.24,1.73-1.91,2.43c-0.49,0.52-0.84,0.99-1.08,1.43&#10;&#9;&#9;&#9;c-0.11-0.46-0.23-0.94-0.34-1.19c-0.13-0.29-0.55-1.04-0.55-1.04l-0.21-1.2c0-0.75-0.38-2-0.81-2.61&#10;&#9;&#9;&#9;c-0.36-0.47-0.87-0.78-1.08-0.9c-0.04-0.19-0.13-0.42-0.3-0.57c-0.36-0.32-0.79-0.31-1.12-0.2c-0.16-0.2-0.43-0.38-0.82-0.38&#10;&#9;&#9;&#9;c-0.33,0-0.57,0.12-0.76,0.28c-0.2-0.07-0.88-0.15-1.3,0.28c-0.01,0-0.15-0.03-0.27-0.06c-0.48-0.16-1.12-0.2-1.05-1.44&#10;&#9;&#9;&#9;c0-0.01,0-0.01,0-0.02c0.51-0.54,0.7-1.2,0.82-1.6c0.09-0.32,0.2-1.26,0.23-1.99c0.52-0.28,0.84-0.63,0.95-1.37&#10;&#9;&#9;&#9;c0.12-0.8,0.19-1.3-0.26-1.64c0.01-0.11,0.08-0.22,0.1-0.34c0.06-0.38,0.1-0.51,0.02-1.2c-0.21-1.75-1.4-3.63-4.09-3.63&#10;&#9;&#9;&#9;c-2.61,0-4.14,1.46-4.31,4.12c-0.03,0.5,0,0.69,0.09,1.18c-0.34,0.33-0.4,0.81-0.22,1.53c0.23,0.94,0.38,1.15,0.92,1.44&#10;&#9;&#9;&#9;c-0.09,1.57,0.22,2.84,0.59,3.37c-0.04,0.31-0.39,1.25-0.87,1.56c-0.73,0.47-1.45,0.49-2.21,0.5c-0.51,0.01-1.04,0.02-1.58,0.18&#10;&#9;&#9;&#9;c-1.63,0.47-2.22,1.96-2.41,2.59l-0.73,2.75l-2.26,2c0,0-0.73-0.7-0.73-0.71l-0.64-3.46c-0.16-0.89-0.25-1.6-0.73-1.99&#10;&#9;&#9;&#9;c1.11-0.54,2.18-1.24,2.8-2.54c0.14-0.3,0.05-0.68-0.51-0.68L4.41,15.91c-0.1,0-0.2,0.04-0.27,0.11&#10;&#9;&#9;&#9;c-0.07,0.07-0.11,0.17-0.11,0.27c0,0.42,0.5,1,1.41,1.86c-0.06,0.05-0.1,0.11-0.11,0.18c-0.02,0.09,0.02,0.23,0.09,0.44&#10;&#9;&#9;&#9;c0.13,0.4,0.66,0.98,0.88,1.26c0.33,0.41,0.99,0.95,1.48,1.21c0.49,0.27,1.98,0.47,3.2,0.47c0.46,0,1.08-0.03,1.32-0.03&#10;&#9;&#9;&#9;c0.08,0,0.13,1.01,0.14,1.09c0.04,0.52,0.17,2.34,0.37,3.49c0.23,1.36,0.51,2.65,1.09,3.72c0.53,1,1.69,2.24,1.84,2.4&#10;&#9;&#9;&#9;c0.16,0.2,0.39,0.31,0.64,0.31c1.13,0,2.77-1.39,3.69-2.31c1.61-1.62,2.79-3.52,2.79-3.52l-0.18,3.32&#10;&#9;&#9;&#9;c-0.02,0.03-1.5,3.35-1.1,6.56c-1.42,3.23-1.75,5.36-1.02,6.48c0.11,0.17,0.25,0.32,0.41,0.44c-0.26,0.92-1.15,4.25-1.18,6.1&#10;&#9;&#9;&#9;c-0.03,1.51,0.55,2.46,0.79,2.78l-0.5,14.88c0,0.12,0.05,0.23,0.14,0.3c1.01,0.83,2.96,1.56,4.83,1.88&#10;&#9;&#9;&#9;c0.08,0.17,0.84,2.03-0.18,4.04c0,0,0,0,0,0c0,0,0,0,0,0c-0.46,0.89-0.9,1.56-1.28,2.15c-0.65,1-1.12,1.72-1.17,2.69&#10;&#9;&#9;&#9;c-0.01,0.3,0.08,0.75,0.59,1.21c0.84,0.75,2.47,1.22,3.56,1.22c0.26,0,0.45-0.03,0.45-0.03c1.43-0.24,1.65-1.73,1.86-3.18&#10;&#9;&#9;&#9;c0.02-0.1,0.03-0.21,0.05-0.31c0.12-0.81,0.14-1.23,0.16-1.58c0.02-0.31,0.03-0.51,0.1-0.85c0.11-0.5,0.05-0.88-0.03-1.36&#10;&#9;&#9;&#9;c-0.06-0.37-0.13-0.83-0.16-1.5c-0.04-1.12,0.11-2.18,0.19-2.64c0.78-0.22,1.57-0.53,2.31-0.91c-0.03,0.51-0.17,1.41-0.29,1.82&#10;&#9;&#9;&#9;c-0.07,0.25-0.16,0.48-0.24,0.71c-0.32,0.85-0.67,2.02,0.38,2.61c0.62,0.35,1.33,0.31,1.79,0.31c0.38,0,0.74,0,1.32,0.24&#10;&#9;&#9;&#9;c0.17,0.07,0.44,0.27,0.73,0.49c0.65,0.48,1.55,1.15,2.6,1.36c-0.11,0.87,0.37,1.12,0.8,1.16c0.63,0.06,0.96-0.32,1.04-0.79&#10;&#9;&#9;&#9;l0.08-0.5c0.58-0.16,1.1-0.43,1.28-0.9c0.17-0.44,0-0.93-0.49-1.45c-0.1-0.11-0.22-0.21-0.34-0.31l0.49-2.93&#10;&#9;&#9;&#9;c0.99,0.9,1.77,1.81,1.77,2.98c-0.03,3.96-3.37,4.45-7.59,5.07l-0.44,0.06c-3.1,0.46-4.29,1.74-4.34,1.79&#10;&#9;&#9;&#9;c-0.11,0.12-0.13,0.3-0.05,0.44c0.07,0.12,0.24,0.2,0.4,0.19c0.03,0,3.21-0.61,6.1-0.65c5.23-0.06,8.91-2.82,8.93-6.7&#10;&#9;&#9;&#9;c0.02-3.12-1.71-4.76-3.23-6.21c-0.32-0.3-0.62-0.59-0.9-0.88l0.71-4.29c0.01-0.01,2.01-1.42,2.79-2.35&#10;&#9;&#9;&#9;c0.68-0.81,1.16-1.77,1.18-2.94c0.03-2.31-1.24-3.47-2.36-4.39l0.63-3.78c1.92-1.17,4.41-2.79,4.45-6.15&#10;&#9;&#9;&#9;c0.03-2.38-1.44-3.69-2.63-4.75c0,0-0.01-0.01-0.01-0.01l0.77-4.62c0.2-0.11,0.41-0.21,0.62-0.32c2.16-1.09,4.86-2.46,4.91-6.03&#10;&#9;&#9;&#9;c0.03-2.34-1.54-4.17-3.49-5.91l0.25-1.48c0.19-0.32,0.39-0.5,0.85-0.91c0.17-0.16,0.39-0.35,0.65-0.59&#10;&#9;&#9;&#9;c0.48-0.45,0.71-1.06,0.65-1.71c0.2,0.09,0.42,0.17,0.67,0.25c1.67,0.57,3.47,0.62,4.37,0.11c0.4-0.23,0.53-0.51,0.58-0.71&#10;&#9;&#9;&#9;C56.99,15.15,56.42,14.69,55.87,14.25z M38.06,18.94c0.15,0.11,0.31,0.26,0.44,0.43c0.34,0.5,0.67,1.6,0.66,2.19&#10;&#9;&#9;&#9;c0,0.02,0.22,1.28,0.22,1.28c0.05,0.28,0.49,0.98,0.6,1.23c0.17,0.39,0.43,1.63,0.54,2.16c-0.14,0.7,0,1.12,0.01,1.16&#10;&#9;&#9;&#9;c0.06,0.15,0.2,0.25,0.36,0.25c0.22,0,0.39-0.17,0.35-0.5c-0.02-0.2-0.09-0.3,0.02-0.81c0.11-0.49,0.44-1.28,1.38-2.27&#10;&#9;&#9;&#9;c1.27-1.34,3.28-4.67,3.38-4.95c0.1-0.28,0.1-0.49-0.01-0.65c-0.02-0.03-0.79-0.54-0.77-1.75c0-0.37,0.11-0.64,0.31-0.81&#10;&#9;&#9;&#9;c0.24-0.21,0.65-0.25,1.12-0.21c0.75,0.07,1.15,0.12,1.31,0.17c0,0.19-0.07,0.33-0.24,0.46c-0.26,0.19-0.96,0.13-1.2,0.11&#10;&#9;&#9;&#9;c-0.17-0.02-0.33,0.08-0.4,0.24s0.05,0.35,0.24,0.57s0.3,0.35,0.27,0.91c-0.02,0.41-1.02,6.58-1.02,6.58&#10;&#9;&#9;&#9;c-0.9,2.01-1.8,3.62-3.28,5.24c-0.53,0.58-1.1,1.01-1.31,1.14c-0.32-0.08-1.3-0.36-1.98-1.02c-0.86-0.85-1.81-2.51-1.82-2.52&#10;&#9;&#9;&#9;C37.63,24.86,38.02,20.47,38.06,18.94z M46.66,29.36c-0.24,0.13-0.96,0.51-1.04,0.55l1.79-11.6c0.13-0.44-0.15-1.02-0.29-1.32&#10;&#9;&#9;&#9;c0.41,0.01,0.8,0,1.08-0.28c0.1-0.1,0.24-0.35,0.23-0.34c-0.12,0.33,0.07,0.58,0.27,0.66L46.66,29.36z M48,25.9&#10;&#9;&#9;&#9;c0.25,0.43,0.43,0.86,0.43,1.2c-0.01,0.77-0.32,1.26-0.91,1.72L48,25.9z M48.46,15.58c-0.04-0.31-0.48-0.39-0.81-0.41&#10;&#9;&#9;&#9;c0.19-0.36,0.53-0.61,0.86-0.67c0.28-0.06,0.46,0.04,0.56,0.17c0.09,0.11-0.02,0.22-0.14,0.33C48.7,15.21,48.53,15.33,48.46,15.58&#10;&#9;&#9;&#9;z M48.02,14.29c-0.47,0.17-0.81,0.52-0.96,0.82c-0.14,0.01-0.5-0.04-0.7-0.01c0.06-0.36,0.23-0.63,0.67-0.86&#10;&#9;&#9;&#9;c0.31-0.16,0.74-0.22,1-0.04C48.07,14.22,48.06,14.27,48.02,14.29z M45.27,27.18l-0.49,3.18c-2.45,1.41-3.87,3.29-3.88,5.19&#10;&#9;&#9;&#9;c-0.02,2.49,1.23,3.72,2.36,4.66l-0.82,5.3c-0.69,0.37-1.95,1.07-2.64,1.64c-0.04-0.75-0.09-1.5-0.16-2.22&#10;&#9;&#9;&#9;c-0.44-4.91-1.8-8.48-2.01-9.01l-0.26-6.77c0.34,0.5,0.75,1.05,1.17,1.45c0.92,0.91,2.1,1.27,2.5,1.27s1.49-1,1.87-1.41&#10;&#9;&#9;&#9;C43.9,29.39,44.63,28.34,45.27,27.18z M4.9,16.57l12.26,0.06c-0.39,1.01-2.16,2.07-3.21,2.24c0,0-0.51-0.11-1.64,0.09&#10;&#9;&#9;&#9;c-0.8,0.14-1.15,0.13-1.36,0.1c-0.19-0.03-0.3-0.17-0.52-0.4c-0.28-0.29-0.66-0.47-1.05-0.5c-0.52-0.05-0.74,0.07-0.95,0.29&#10;&#9;&#9;&#9;c-0.29-0.35-0.73-0.5-1.26-0.37c-0.14,0.04-0.24,0.09-0.3,0.16c-0.11-0.07-0.28-0.15-0.47-0.2C5.57,17.4,5.23,17.11,4.9,16.57z&#10;&#9;&#9;&#9; M7.96,20.72c-0.25-0.13-0.68-0.43-1.21-1.02c-0.38-0.42-0.6-0.73-0.83-1.12c0.01,0,0.02,0,0.03,0c0.35-0.03,0.65,0.18,0.7,0.22&#10;&#9;&#9;&#9;c0.07,0.08,0.7,0.83,0.94,1.1c0.34,0.38,0.94,0.98,0.95,1C8.24,20.86,8.06,20.77,7.96,20.72z M22.76,25.66&#10;&#9;&#9;&#9;c-0.37,0.64-1.82,2.99-3.41,4.41c-1.86,1.66-2.26,1.77-2.56,1.89c-0.3,0.12-0.5-0.07-0.51-0.08c-0.01-0.01-1.32-1.26-1.73-2.25&#10;&#9;&#9;&#9;c-1.14-2.71-1.27-5.9-1.32-6.4c-0.05-0.5,0.22-1.34,0.18-1.79c-0.04-0.45-0.62-0.46-0.96-0.43c-0.51,0.04-1.67,0.04-2.3,0.02&#10;&#9;&#9;&#9;c-0.43-0.02-0.82-0.12-0.96-0.25c-0.12-0.11-0.77-0.88-1.04-1.18c-0.41-0.46-0.65-0.79-0.81-0.94c0.31-0.23,0.63-0.14,1.04,0.28&#10;&#9;&#9;&#9;c0.04,0.05,0.82,1.22,1.08,1.5c0.05,0.06,0.13,0.09,0.21,0.1l0.94,0.16c0.17,0.01,0.25-0.01,0.31-0.17&#10;&#9;&#9;&#9;c0.05-0.13-0.11-0.25-0.29-0.31l-0.81-0.28c-0.23-0.25-0.63-0.95-0.9-1.21c0.14-0.07,0.26-0.08,0.45-0.06&#10;&#9;&#9;&#9;c0.23,0.02,0.5,0.31,0.7,0.56c0.2,0.25,0.31,0.34,0.6,0.42c0.18,0.05,1.1-0.01,1.25-0.03c0.35-0.05,1.01-0.14,2.02-0.14&#10;&#9;&#9;&#9;c0.39,0,0.68,0.25,0.84,0.79c0,0.01,0,0.01,0,0.02l0.93,4.57c0.04,0.14,0.11,0.27,0.22,0.37l1.13,1.09l1.02,1.9&#10;&#9;&#9;&#9;c0.14,0.2,0.31,0.25,0.51,0.15c0.19-0.09,0.25-0.33,0.15-0.51l-1.05-1.95c0,0,1.98-1.72,2.11-1.85c0.21-0.21,0.2-0.27,0.34-0.69&#10;&#9;&#9;&#9;c0.27-0.81,0.59-2.1,0.74-2.54c0.23-0.68,0.67-1.71,1.89-2.07c0.44-0.13,0.9-0.14,1.38-0.15c0.8-0.02,1.7-0.04,2.6-0.63&#10;&#9;&#9;&#9;c0.54-0.35,0.91-1.07,1.09-1.62c0.06,0.05,0.26,0.11,0.38,0.1c0.16-0.01,0.29-0.07,0.34-0.23c0.06-0.19-0.02-0.33-0.2-0.42&#10;&#9;&#9;&#9;c-0.8-0.44-1.14-2.1-1.01-3.42c0.04-0.43-0.33-0.59-0.34-0.59c-0.38-0.2-0.42-0.27-0.6-1c-0.18-0.72-0.01-0.83,0.13-0.92&#10;&#9;&#9;&#9;c0.16-0.1,0.17-0.29,0.12-0.48c-0.09-0.45-0.12-0.61-0.09-1.09c0.14-2.28,1.35-3.44,3.59-3.44c2.8,0,3.29,2.29,3.38,2.99&#10;&#9;&#9;&#9;c0.07,0.58,0.04,0.69-0.02,1.06c-0.03,0.2-0.1,0.31-0.11,0.52c-0.01,0.13,0.06,0.25,0.16,0.32c0.21,0.17,0.23,0.33,0.11,1.09&#10;&#9;&#9;&#9;c-0.06,0.41-0.17,0.6-0.51,0.8c-0.02-0.07-0.04-0.1-0.06-0.11c-0.11-0.15-0.33-0.19-0.49-0.07c-0.14,0.1-0.18,0.29-0.11,0.43&#10;&#9;&#9;&#9;c0.01,0.05,0.33,0.43,0.11,1.63c-0.04,0.25-0.08,0.45-0.12,0.58c-0.32,1.1-0.76,2.02-2.97,1.92c-0.2-0.01-0.45,0.08-0.47,0.29&#10;&#9;&#9;&#9;c-0.03,0.2,0.13,0.33,0.33,0.38c0.27,0.07,0.49,0.08,0.71,0.08c0.64,0,1.15-0.12,1.55-0.32c0.06,1.11,1.23,1.51,1.67,1.59&#10;&#9;&#9;&#9;c0.01,0-0.23,0.77-0.39,1.24c-0.51,1.59-1.26,3.92-2.95,6.5l0.01-1.34c0-0.21-0.17-0.38-0.37-0.38c0,0,0,0,0,0&#10;&#9;&#9;&#9;c-0.21,0-0.38,0.17-0.38,0.37l-0.02,2.43c0,0,0,0,0,0.01c-1.48,2.36-3.17,3.72-4.21,3.72c-0.84,0-1.5-0.34-1.61-0.5&#10;&#9;&#9;&#9;c0.17-0.96,0.14-2.56,0.11-3.4c0.44,0.36,1.09,0.61,1.96,0.61c0.48,0,1.26-0.05,1.28-0.06c0.21-0.03,0.35-0.22,0.32-0.43&#10;&#9;&#9;&#9;c-0.03-0.21-0.22-0.35-0.43-0.32c-0.56,0.08-2.13,0.17-2.73-0.47c-0.76-0.8-0.87-1.89-0.87-1.9c-0.02-0.21-0.2-0.36-0.41-0.34&#10;&#9;&#9;&#9;c-0.21,0.02-0.36,0.2-0.34,0.41C22.31,24.23,22.37,24.91,22.76,25.66z M25.4,74.18c0.37-0.03,1.19-0.08,1.79,0.01&#10;&#9;&#9;&#9;c0.77,0.11,1.16,0.27,1.26,0.32c0,0.1-0.02,0.19-0.04,0.3c-0.09,0.4-0.1,0.65-0.12,0.97c-0.01,0.26-0.03,0.58-0.1,1.09&#10;&#9;&#9;&#9;c-0.44-0.11-1.19-0.27-2.08-0.35c-0.83-0.07-1.61-0.06-2.11-0.03c0.06-0.09,0.11-0.17,0.17-0.27&#10;&#9;&#9;&#9;C24.53,75.67,24.96,75.01,25.4,74.18z M25.85,69.71c1.06,0.1,2.03,0.05,2.52-0.07c-0.09,0.57-0.19,1.49-0.15,2.48&#10;&#9;&#9;&#9;c0.03,0.69,0.1,1.16,0.16,1.55c-0.25-0.07-0.6-0.16-1.07-0.23c-0.49-0.07-1.09-0.06-1.53-0.04&#10;&#9;&#9;&#9;C26.46,71.66,26.07,70.28,25.85,69.71z M23.13,78.52c0.02-0.44,0.16-0.83,0.4-1.26c0.42-0.06,1.98-0.06,2.61,0.01&#10;&#9;&#9;&#9;c-0.21,0.47-0.54,1.31-0.6,1.82c-0.04,0.38,0.02,0.72,0.17,1c-0.81-0.15-1.73-0.5-2.24-0.95C23.24,78.92,23.12,78.71,23.13,78.52z&#10;&#9;&#9;&#9; M26.93,80.12c-0.61-0.02-0.72-0.41-0.64-0.96c0.07-0.44,0.43-1.36,0.63-1.8c0.5,0.08,0.91,0.18,1.17,0.24&#10;&#9;&#9;&#9;C27.89,79.04,27.55,80.13,26.93,80.12z M28.39,68.87c-2.39,0.55-5.98-0.41-7.59-1.61l0.5-14.82c0-0.09-0.03-0.19-0.09-0.26&#10;&#9;&#9;&#9;c-0.01-0.01-0.72-0.86-0.7-2.4c0.03-1.67,0.84-4.77,1.12-5.8c0.15,0.03,0.32,0.05,0.49,0.05c0.9,0,3.3-0.49,6.23-5.07&#10;&#9;&#9;&#9;c2.42-3.79,4.77-10.09,4.8-10.15c0.07-0.2-0.03-0.41-0.22-0.48c-0.19-0.07-0.41,0.03-0.48,0.22c-0.02,0.06-2.34,6.29-4.72,10.01&#10;&#9;&#9;&#9;c-2.8,4.38-4.99,4.72-5.59,4.72c-0.44,0-0.77-0.15-0.97-0.46c-0.77-1.18,0.36-4.24,1.15-5.93c0.19-0.41-0.15-0.9,0.05-2.98&#10;&#9;&#9;&#9;c0.13-1.38,0.6-2.51,0.8-3.02c0.33,0.25,0.85,0.49,1.68,0.49c1.76,0,3.39-1.82,5.19-4.32c2.17-3.01,3.08-5.85,3.63-7.55&#10;&#9;&#9;&#9;c0.24-0.74,0.41-1.32,0.59-1.54c0.1-0.13,0.24-0.12,0.33-0.1c-0.13,0.32-0.27,0.82-0.49,1.66c-0.77,2.9-2.21,8.3-6.2,13.48&#10;&#9;&#9;&#9;c-1.84,2.38-3.42,3.33-4.43,3.71c-0.19,0.07-0.29,0.29-0.22,0.49c0.06,0.15,0.2,0.24,0.35,0.24c0.04,0,0.09-0.01,0.13-0.02&#10;&#9;&#9;&#9;c1.1-0.41,2.81-1.44,4.76-3.96c4.09-5.29,5.6-11,6.33-13.75c0.21-0.79,0.52-1.85,0.52-1.92c0.09-0.13,0.23-0.17,0.42-0.17&#10;&#9;&#9;&#9;c0.17,0,0.26,0.09,0.29,0.15c-0.2,1.44-2.78,19.59-7.81,28.36c-2.24,3.9-3.98,5.21-5.93,6c-0.19,0.08-0.35,0.27-0.27,0.5&#10;&#9;&#9;&#9;c0.05,0.15,0.23,0.33,0.53,0.21c2.1-0.85,3.98-2.24,6.33-6.33c5-8.71,7.6-26.44,7.89-28.53c0.12-0.05,0.31-0.08,0.44,0.03&#10;&#9;&#9;&#9;c0.05,0.04,0.11,0.13,0.09,0.46c-0.01,0.24-0.22,4.84-0.94,10.05c-0.73,5.25-2.15,13.03-4.8,20.25c-1.42,3.86-4.72,8.41-6.3,10.6&#10;&#9;&#9;&#9;c-2.49,3.44-2.92,6.32-2.93,6.44c-0.03,0.21,0.05,0.42,0.31,0.45c0.26,0.03,0.41-0.16,0.44-0.35c0.14-0.97,0.9-3.48,2.8-6.1&#10;&#9;&#9;&#9;c1.61-2.21,4.95-6.82,6.4-10.78c2.24-6.1,3.62-12.59,4.44-17.69l0.18,4.67c0,0.04,0.01,0.09,0.03,0.13&#10;&#9;&#9;&#9;c0.02,0.04,1.53,3.76,1.98,8.86c0.08,0.93,0.14,1.89,0.19,2.86c-0.6,0.71-1,1.61-1.01,2.8c-0.01,1.45,0.47,2.39,1.09,3.07&#10;&#9;&#9;&#9;c-0.04,3.33-0.19,5.98-0.22,6.58c-0.51,0.46-1.71,1.29-2.22,2.52c-1.31,1.45-2.92,3.13-4.02,4.01&#10;&#9;&#9;&#9;C31.65,67.69,30.3,68.42,28.39,68.87z M34.51,72.15C34.16,72.57,34,73,33.93,73.29c-0.33-0.06-0.58-0.04-0.82-0.04&#10;&#9;&#9;&#9;c-0.42,0-0.83,0.14-1.35-0.19c-0.46-0.29-0.47-0.83-0.13-1.73c0.09-0.23,0.18-0.48,0.26-0.76c0.04-0.15,0.41-1.74,0.31-2.45&#10;&#9;&#9;&#9;c0.83-0.45,1.91-1.41,2.44-2c-0.1,1.25-0.14,3.29,0.46,4.51c0.12,0.25,0.28,0.47,0.46,0.67C35.24,71.49,34.83,71.76,34.51,72.15z&#10;&#9;&#9;&#9; M36.16,74.51c-0.2-0.14-0.39-0.28-0.56-0.41c-0.36-0.26-0.64-0.47-0.89-0.58c-0.02-0.01-0.04-0.01-0.05-0.02&#10;&#9;&#9;&#9;c0.05-0.21,0.17-0.55,0.44-0.88c0.34-0.41,0.81-0.66,1.06-0.78c0.44,0.34,0.94,0.62,1.44,0.88c-0.28,0.17-0.61,0.42-0.88,0.74&#10;&#9;&#9;&#9;C36.4,73.85,36.24,74.23,36.16,74.51z M37.85,75.33c-0.36-0.07-0.7-0.22-1.03-0.4c0.03-0.18,0.14-0.59,0.46-0.97&#10;&#9;&#9;&#9;c0.27-0.32,0.62-0.55,0.88-0.69L37.85,75.33z M35.78,70.31c-0.7-1.44-0.37-4.43-0.29-5.03c0.32-0.33,0.64-0.67,0.96-1.01&#10;&#9;&#9;&#9;c-0.01,2.02,1.14,3.4,2.41,4.57l-0.53,3.42C37.28,71.74,36.21,71.19,35.78,70.31z M40.3,74.78c-0.06,0.25-0.23,0.39-0.51,0.4&#10;&#9;&#9;&#9;l0.16-0.99C40.21,74.33,40.34,74.58,40.3,74.78z M38.83,76.33c-0.02,0.1-0.11,0.17-0.21,0.16c-0.14-0.02-0.17-0.14-0.16-0.21&#10;&#9;&#9;&#9;l2-12.95c0.17-0.17,0.38-0.35,0.62-0.53L38.83,76.33z M41.62,67.89c1.48,1.41,3.02,2.87,3,5.66c-0.02,3.44-3.39,5.89-8.19,5.95&#10;&#9;&#9;&#9;c-1.54,0.02-3.32,0.22-4.58,0.47c0.55-0.3,1.59-0.62,2.17-0.75c0.87-0.18,4.21-0.55,5.59-1.06c2.05-0.75,3.47-2.06,3.49-4.81&#10;&#9;&#9;&#9;c0.01-1.62-1.13-2.78-2.37-3.87l0.35-2.11C41.26,67.55,41.44,67.72,41.62,67.89z M45.17,56.87c-0.03,2.13-2.02,3.53-3.61,4.66&#10;&#9;&#9;&#9;c-1.25,0.88-2.24,1.58-2.25,2.5c0,0.35,0.05,0.68,0.14,0.99l-0.45,2.92c-1.02-1-1.82-2.14-1.8-3.7c0.02-1.77,1.59-2.89,3.11-3.97&#10;&#9;&#9;&#9;c1.37-0.97,2.66-1.89,2.68-3.25c0-0.23-0.02-0.44-0.06-0.63l0.5-3.03C44.34,54.14,45.2,55.12,45.17,56.87z M39.74,59.75&#10;&#9;&#9;&#9;c0.05-1.01,0.15-2.97,0.18-5.35c0.24,0.18,0.94,0.65,1.05,0.73l-0.65,4.21C40.17,59.44,39.78,59.72,39.74,59.75z M41.19,58.66&#10;&#9;&#9;&#9;l1.37-8.87c0.22-0.18,0.49-0.37,0.8-0.56l-1.45,8.68C41.72,58.16,41.47,58.41,41.19,58.66z M47.9,42.55&#10;&#9;&#9;&#9;c-0.04,3.06-2.4,4.49-4.29,5.63c-1.24,0.75-2.32,1.41-2.33,2.38c0,0.36,0.09,0.67,0.25,0.95l-0.43,2.79&#10;&#9;&#9;&#9;c-0.54-0.24-2.39-1.59-2.26-3.63c0.15-2.32,1.76-3.28,3.6-4.29c1.64-0.9,3.33-1.83,3.36-3.81c0.01-0.5-0.13-0.92-0.36-1.28&#10;&#9;&#9;&#9;l0.44-2.61C46.93,39.65,47.93,40.71,47.9,42.55z M43.29,45.03l1.62-10.54c0.26-0.31,0.61-0.58,1.03-0.84l-1.79,10.73&#10;&#9;&#9;&#9;C43.9,44.62,43.61,44.83,43.29,45.03z M51.56,26.82c-0.04,3.12-2.31,4.26-4.49,5.37c-1.67,0.84-3.25,1.64-3.35,3.3&#10;&#9;&#9;&#9;c-0.02,0.32,0.03,0.62,0.13,0.89l-0.46,2.96c-0.92-0.82-1.76-1.87-1.74-3.78c0.02-2.39,2.62-4.07,3.74-4.68&#10;&#9;&#9;&#9;c0.28-0.15,0.56-0.3,0.82-0.44c1.58-0.82,2.95-1.53,2.96-3.35c0.01-0.72-0.48-1.58-1-2.3l0.5-2.99&#10;&#9;&#9;&#9;C50.36,23.36,51.59,24.9,51.56,26.82z M50.22,17.55c-0.26,0.24-0.47,0.43-0.65,0.59c-0.12,0.11-0.23,0.21-0.33,0.29&#10;&#9;&#9;&#9;c0,0,0.19-1.15,0.19-1.16c0.13-0.08,0.24-0.19,0.4-0.36c0.16-0.17,0.48-0.74,0.26-0.87c-0.14-0.09-0.24,0.01-0.49,0.29&#10;&#9;&#9;&#9;c-0.2,0.23-0.52,0.51-0.71,0.3c-0.14-0.16-0.13-0.45-0.06-0.61c0.1-0.25,0.34-0.7,0.83-0.72c0.25,0.21,0.56,0.43,0.97,0.66&#10;&#9;&#9;&#9;C50.72,16.26,50.83,16.98,50.22,17.55z M56.19,15.75c-0.03,0.12-0.15,0.21-0.25,0.27c-0.63,0.36-2.15,0.42-3.83-0.16&#10;&#9;&#9;&#9;c-1.55-0.53-2.11-1.13-2.56-1.6c-0.34-0.36-0.63-0.57-1.26-0.72c-0.75-0.18-1.44-0.05-1.95,0.29c-0.63,0.42-0.8,1.09-0.87,1.41&#10;&#9;&#9;&#9;c-0.13,0.06-0.89,0.29-0.92,1.35c-0.03,1.12,0.41,1.69,0.87,2.22c-0.29,0.58-0.71,1.18-1.05,1.73c-1.12-1.13-2.21-2.73-1.87-5.21&#10;&#9;&#9;&#9;c0.26-1.91,1.62-3.95,4.69-3.95c1.4,0,1.97,0.29,2.64,0.62c0.28,0.14,0.57,0.28,0.93,0.41c0.51,0.18,1.06,0.19,1.55,0.19&#10;&#9;&#9;&#9;c0.35,0,0.67,0,0.9,0.07c0.69,0.21,0.89,0.54,1.13,0.93c0,0,0.26,0.39,0.38,0.52c0.23,0.25,0.5,0.46,0.74,0.66&#10;&#9;&#9;&#9;C55.96,15.17,56.26,15.43,56.19,15.75z" style="fill: rgb(171, 22, 62);"/>
      <path class="st0" d="M36.87,44.06c0.02-0.21-0.13-0.39-0.33-0.41c-0.21-0.02-0.39,0.13-0.41,0.34c-0.5,4.67-1.55,8.46-3.6,13.08&#10;&#9;&#9;&#9;c-2.74,6.16-3.17,9.84-3.19,9.99c-0.02,0.21,0.13,0.39,0.33,0.41c0.21,0.02,0.39-0.14,0.42-0.33c0-0.04,0.44-3.73,3.13-9.77&#10;&#9;&#9;&#9;C35.29,52.68,36.35,48.82,36.87,44.06z" style="fill: rgb(171, 22, 62);"/>
    </g>
  </g>
</svg>
