<?xml version="1.0" encoding="utf-8"?>
<svg viewBox="72.5848 -0.0002 354.8304 500.0005" width="354.8304" height="500.0005" xmlns="http://www.w3.org/2000/svg">
  <g transform="matrix(1, 0, 0, 1, 627.3241577148439, 267.9672546386719)">
    <path class="st0" d="M -543.196 104.511 L -540.431 71.335 L -517.853 -51.235 L -498.039 -56.303 L -483.754 -59.529 L -465.323 -71.509 L -439.98 -126.343 L -369.479 -137.402 C -369.479 -137.402 -357.499 -107.451 -365.793 -101.921 C -374.087 -96.392 -383.303 -97.313 -384.685 -93.627 C -386.068 -89.941 -386.528 -83.029 -386.528 -83.029 L -370.862 -77.039 L -311.881 -67.362 L -301.283 -55.843 L -317.871 68.57 L -351.048 106.355 L -507.255 134.923 L -543.196 104.511 Z" style="fill: rgb(255, 255, 255);"/>
    <path class="st1" d="M -361.185 -105.608 C -317.871 -111.137 -296.214 -143.392 -295.292 -180.716 C -294.371 -224.03 -329.851 -265.04 -375.93 -267.805 C -418.783 -270.569 -462.558 -237.854 -464.862 -186.245 C -465.784 -163.667 -457.029 -142.931 -442.284 -127.725" style="fill: rgb(255, 255, 255); stroke: rgb(0, 74, 147); stroke-width: 0.8432px;"/>
    <path class="st2" d="M -493.431 128.012 C -493.431 129.855 -493.431 131.237 -493.431 132.159" style="fill: rgb(0, 74, 147);"/>
    <path class="st2" d="M -487.902 180.08 C -487.902 181.002 -488.362 186.532 -488.362 187.453 C -489.284 195.286 -490.205 195.747 -492.049 201.737 C -493.892 207.728 -499.882 216.022 -498.039 220.63 C -496.196 225.238 -491.588 227.081 -484.676 228.002 C -468.548 230.306 -453.342 221.091 -439.058 220.169 C -428.921 219.708 -423.852 219.708 -408.646 223.855 C -394.823 227.542 -370.401 233.532 -358.881 231.689 C -345.979 229.846 -325.704 223.394 -321.097 222.012 C -294.371 221.091 -269.488 237.218 -255.665 226.62 C -250.135 222.473 -254.282 217.865 -250.135 209.571 C -245.988 201.277 -237.233 184.228 -231.704 164.414 C -223.87 137.688 -225.253 133.08 -224.792 122.021 C -224.792 117.874 -225.253 97.139 -228.939 70.413 C -233.086 69.952 -257.508 67.188 -257.508 67.188 L -284.694 75.943 C -284.694 75.943 -316.028 57.05 -317.41 61.658 C -318.793 66.266 -336.763 97.139 -353.352 97.6 C -364.411 98.06 -382.381 83.776 -394.362 71.795 C -408.185 57.972 -416.019 45.07 -422.931 36.315 C -440.44 13.275 -458.872 -65.519 -453.342 -77.5 C -468.088 -71.509 -476.843 -69.205 -486.519 -65.519 L -488.823 -56.764 L -493.431 4.06 L -497.117 40.923 C -497.578 57.972 -493.431 58.433 -492.97 62.119 L -493.431 67.648 C -492.509 79.629 -492.049 87.001 -491.588 88.384 C -487.902 98.521 -487.902 105.894 -487.902 105.894 C -486.98 130.315 -499.421 131.698 -505.872 128.012 C -523.843 121.1 -533.059 97.139 -535.823 88.384 C -540.431 74.099 -547.343 54.286 -549.647 45.07 C -558.402 100.825 -549.647 139.531 -541.814 162.11 C -525.225 210.032 -513.706 210.032 -507.255 206.345 C -502.647 204.041 -492.509 192.983 -487.441 183.306 L -487.902 180.08 Z" style="fill: rgb(0, 74, 147);"/>
    <path class="st2" d="M -310.959 -176.569 C -310.498 -181.638 -309.116 -190.853 -310.038 -198.226 C -314.646 -225.412 -345.057 -250.295 -379.156 -250.295 C -422.009 -250.295 -446.431 -217.579 -445.97 -183.941 C -445.97 -167.353 -435.372 -148.461 -433.529 -146.618 C -430.764 -142.01 -426.156 -137.402 -426.617 -139.245 C -425.695 -139.245 -391.136 -185.785 -388.832 -188.549 C -386.068 -191.775 -380.077 -195.922 -379.156 -197.304 C -378.234 -198.687 -369.94 -200.991 -369.94 -200.991 C -369.018 -201.451 -367.636 -201.912 -366.254 -201.912 C -339.989 -205.598 -331.234 -198.687 -326.626 -195.922 C -317.41 -190.853 -316.028 -185.785 -314.185 -183.02 C -314.185 -182.559 -313.724 -181.638 -313.724 -179.334 C -314.185 -174.726 -314.646 -170.579 -315.567 -164.588 C -316.028 -162.284 -316.028 -161.824 -316.949 -159.52 C -317.871 -157.216 -316.489 -157.216 -318.332 -155.373 C -319.714 -153.99 -321.097 -153.069 -321.557 -152.608 C -327.087 -148.922 -326.626 -145.235 -327.087 -141.088 C -327.548 -138.324 -328.93 -134.637 -330.773 -132.333 C -335.381 -127.265 -341.371 -120.814 -343.675 -119.431 C -345.979 -117.588 -350.587 -112.98 -356.116 -109.755 C -357.038 -109.294 -362.107 -106.529 -363.028 -105.608 C -365.793 -103.764 -367.175 -101.921 -370.401 -100.539 C -371.322 -100.078 -373.626 -99.157 -375.009 -99.157 C -378.695 -98.696 -381.46 -100.539 -384.685 -102.382 C -392.058 -106.529 -397.126 -112.059 -401.734 -119.431 C -404.96 -123.118 -405.421 -126.343 -406.803 -128.186 C -407.725 -128.647 -408.185 -129.108 -408.646 -128.186 C -409.107 -127.265 -407.725 -124.039 -406.803 -121.735 L -405.421 -118.51 C -402.656 -114.363 -403.117 -114.823 -402.195 -113.441 C -398.048 -107.912 -393.44 -103.764 -387.45 -100.078 C -385.146 -98.696 -382.842 -96.853 -380.077 -96.853 C -378.234 -96.392 -377.313 -96.392 -375.009 -96.853 C -373.626 -96.853 -372.244 -97.313 -369.94 -97.774 C -366.714 -98.696 -364.411 -100.539 -360.724 -102.843 C -359.342 -103.764 -355.656 -106.068 -354.273 -106.99 C -348.744 -110.676 -345.979 -113.441 -342.293 -116.206 C -338.606 -119.431 -335.842 -121.735 -333.999 -124.5 C -327.548 -129.569 -324.783 -136.02 -324.322 -144.314 C -324.322 -145.696 -324.783 -147.078 -323.4 -148.461 C -322.018 -149.382 -318.793 -152.147 -316.949 -153.53 C -314.185 -157.216 -310.959 -176.569 -310.959 -176.569 Z M -431.225 -102.382 C -432.607 -101 -434.45 -100.539 -435.833 -100.539 C -437.215 -106.068 -439.98 -107.912 -443.205 -113.902 C -445.048 -117.588 -445.048 -122.196 -445.048 -124.039 C -444.588 -126.343 -441.362 -127.725 -439.98 -126.804 C -439.058 -125.882 -440.44 -127.265 -439.519 -126.343 C -439.058 -125.882 -434.45 -119.892 -432.607 -116.206 C -428.46 -109.294 -428.46 -105.147 -431.225 -102.382 Z M -403.577 -158.137 C -403.577 -158.137 -403.577 -158.137 -403.577 -158.137 C -403.577 -158.137 -403.577 -158.137 -403.577 -158.137 C -403.577 -158.137 -403.577 -158.137 -403.577 -158.137 Z M -350.126 -206.52 C -360.263 -206.52 -359.803 -206.52 -363.028 -206.059 C -365.332 -205.598 -369.479 -204.677 -369.94 -204.677 C -369.94 -205.598 -370.401 -208.363 -370.862 -209.746 C -370.862 -212.05 -370.862 -213.432 -371.322 -215.275 C -358.881 -223.108 -324.322 -220.804 -314.646 -199.147 C -313.724 -196.844 -312.802 -189.471 -314.185 -186.245 C -314.185 -186.245 -313.263 -185.785 -316.489 -190.853 C -319.714 -196.383 -333.999 -206.52 -350.126 -206.52 Z" style="fill: rgb(0, 74, 147);"/>
    <path class="st3" d="M -313.263 -39.254 C -319.714 -40.637 -355.195 -33.264 -371.322 -7.921 C -344.597 16.962 -291.145 67.188 -295.753 74.56 C -280.547 54.286 -246.91 57.511 -246.449 51.06 C -245.527 39.54 -211.429 16.962 -203.135 12.815 C -206.36 8.207 -229.4 -30.499 -235.39 -39.254 C -248.753 -58.607 -273.175 -84.411 -273.175 -84.411 C -273.175 -84.411 -292.528 -73.353 -298.518 -65.98 C -305.43 -58.147 -311.881 -43.862 -313.263 -39.254 Z" style="fill: rgb(255, 255, 255); stroke: rgb(0, 74, 147); stroke-width: 0.9155px;"/>
    <line class="st3" x1="-315.567" y1="-40.637" x2="-303.126" y2="-25.891" style="fill: rgb(255, 255, 255); stroke: rgb(0, 74, 147); stroke-width: 0.9155px;"/>
    <path class="st2" d="M -374.087 -173.804 C -370.862 -174.265 -367.636 -173.343 -366.714 -173.343 C -363.95 -172.422 -358.881 -170.579 -358.881 -166.432 C -358.881 -165.049 -358.881 -166.432 -359.342 -163.667 C -359.342 -162.745 -358.881 -162.745 -358.42 -163.206 C -357.499 -164.588 -357.499 -164.588 -357.499 -165.971 C -357.499 -165.971 -357.038 -166.892 -357.499 -167.814 C -357.499 -168.736 -357.96 -170.118 -359.342 -171.5 C -362.567 -174.265 -364.411 -174.265 -370.401 -174.726 C -372.244 -174.726 -377.313 -174.726 -380.077 -175.187 C -380.077 -175.187 -377.773 -173.343 -376.852 -173.343 C -375.469 -173.804 -375.009 -173.804 -374.087 -173.804 Z" style="fill: rgb(0, 74, 147);"/>
    <path class="st2" d="M -365.332 -164.128 C -362.567 -163.667 -358.881 -166.892 -359.342 -169.196 C -359.803 -171.961 -362.107 -174.265 -365.793 -174.265 C -367.175 -174.265 -369.94 -171.961 -370.401 -169.196 C -370.862 -166.892 -368.558 -164.128 -365.332 -164.128 Z" style="fill: rgb(0, 74, 147);"/>
    <path class="st2" d="M -372.705 -162.284 C -371.783 -161.363 -369.94 -160.441 -368.097 -159.981 C -368.097 -159.981 -365.793 -159.52 -365.793 -159.981 C -364.871 -159.981 -364.411 -159.981 -363.489 -159.981 C -362.567 -159.981 -362.107 -159.981 -361.646 -160.902 C -361.646 -160.902 -361.646 -161.824 -361.646 -161.824 C -364.871 -160.902 -368.097 -161.363 -369.94 -162.284 C -371.783 -163.206 -373.626 -165.049 -375.009 -166.432 C -375.469 -166.892 -375.93 -167.814 -376.852 -169.196 C -377.313 -169.657 -376.391 -166.892 -376.391 -165.971 C -375.469 -165.971 -375.009 -164.128 -372.705 -162.284 Z" style="fill: rgb(0, 74, 147);"/>
    <path class="st2" d="M -328.008 -150.765 C -328.008 -153.53 -327.548 -155.833 -330.312 -157.677 C -333.077 -159.52 -334.92 -159.059 -339.989 -158.137 C -341.832 -157.677 -342.754 -157.216 -346.44 -155.833 C -346.901 -155.373 -345.979 -154.451 -344.597 -154.912 C -339.528 -156.755 -339.528 -155.833 -339.528 -155.833 C -339.528 -155.833 -339.989 -154.912 -339.989 -154.912 C -339.989 -154.451 -340.45 -153.99 -340.45 -153.53 C -340.45 -151.226 -339.067 -148.461 -336.303 -148.461 C -333.999 -148.461 -331.695 -150.304 -330.773 -151.686 C -330.312 -152.147 -328.008 -150.765 -328.008 -150.765 Z" style="fill: rgb(0, 74, 147);"/>
    <path class="st2" d="M -342.293 -147.539 C -340.91 -146.157 -338.606 -144.775 -336.303 -145.235 C -335.381 -145.235 -333.999 -146.157 -333.538 -146.618 C -333.538 -146.618 -332.155 -147.539 -333.077 -147.539 C -337.685 -146.618 -339.067 -147.078 -341.371 -148.922 C -342.293 -149.843 -343.675 -152.147 -343.675 -153.069 C -344.597 -154.912 -344.597 -153.99 -344.597 -153.069 C -344.597 -151.686 -343.675 -148.461 -342.293 -147.539 Z" style="fill: rgb(0, 74, 147);"/>
    <path class="st2" d="M -360.263 -183.02 C -357.96 -180.716 -357.038 -178.873 -355.656 -176.108 C -355.195 -175.187 -353.352 -171.039 -353.352 -171.5 C -352.891 -170.579 -351.969 -170.118 -351.048 -170.118 C -349.665 -170.579 -348.744 -171.039 -349.205 -171.961 C -349.205 -174.265 -351.508 -176.569 -354.734 -180.716 C -357.038 -183.481 -361.646 -186.706 -366.714 -187.167 C -367.636 -187.167 -375.009 -187.628 -375.009 -186.706 C -375.009 -185.785 -372.705 -186.706 -370.401 -186.245 C -367.175 -186.706 -363.028 -185.324 -360.263 -183.02 Z" style="fill: rgb(0, 74, 147);"/>
    <path class="st2" d="M -355.195 -129.569 C -354.273 -129.108 -353.352 -129.108 -352.43 -129.108 C -351.048 -129.108 -351.048 -129.569 -350.126 -130.029 C -349.205 -130.951 -349.205 -134.176 -349.205 -135.098 C -349.205 -142.471 -350.587 -147.078 -349.205 -153.53 C -348.283 -158.137 -347.361 -159.52 -345.057 -161.824 C -343.675 -163.206 -341.832 -163.206 -341.371 -163.667 C -340.45 -164.128 -339.989 -163.206 -338.606 -163.667 C -328.93 -165.971 -325.704 -164.588 -323.4 -164.128 C -321.097 -163.206 -318.793 -161.824 -318.332 -159.059 C -317.871 -158.137 -318.793 -157.216 -317.871 -157.216 C -316.949 -157.677 -316.028 -158.598 -316.028 -159.52 C -316.949 -163.206 -321.097 -166.432 -324.783 -167.353 C -328.93 -168.736 -333.077 -169.657 -337.224 -168.275 C -340.45 -167.353 -343.675 -166.432 -346.901 -163.206 C -349.205 -160.902 -351.508 -157.677 -351.969 -153.53 C -352.43 -146.157 -351.048 -135.098 -352.891 -132.794 C -354.734 -131.412 -357.038 -132.794 -358.42 -131.873 C -359.342 -131.412 -359.803 -130.49 -358.881 -129.569 C -358.42 -129.108 -357.038 -129.569 -356.116 -130.029 C -357.038 -130.029 -356.116 -130.029 -355.195 -129.569 Z" style="fill: rgb(0, 74, 147);"/>
    <path class="st2" d="M -365.332 -134.637 C -364.871 -133.716 -363.95 -132.333 -363.028 -132.794 C -362.107 -132.794 -362.567 -135.559 -362.567 -136.02 C -363.028 -137.402 -364.871 -140.167 -367.175 -139.245 C -367.175 -139.245 -368.097 -138.784 -369.018 -137.402 C -367.636 -136.48 -366.254 -136.48 -365.332 -134.637 Z" style="fill: rgb(0, 74, 147);"/>
    <path class="st2" d="M -377.313 -128.186 C -375.469 -127.265 -373.626 -126.804 -372.244 -126.343 C -369.94 -125.421 -369.94 -123.578 -367.636 -122.196 C -366.714 -121.735 -364.411 -121.274 -363.028 -120.814 C -362.107 -119.892 -360.724 -118.51 -360.724 -118.51 C -359.803 -117.127 -359.803 -116.206 -358.881 -116.206 C -357.96 -116.206 -357.96 -117.127 -358.42 -118.51 C -358.881 -119.892 -358.881 -120.814 -359.803 -122.657 C -360.724 -124.961 -363.489 -124.5 -364.411 -124.961 C -365.332 -125.421 -365.332 -127.725 -368.097 -128.186 C -371.322 -128.647 -373.165 -129.108 -375.93 -129.569 C -378.234 -130.029 -380.538 -130.951 -380.538 -130.49 C -380.538 -129.569 -378.695 -128.647 -377.313 -128.186 Z" style="fill: rgb(0, 74, 147);"/>
    <path class="st2" d="M -377.313 -120.814 C -376.391 -118.049 -374.087 -115.284 -371.322 -114.823 C -370.401 -114.823 -363.028 -114.363 -363.028 -115.284 C -363.028 -116.206 -366.714 -114.823 -371.322 -118.049 C -376.391 -121.274 -376.852 -124.5 -378.234 -125.421 C -378.695 -124.039 -377.313 -120.814 -377.313 -120.814 Z" style="fill: rgb(0, 74, 147);"/>
    <path class="st2" d="M -381.92 -97.774 C -383.764 -96.392 -386.068 -95.01 -386.989 -92.706 C -387.911 -90.862 -387.911 -89.019 -388.371 -86.255 C -388.832 -82.107 -388.832 -80.725 -388.371 -76.117 C -387.911 -72.892 -387.45 -67.823 -386.989 -66.441 C -386.528 -65.98 -386.068 -65.058 -384.685 -64.598 C -383.303 -64.137 -381.92 -64.137 -380.538 -63.676 C -379.617 -65.058 -381.46 -65.058 -383.303 -66.441 C -384.224 -67.362 -384.685 -70.588 -384.685 -72.431 C -385.146 -75.656 -385.146 -79.804 -385.146 -81.647 C -385.146 -83.49 -385.146 -81.647 -384.685 -85.333 C -384.224 -87.637 -384.224 -90.402 -383.303 -92.706 C -382.842 -94.088 -379.156 -95.931 -378.234 -96.853 C -378.234 -96.853 -379.156 -96.392 -379.156 -96.392 C -378.234 -96.853 -379.156 -96.853 -379.617 -97.313 C -380.077 -98.235 -380.538 -98.235 -381.46 -97.774 L -381.92 -97.774 Z" style="fill: rgb(0, 74, 147);"/>
    <path class="st2" d="M -406.803 -64.137 C -402.656 -63.215 -399.43 -61.372 -399.43 -61.372 C -399.43 -61.372 -398.509 -60.45 -398.048 -60.45 C -397.126 -60.45 -397.126 -61.833 -397.126 -61.833 C -398.048 -63.676 -400.813 -65.058 -400.813 -65.058 C -402.656 -65.519 -404.499 -66.441 -406.342 -65.98 C -406.803 -65.98 -407.725 -64.598 -406.803 -64.137 Z" style="fill: rgb(0, 74, 147);"/>
    <path class="st2" d="M -469.931 -142.471 C -465.784 -153.53 -483.294 -163.206 -483.754 -164.128 C -483.754 -162.284 -483.294 -161.363 -483.294 -161.363 C -482.833 -160.441 -480.529 -158.137 -479.607 -156.294 C -478.686 -154.451 -475.46 -149.382 -480.068 -144.775 C -484.215 -140.627 -492.509 -134.176 -496.656 -131.412 C -498.039 -130.49 -498.039 -130.029 -498.5 -130.951 C -501.264 -133.716 -507.715 -139.706 -512.323 -146.157 C -515.088 -149.843 -514.627 -152.147 -513.706 -154.451 C -512.323 -158.137 -507.255 -162.284 -507.255 -162.284 L -506.333 -164.588 C -506.333 -164.588 -508.637 -163.667 -512.784 -162.284 C -517.392 -159.981 -521.539 -155.833 -522.921 -151.226 C -525.225 -142.471 -510.48 -127.725 -507.255 -124.039 C -508.637 -123.118 -509.098 -122.196 -510.941 -120.814 C -514.166 -118.049 -524.304 -107.912 -525.225 -102.843 C -526.608 -97.313 -520.157 -68.745 -517.392 -53.078 C -512.784 -54.46 -510.019 -55.843 -508.637 -55.843 C -510.019 -70.588 -513.706 -94.549 -513.245 -99.157 C -513.245 -101.921 -499.421 -113.902 -496.196 -117.127 C -492.97 -119.892 -482.372 -128.647 -480.068 -130.951 C -476.382 -134.637 -472.235 -136.941 -469.931 -142.471 Z" style="fill: rgb(0, 74, 147);"/>
    <g transform="matrix(4.607869, 0, 0, 4.607869, -561.62738, -281.16745)">
      <path class="st0" d="M13.9,75.2c-0.3,0.6,1.7,0.4,4.1,4.6c1,2,1.3,2.6,1.4,6.5c2.2,2.8,4,7.2,6.6,11.1c2.2,3.2,7,3.7,9,4.5    c8.2,3.1,6.3,5.1,9.3,5.1c2.4-0.1,6.7-3.9,8.2-5.9c2.3-3.2,3-4.7,4.3-9.1c0.7-2.3,1.6-6.5,1.4-9.3c-0.6,2-2.2,9.9-5.9,15.3    c-1.8,2.7-4.1,4.4-6.2,4.6c-3.2,0.3-9.6-3.3-16.2-9.8c-2.6-2.4-4.5-5.7-7-9.9c-1.6-2.7-4.6-7.5-4.8-8.3c-0.3-1.3-0.4-8-0.3-10    c0.1-3,1.3-9.1,1.5-8.1c0.3,1.2-0.1,3.8,0.4,7.1c1,6.9,1.4,8.7,2.9,10.9c3.5,5.1,12.4,13.4,15.7,15.6c6.4,4.1,8.6,5,10.7,4.7    c1.3-0.2,2.3-2.3,2.9-3.5c1.9-3.6,3.7-11.4,4.4-13.1c0.3-0.7-1-1.4-1-1.4s-2.6,8.3-6.2,11.8c-1.2,1.2-1.8,1.8-4.4,0.7    c-2.7-1.1-10.7-8.1-13.4-11.7c-3.2-4.3-4.1-6-4.9-8.4c-0.8-2.3-3.1-9.8-3.8-14.2c-0.3-1.8-1.3-5.5-1-8.8c-1.1,0.3-6.1,2.1-6.6,3.6    c-0.2,2.8-0.8,6.2-0.9,12L13.9,75.2z" style="fill: rgb(255, 255, 255);"/>
      <path class="st0" d="M54.7,86.4C54.8,86.2,54.8,86.2,54.7,86.4L54.7,86.4z" style="fill: rgb(255, 255, 255);"/>
    </g>
    <path class="st0" d="M -466.705 166.718 C -459.794 186.532 -450.578 191.6 -437.676 195.286 C -427.538 198.512 -407.264 204.502 -407.725 209.571 C -428.921 204.041 -439.519 203.12 -454.725 205.885 C -469.931 209.11 -472.235 208.649 -474.999 205.885 C -477.764 202.659 -471.313 197.59 -469.931 192.061 C -466.705 178.698 -471.774 168.1 -466.705 166.718 Z" style="fill: rgb(255, 255, 255);"/>
    <path class="st0" d="M -304.969 208.649 C -310.038 208.649 -312.342 210.492 -316.949 210.953 C -324.322 210.032 -313.263 202.198 -309.577 196.669 C -305.891 191.139 -304.047 180.541 -299.44 180.541 C -298.979 184.688 -298.979 186.992 -298.057 193.443 C -295.292 210.953 -281.008 215.1 -282.851 216.022 C -291.606 219.708 -299.44 209.11 -304.969 208.649 Z" style="fill: rgb(255, 255, 255);"/>
    <path class="st0" d="M -236.772 126.629 C -245.988 153.355 -259.351 160.727 -264.88 158.423 C -274.096 154.737 -271.792 140.914 -270.871 124.325 C -270.41 106.355 -268.567 84.698 -263.959 68.57 C -263.498 66.266 -277.322 75.482 -281.93 79.629 C -281.93 81.933 -272.714 90.688 -279.165 124.786 C -286.998 151.051 -285.616 171.786 -284.694 180.08 C -282.851 192.061 -278.243 199.894 -269.949 202.198 C -257.969 205.424 -249.675 183.767 -243.684 165.796 C -240.459 153.355 -233.086 115.109 -236.772 126.629 Z" style="fill: rgb(255, 255, 255);"/>
    <path class="st4" d="M -444.127 -84.872 C -446.891 -80.725 -452.421 -69.666 -443.205 -58.147 C -438.597 -52.156 -433.068 -48.009 -422.009 -44.323 C -405.881 -38.333 -396.666 -34.186 -390.215 -23.588 C -387.911 -19.901 -388.832 -16.215 -388.832 -16.215 C -388.832 -16.215 -388.832 -21.744 -386.528 -27.274 C -384.685 -32.803 -380.077 -39.715 -373.165 -44.784 C -366.254 -49.852 -358.881 -54.46 -359.342 -65.98 C -359.803 -75.196 -368.097 -76.117 -372.705 -77.96" style="fill: none; stroke: rgb(0, 74, 147); stroke-width: 0.9155px;"/>
    <path class="st5" d="M -386.528 1.295 C -382.842 0.834 -380.999 -4.695 -381.46 -8.842 C -381.92 -12.989 -384.224 -16.676 -388.371 -16.215 C -392.058 -15.754 -394.823 -11.146 -394.362 -6.999 C -393.44 3.138 -386.989 1.295 -386.528 1.295 Z" style="fill: rgb(0, 74, 147); stroke: rgb(0, 74, 147); stroke-width: 0.9155px;"/>
    <path class="st2" d="M -373.626 -7.921 C -372.705 -4.234 -371.322 -4.695 -372.244 10.05 C -349.665 25.256 -296.214 85.619 -296.214 85.619 L -248.753 59.815 C -248.753 59.815 -224.792 28.481 -202.674 23.874 C -201.292 17.423 -201.292 16.962 -199.909 13.275 C -203.135 11.893 -234.929 30.785 -245.988 50.599 C -268.567 57.511 -293.449 71.795 -293.449 71.795 C -293.449 71.795 -337.224 23.874 -373.626 -7.921 Z" style="fill: rgb(0, 74, 147);"/>
    <path class="st4" d="M -341.832 -8.842 C -341.832 -8.842 -325.244 -24.509 -303.126 -27.735 C -299.44 -34.646 -281.469 -56.303 -276.4 -59.529" style="fill: none; stroke: rgb(0, 74, 147); stroke-width: 0.9155px;"/>
    <path class="st4" d="M -329.851 3.138 C -329.851 3.138 -304.047 -16.215 -291.145 -15.754 C -284.694 -28.195 -274.096 -39.715 -264.88 -46.166" style="fill: none; stroke: rgb(0, 74, 147); stroke-width: 0.9155px;"/>
    <path class="st4" d="M -318.793 16.04 C -318.793 16.04 -291.145 -5.617 -278.243 -1.47 C -278.243 -8.842 -260.273 -27.735 -254.282 -31.882" style="fill: none; stroke: rgb(0, 74, 147); stroke-width: 0.9155px;"/>
    <path class="st4" d="M -306.812 29.403 C -306.812 29.403 -281.469 13.275 -269.949 12.354 C -266.263 5.442 -249.214 -14.833 -245.527 -16.676" style="fill: none; stroke: rgb(0, 74, 147); stroke-width: 0.9155px;"/>
    <path class="st4" d="M -295.292 42.305 C -295.292 42.305 -274.096 29.403 -260.273 28.942 C -256.586 22.03 -240.459 3.599 -234.008 0.373" style="fill: none; stroke: rgb(0, 74, 147); stroke-width: 0.9155px;"/>
    <path class="st6" d="M -299.9 -22.205 C -304.508 -24.97 -305.43 -30.039 -302.665 -32.803 C -298.518 -36.49 -294.832 -33.264 -292.528 -31.882 C -286.998 -28.656 -280.547 -24.97 -277.783 -21.744 C -275.018 -18.98 -265.341 -6.999 -259.812 -0.087 C -255.204 5.903 -241.841 27.099 -236.772 34.011 C -229.4 43.687 -232.165 46.913 -231.243 57.972 C -230.321 59.815 -234.008 87.923 -235.39 94.835 C -236.772 102.207 -245.988 128.472 -257.508 126.168 C -268.106 125.247 -258.89 70.874 -258.89 70.874 C -258.89 70.874 -257.047 63.962 -252.439 63.041 C -266.263 61.197 -303.587 22.03 -306.812 17.423 C -308.194 15.579 -312.342 9.128 -304.969 6.824 C -301.743 5.442 -289.302 18.805 -289.302 18.805 C -289.302 18.805 -299.9 9.128 -301.283 6.364 C -302.204 4.981 -303.587 -0.087 -298.518 -1.931 C -295.753 -2.852 -292.989 -2.391 -279.626 10.972 C -277.783 12.815 -298.979 -6.999 -302.204 -8.842 C -305.43 -10.685 -315.106 -14.833 -316.489 -22.205 C -316.949 -24.048 -315.106 -27.274 -310.959 -27.274 C -308.194 -27.274 -293.449 -18.98 -290.224 -16.215 C -286.537 -12.989 -271.792 2.677 -271.792 2.677" style="fill: rgb(255, 255, 255); stroke: rgb(0, 74, 147); stroke-linecap: round; stroke-width: 0.9155px;"/>
    <path class="st7" d="M -538.127 89.305 C -539.971 82.854 -543.196 75.021 -546.422 61.658 C -548.725 51.521 -555.176 35.854 -554.716 23.874 C -554.716 11.432 -546.422 -11.607 -541.353 -22.666 C -538.127 -29.117 -534.441 -44.323 -527.99 -47.548 C -518.774 -51.696 -500.343 -57.225 -498.5 -57.686 C -496.196 -58.147 -485.137 -53.078 -477.764 -49.392 C -469.47 -45.245 -463.019 -42.941 -463.941 -39.254 C -464.401 -36.029 -468.548 -30.96 -482.833 -38.333" style="fill: rgb(255, 255, 255); stroke: rgb(0, 74, 147); stroke-width: 1.0362px;"/>
    <path class="st8" d="M -511.402 -26.352 C -511.402 -26.352 -501.264 -29.578 -497.117 -29.117 C -489.284 -28.195 -485.598 -27.274 -483.294 -24.97 C -480.99 -22.666 -481.911 -16.215 -486.058 -15.293 C -489.745 -14.833 -496.656 -16.215 -496.656 -16.215 C -502.186 -16.215 -502.186 -15.754 -508.637 -13.911" style="fill: rgb(255, 255, 255); stroke: rgb(0, 74, 147); stroke-linecap: round; stroke-linejoin: round; stroke-width: 1.0362px;"/>
    <path class="st9" d="M -514.627 -38.793 C -514.627 -38.793 -504.029 -42.941 -499.421 -42.941 C -495.274 -42.941 -487.441 -40.176 -482.833 -38.333 C -478.686 -36.49 -479.147 -28.656 -485.598 -27.274" style="fill: none; stroke: rgb(0, 74, 147); stroke-linecap: round; stroke-linejoin: round; stroke-width: 1.0362px;"/>
    <path class="st10" d="M -508.637 -13.45 C -505.411 -14.372 -499.882 -15.754 -495.735 -15.293 C -490.666 -14.372 -485.598 -13.911 -485.598 -9.303 C -485.598 -6.078 -486.519 -3.774 -489.745 -2.852 C -491.588 -2.391 -499.421 -2.852 -504.951 -2.852 C -504.951 -2.852 -515.549 -4.695 -520.157 8.207 C -521.539 11.893 -524.765 33.089 -530.294 34.472 C -531.216 35.393 -529.372 38.619 -528.451 40.923 C -528.451 41.384 -527.99 41.384 -527.99 41.844 C -526.608 45.07 -522.921 50.599 -522.921 50.599 C -522.921 50.599 -522.921 50.599 -524.304 55.207 C -526.608 49.217 -530.294 37.236 -530.294 37.236" style="fill: rgb(255, 255, 255); stroke: rgb(0, 74, 147); stroke-linecap: round; stroke-width: 1.0362px;"/>
    <g transform="matrix(4.607869, 0, 0, 4.607869, -561.62738, -281.16745)">
      <path class="st2" d="M12.7,83.3c-0.5,0-0.9-0.2-1-0.5c-0.1-0.5,0.2-3.8,0.6-8.1c0.1-1.3,0.2-2.4,0.3-3c0-0.1,0.1-1.3,0.1-2.5    c0.1-2.5,0.1-3.5,0.1-3.6c0.3-2.5,0.4-3.8,0.4-3.8l0-0.3l2.6,0.1l0,0.4c0,0.1-0.6,7.9-0.6,9.6c0,0.9,0.1,1.7,0.1,2.6    c0.1,2,0.2,4.3,0.1,7.5l0,0.1l-0.1,0.1C14.6,82.9,13.4,83.3,12.7,83.3z" style="fill: rgb(0, 74, 147);"/>
      <path class="st0" d="M13.6,61.7l1.9,0.1c0,0-0.6,7.9-0.6,9.7c0.1,2.8,0.4,5.4,0.2,10.1c-0.7,1-1.7,1.4-2.3,1.4    c-0.4,0-0.6-0.1-0.6-0.2c-0.1-0.7,0.7-9.1,0.8-11c0-0.3,0.2-5.9,0.2-6.1C13.5,63.1,13.6,61.7,13.6,61.7 M12.9,61l-0.1,0.7    c0,0-0.1,1.4-0.4,3.8c0,0.1,0,0.8-0.1,3.7c0,1.2-0.1,2.4-0.1,2.5c0,0.6-0.1,1.7-0.3,3c-0.5,5.2-0.7,7.6-0.6,8.2    c0,0.2,0.2,0.8,1.3,0.8c0.9,0,2.1-0.4,2.9-1.7l0.1-0.2l0-0.2c0.1-3.3,0-5.6-0.1-7.6c0-0.9-0.1-1.7-0.1-2.6c0-1.8,0.6-9.5,0.6-9.6    l0.1-0.7l-0.7,0L13.6,61L12.9,61L12.9,61z" style="fill: rgb(255, 255, 255);"/>
    </g>
    <path class="st11" d="M -499.421 -121.274 C -498.5 -121.274 -497.578 -122.196 -497.578 -123.118 C -497.578 -124.039 -498.5 -124.961 -499.421 -124.961 C -500.343 -124.961 -501.264 -124.039 -501.264 -123.118 C -501.264 -122.196 -500.343 -121.274 -499.421 -121.274 Z" style="fill: rgb(255, 255, 255); stroke: rgb(255, 255, 255); stroke-width: 0.5px;"/>
    <g transform="matrix(4.607869, 0, 0, 4.607869, -561.62738, -281.16745)">
      <path class="st2" d="M9.7,82.9c-0.6,0-1.2-0.6-1.6-1c0,0-1-1.2-0.9-1.8c0.1-0.6,0.3-1.4,0.5-2.1c0.1-0.4,0.2-0.8,0.3-1l0.9-4.5    c0.4-2,0.5-2.7,0.5-2.8c0-0.3,0.5-6.6,0.7-7.1c0.1-0.7,1.4-1.1,2.1-1.1c0.3,0,0.5,0.1,0.7,0.2c0.1,0.1,0.2,0.3,0.1,0.5    c0,0.1-1.1,9.5-1.2,10c0,0.1-0.1,0.7-0.2,1.5c-0.8,8.2-1.1,9-1.4,9.2C10,82.8,9.9,82.9,9.7,82.9C9.7,82.9,9.7,82.9,9.7,82.9z" style="fill: rgb(0, 74, 147);"/>
      <path class="st0" d="M12.2,61.8c0.3,0,0.5,0.1,0.4,0.3c0,0.3-1.1,9.5-1.2,10c-0.1,0.4-0.9,10.1-1.4,10.4c-0.1,0.1-0.2,0.1-0.3,0.1    c-0.9,0-2.2-1.9-2.1-2.4c0.2-0.9,0.6-2.5,0.8-3.1l0.9-4.5c0.4-2.1,0.5-2.7,0.5-2.9c0-0.3,0.5-6.6,0.6-7    C10.5,62.2,11.6,61.8,12.2,61.8 M12.2,61.1c-0.8,0-2.3,0.5-2.4,1.5c-0.2,0.9-0.7,7-0.7,7.1c0,0.1-0.1,0.6-0.5,2.8l-0.9,4.5    c-0.1,0.2-0.1,0.6-0.3,1C7.2,78.6,7,79.4,6.9,80c-0.1,0.7,0.7,1.7,0.9,2c0.4,0.5,1.1,1.2,1.9,1.2c0.2,0,0.5-0.1,0.7-0.2    c0.4-0.3,0.7-0.4,1.6-9.4c0.1-0.7,0.1-1.3,0.2-1.5c0.1-0.5,1.2-9.9,1.2-10c0-0.3-0.1-0.5-0.2-0.7C12.9,61.2,12.6,61.1,12.2,61.1    L12.2,61.1z" style="fill: rgb(255, 255, 255);"/>
    </g>
    <path class="st2" d="M -271.792 4.981 C -270.41 5.442 -269.488 4.521 -269.028 3.599 C -269.028 2.677 -269.488 1.295 -270.871 1.295 C -272.253 0.834 -273.175 1.756 -273.635 2.677 C -274.096 3.599 -273.175 4.981 -271.792 4.981 Z" style="fill: rgb(0, 74, 147);"/>
    <path class="st2" d="M -281.008 12.815 C -280.086 13.275 -278.704 13.275 -277.783 12.354 C -277.322 11.432 -277.783 10.05 -278.704 9.128 C -279.626 8.668 -281.008 8.668 -281.93 9.589 C -282.39 10.972 -281.93 11.893 -281.008 12.815 Z" style="fill: rgb(0, 74, 147);"/>
    <path class="st2" d="M -290.224 20.648 C -289.302 21.109 -287.92 21.109 -286.998 20.187 C -286.537 19.266 -286.998 17.883 -287.92 16.962 C -288.841 16.501 -290.224 16.501 -291.145 17.423 C -292.067 18.805 -291.606 20.187 -290.224 20.648 Z" style="fill: rgb(0, 74, 147);"/>
    <path class="st2" d="M -498.5 -59.529 C -498.039 -62.294 -489.284 -94.088 -489.745 -96.853 C -490.205 -100.539 -498.039 -112.98 -498.039 -112.98 L -490.205 -119.892 C -490.205 -119.892 -477.303 -106.068 -477.303 -100.078 C -476.843 -93.166 -484.676 -74.735 -488.823 -56.303 C -493.892 -57.686 -493.431 -58.607 -498.5 -59.529 Z" style="fill: rgb(0, 74, 147);"/>
    <path class="st12" d="M -434.45 -96.392 C -434.45 -96.392 -443.205 -112.519 -444.588 -117.588 C -447.352 -126.343 -439.519 -134.637 -434.45 -136.48 C -427.538 -122.657 -427.538 -121.274 -424.313 -114.823 C -423.391 -112.059 -424.774 -100.539 -434.45 -96.392 Z" style="fill: rgb(255, 255, 255); stroke: rgb(0, 74, 147);"/>
    <path class="st12" d="M -447.813 -79.804 C -447.813 -79.804 -452.421 -93.627 -453.342 -98.235 C -456.107 -111.137 -443.205 -118.049 -444.588 -117.588 C -438.597 -106.529 -436.754 -101 -434.911 -95.01 C -433.989 -92.245 -435.833 -82.568 -447.813 -79.804 Z" style="fill: rgb(255, 255, 255); stroke: rgb(0, 74, 147);"/>
    <path class="st12" d="M -461.637 -72.892 C -461.637 -72.892 -463.48 -78.882 -463.019 -85.333 C -462.558 -91.784 -456.568 -98.235 -453.342 -99.157 C -448.735 -89.941 -448.274 -86.255 -449.195 -81.186 C -450.578 -74.735 -463.48 -72.892 -461.637 -72.892 Z" style="fill: rgb(255, 255, 255); stroke: rgb(0, 74, 147);"/>
    <path class="st12" d="M -425.234 -118.049 C -425.234 -118.049 -432.607 -132.794 -433.529 -138.324 C -435.833 -148 -428.921 -158.598 -424.313 -160.441 C -417.401 -146.618 -417.401 -144.775 -415.097 -137.402 C -414.176 -134.637 -416.019 -119.892 -425.234 -118.049 Z" style="fill: rgb(255, 255, 255); stroke: rgb(0, 74, 147);"/>
    <path class="st12" d="M -416.48 -141.549 C -416.48 -141.549 -424.313 -158.598 -425.234 -164.128 C -427.078 -173.804 -421.087 -184.402 -414.176 -185.324 C -407.725 -171.5 -407.725 -169.196 -405.421 -161.824 C -404.499 -158.598 -403.577 -145.235 -416.48 -141.549 Z" style="fill: rgb(255, 255, 255); stroke: rgb(0, 74, 147);"/>
    <path class="st12" d="M -405.421 -161.824 C -405.421 -161.824 -412.793 -178.873 -412.793 -184.402 C -413.254 -194.54 -405.881 -199.608 -400.813 -200.53 C -396.205 -185.785 -396.666 -186.706 -394.823 -178.873 C -393.901 -175.647 -392.058 -163.667 -405.421 -161.824 Z" style="fill: rgb(255, 255, 255); stroke: rgb(0, 74, 147);"/>
    <path class="st12" d="M -381.92 -190.393 C -381.92 -190.393 -385.146 -206.059 -385.607 -210.206 C -386.528 -215.736 -378.234 -219.422 -372.244 -216.197 C -371.322 -209.285 -370.401 -206.981 -369.94 -202.373 C -369.479 -200.53 -374.087 -191.775 -381.92 -190.393 Z" style="fill: rgb(255, 255, 255); stroke: rgb(0, 74, 147);"/>
    <path class="st12" d="M -394.362 -180.716 C -394.362 -180.716 -399.891 -195 -400.352 -199.608 C -400.813 -207.442 -392.519 -212.51 -387.911 -212.971 C -384.224 -198.687 -384.224 -199.147 -383.303 -193.618 C -382.381 -189.471 -382.381 -182.098 -394.362 -180.716 Z" style="fill: rgb(255, 255, 255); stroke: rgb(0, 74, 147);"/>
    <path class="st0" d="M -482.833 131.237 C -483.294 139.07 -486.98 152.433 -490.666 159.345 C -496.196 169.482 -498.96 172.708 -504.49 178.698 C -510.48 184.688 -516.01 181.463 -521.539 176.394 C -526.147 172.247 -531.676 160.267 -534.902 150.129 C -538.588 139.531 -537.667 139.07 -539.049 134.923 C -541.814 124.325 -544.118 110.041 -542.274 104.051 C -539.049 114.649 -527.99 150.129 -514.166 158.423 C -504.49 164.875 -487.902 151.512 -482.833 127.551 L -482.833 131.237 Z" style="fill: rgb(255, 255, 255);"/>
    <path class="st2" d="M -281.93 115.109 L -279.165 92.531 L -270.41 81.933 C -270.41 81.933 -255.204 67.188 -257.969 64.423 C -264.88 57.972 -285.616 77.325 -285.616 77.325" style="fill: rgb(0, 74, 147);"/>
    <path class="st4" d="M -386.068 -83.951 C -377.773 -77.5 -348.744 -71.049 -336.303 -70.588 C -320.636 -69.666 -315.106 -67.823 -310.959 -65.519 C -307.273 -63.676 -304.969 -61.372 -304.047 -59.529" style="fill: none; stroke: rgb(0, 74, 147); stroke-width: 0.9155px;"/>
    <path class="st13" d="M -505.872 -178.412 C -505.872 -178.412 -505.411 -176.108 -504.951 -171.039 C -504.49 -168.736 -504.029 -166.432 -504.49 -163.206 C -506.794 -160.441 -508.176 -155.373 -508.176 -150.765 C -508.176 -149.382 -508.176 -146.157 -505.872 -145.696 C -501.725 -144.775 -499.882 -146.618 -497.117 -146.157 C -494.353 -146.157 -493.431 -144.775 -490.666 -144.314 C -486.98 -143.392 -485.137 -145.696 -484.676 -148.922 C -484.215 -153.53 -486.519 -160.902 -487.902 -162.745 C -487.902 -169.196 -485.598 -176.569 -485.137 -177.951 C -485.598 -178.873 -487.441 -178.873 -490.205 -177.03 C -492.509 -175.647 -495.274 -169.657 -496.196 -169.196 C -496.656 -169.657 -499.421 -175.647 -502.186 -177.49 C -503.108 -178.412 -503.568 -178.873 -505.872 -178.412 Z" style="fill: none; stroke: rgb(0, 74, 147); stroke-width: 0.699px;"/>
  </g>
</svg>