<?xml version="1.0" encoding="utf-8"?>
<svg viewBox="90.1135 0 319.7729 500.0001" width="319.7729" height="500.0001" xmlns="http://www.w3.org/2000/svg">
  <g transform="matrix(2.2770979404449463, 0, 0, 2.284044027328491, 90.11353302001953, -0.0000020000002152187335)">
    <path class="st0" d="M133.99,58.92l3.86-9.8,2.58-6.53-6.53-2.58h0l-6.53-2.58h0l-6.53-2.57-2.58,6.53L105.03,74.96H96.54V27.56L79.69,0,63.19,27.57v47.4h-8.7v45.64H45.64L31.6,108.32,47.4,96.03V87.26H19.31V78.48l14.04-7.76V64.97L19.31,72.7V55.66H14.04v9.33L3.51,59.17V64.9l10.53,5.87V87.26H0v5.26H7.02v70.22l13.97,10.53v45.64h7.02v-50.9L14.04,157.47V94.27H36.86v1.76l-15.8,12.28,21.06,19.31H54.49V168H35.1v50.91h6.95V175.03H54.49v43.88h7.02V204.67l36.78-93.42V218.91h7.02V175.03h14.04v43.88h7.02V168H105.31V127.62h15.8l12.29,14.04V218.9h7.02V138.15l-15.8-17.56H105.31V93.41l19.47-49.45,6.53,2.58-3.86,9.8ZM82.5,15.28l7.02,14.04V39.85H82.5ZM70.21,29.33l7.1-14.04V39.87h-7.1Zm0,27.21h6.5V65.8h4.47V52.14H70.21V47.18H89.52v4.96H84.25v4.4h5.27V74.97H70.21ZM98.3,92.02l-36.78,93.3V153.6L83.18,99.4l-6.52-2.61L61.52,134.61V81.98H98.3Z" style="fill: rgb(51, 51, 51);"/>
  </g>
</svg>