<?xml version="1.0" encoding="utf-8"?>
<svg viewBox="0.0001 49.1171 500.0001 401.7659" width="500.0001" height="401.7659" xmlns="http://www.w3.org/2000/svg">
  <g id="logo-dark_svg__g36" transform="matrix(1, 0, 0, 1, 355.9790039062498, 159.89997863769526)">
    <g id="logo-dark_svg__g34" transform="matrix(5.518763, 0, 0, 5.518763, -882.468933, -208.465012)">
      <path class="logo-dark_svg__st0" d="M112.4 42.6c-7.5 0-13.7 6.1-13.7 13.7S104.8 70 112.4 70c7.5 0 13.7-6.1 13.7-13.7s-6.2-13.7-13.7-13.7zm0 22.5c-4.8 0-8.8-3.9-8.8-8.8s3.9-8.8 8.8-8.8c4.8 0 8.8 3.9 8.8 8.8s-4 8.8-8.8 8.8z" id="logo-dark_svg__path28" fill="#008675"/>
      <path class="logo-dark_svg__st0" d="M168.8 42.6c-7.5 0-13.7 6.1-13.7 13.7S161.3 70 168.8 70c7.5 0 13.7-6.1 13.7-13.7s-6.1-13.7-13.7-13.7zm0 22.5c-4.8 0-8.8-3.9-8.8-8.8s3.9-8.8 8.8-8.8 8.8 3.9 8.8 8.8-3.9 8.8-8.8 8.8z" id="logo-dark_svg__path30" fill="#008675"/>
      <path class="logo-dark_svg__st0" d="M143.1 42.3V17.7h-4.9v24.6c-10.8-14-28.1-24.1-42.8-24.1v4.9c14.7 0 33.2 12.1 42.4 27.3-.4.7-.7 1.4-1 2.1-6.4 13.3-5.3 26.4 3 36.9l.9 1.1.6-.7.3-.3c8.3-10.5 9.4-23.6 3-36.9-.3-.7-.7-1.4-1-2.1 9.2-15.2 27.7-27.3 42.4-27.3v-4.9c-14.8-.1-32.1 10.1-42.9 24zm-2.5 39.6c-5-9.5-3.1-19 0-26 3.1 7 5 16.5 0 26z" id="logo-dark_svg__path32" fill="#008675"/>
    </g>
  </g>
</svg>