<?xml version="1.0" encoding="utf-8"?>
<svg viewBox="0.0014 0.0002 499.9968 500" width="499.9968" height="500" xmlns="http://www.w3.org/2000/svg">
  <defs>
    <clipPath id="clip-path" transform="translate(0 0)">
      <rect class="cls-1" width="217.56" height="38.79" style="fill: none;"/>
    </clipPath>
  </defs>
  <g id="Layer_2" data-name="Layer 2" transform="matrix(12.966804504394531, 0, 0, 12.966804504394531, 0.1270180046559517, 0.0003220000071451068)">
    <g id="Layer_1-2" data-name="Layer 1">
      <g class="cls-2" style="clip-path: url('#clip-path');">
        <path class="cls-3" d="M38.55,19.39A19.28,19.28,0,1,1,19.28,0,19.34,19.34,0,0,1,38.55,19.39" fill="#6CC0D7" transform="translate(0 0)"/>
        <path class="cls-4" d="M26.68,13.8a9.52,9.52,0,0,1,.11,11.27A9.4,9.4,0,0,1,16.1,28.46m-4.51-3.35a9.53,9.53,0,0,1,0-11.16,9.38,9.38,0,0,1,10.57-3.43m7.48-.78a14.41,14.41,0,0,1,1.1,18.19,14.2,14.2,0,0,1-17.51,4.6M8.66,29.19a14.41,14.41,0,0,1-1-18.1A14.21,14.21,0,0,1,25.05,6.44" stroke="#FFFFFF" fill="none" stroke-width="2.23px" style="stroke-linecap: round;" transform="translate(0 0)"/>
        <path class="cls-7" d="M18.88,25.28A3.57,3.57,0,0,1,16,24a.81.81,0,0,1-.13-.43.55.55,0,0,1,.55-.55c.57,0,.79,1.09,2.46,1.09a2,2,0,0,0,2-2c0-3.23-5-1.75-5-5.52a2.88,2.88,0,0,1,3.06-2.79,3.7,3.7,0,0,1,2.67,1,.57.57,0,0,1,.17.42.56.56,0,0,1-.55.57c-.54,0-.89-.85-2.29-.85a1.66,1.66,0,0,0-1.84,1.63c0,2.68,5,1.35,5,5.52a3.25,3.25,0,0,1-3.21,3.13" fill="#FFFFFF" transform="translate(0 0)"/>
        <path class="cls-8" d="M18.88,25.28A3.57,3.57,0,0,1,16,24a.81.81,0,0,1-.13-.43.55.55,0,0,1,.55-.55c.57,0,.79,1.09,2.46,1.09a2,2,0,0,0,2-2c0-3.23-5-1.75-5-5.52a2.88,2.88,0,0,1,3.06-2.79,3.7,3.7,0,0,1,2.67,1,.57.57,0,0,1,.17.42.56.56,0,0,1-.55.57c-.54,0-.89-.85-2.29-.85a1.66,1.66,0,0,0-1.84,1.63c0,2.68,5,1.35,5,5.52A3.25,3.25,0,0,1,18.88,25.28Z" stroke="#FFFFFF" fill="none" stroke-width="0.67px" transform="translate(0 0)"/>
      </g>
    </g>
  </g>
</svg>