<?xml version="1.0" encoding="utf-8"?>
<svg viewBox="0 0.4645 500 499.071" width="500" height="499.071" xmlns="http://www.w3.org/2000/svg">
  <path d="M 421.722 102.818 L 324.933 158.694 C 324.69 158.84 324.544 159.093 324.544 159.375 C 324.544 159.657 324.69 159.91 324.933 160.055 L 382.375 193.22 C 382.618 193.356 382.773 193.618 382.773 193.9 L 382.773 261.133 C 382.773 261.415 382.618 261.677 382.375 261.823 L 284.798 318.147 C 284.554 318.283 284.253 318.283 284.01 318.147 L 206.919 273.636 C 206.676 273.49 206.364 273.49 206.121 273.636 C 205.878 273.782 205.723 274.044 205.723 274.326 L 205.723 317.942 C 205.723 318.224 205.567 318.487 205.324 318.633 L 127.436 363.591 C 127.193 363.736 127.037 363.999 127.037 364.291 L 127.037 408.782 C 127.037 409.064 126.881 409.326 126.638 409.472 L 48.789 454.439 C 48.526 454.595 48.371 454.867 48.371 455.169 L 48.371 498.746 C 48.371 499.028 48.526 499.281 48.759 499.426 C 48.993 499.572 49.304 499.572 49.547 499.426 L 421.722 284.555 C 421.965 284.419 422.111 284.156 422.111 283.874 L 422.111 193.929 C 422.111 193.638 422.267 193.375 422.51 193.229 L 499.601 148.719 C 499.844 148.583 500 148.32 500 148.038 C 500 147.756 499.844 147.494 499.601 147.358 L 422.51 102.837 C 422.267 102.701 421.965 102.701 421.722 102.837 M 368.014 252.616 L 368.014 202.417 C 368.014 202.135 367.868 201.873 367.625 201.727 L 127.474 63.062 C 127.222 62.916 126.92 62.916 126.667 63.062 L 0.389 135.982 C 0.146 136.128 0 136.381 0 136.663 C 0 136.945 0.146 137.197 0.389 137.343 L 284.02 301.112 C 284.263 301.249 284.564 301.249 284.807 301.112 L 367.616 253.306 C 367.859 253.17 368.004 252.907 368.004 252.625 M 127.445 46.028 L 308.599 150.624 C 308.852 150.77 309.153 150.77 309.406 150.624 L 347.159 128.826 C 347.402 128.68 347.558 128.418 347.558 128.136 C 347.558 127.854 347.402 127.591 347.159 127.446 L 127.426 0.574 C 127.173 0.428 126.872 0.428 126.619 0.574 L 10.189 67.816 C 9.946 67.962 9.791 68.225 9.791 68.506 C 9.791 68.788 9.946 69.051 10.189 69.197 L 47.923 90.985 C 48.176 91.131 48.477 91.131 48.73 90.985 L 126.619 46.018 C 126.862 45.882 127.163 45.882 127.406 46.018" style="fill: rgb(239, 45, 55);" transform="matrix(1, 0, 0, 1, 5.684341886080802e-14, 5.684341886080802e-14)"/>
</svg>