<?xml version="1.0" encoding="utf-8"?>
<!-- Generator: Adobe Illustrator 22.1.0, SVG Export Plug-In . SVG Version: 6.00 Build 0)  -->
<!DOCTYPE svg PUBLIC "-//W3C//DTD SVG 1.1//EN" "http://www.w3.org/Graphics/SVG/1.1/DTD/svg11.dtd">
<svg version="1.1" xmlns="http://www.w3.org/2000/svg" xmlns:xlink="http://www.w3.org/1999/xlink" x="0px" y="0px"
	 viewBox="0 0 570.3 70.4" style="enable-background:new 0 0 570.3 70.4;" xml:space="preserve">
<style type="text/css">
	.st0{display:none;}
	.st1{display:inline;fill:none;stroke:#009FE3;stroke-width:0.1962;stroke-miterlimit:10;}
	.st2{display:inline;fill:none;stroke:#009FE3;stroke-width:0.2123;stroke-miterlimit:10;}
</style>
<g id="Logo_farger_neg_CMYK_copy_3">
	<g>
		<g>
			<g>
				<g>
					<path d="M201.9,5.9l-33.4,57.9h66.9L201.9,5.9z M201.9,7.9L201.9,7.9l0,54.9h-31.7L201.9,7.9z"/>
					<path d="M291.7,34.6V6.4h-0.5c-7.7,0-14.9,3-20.3,8.4c-5.4,5.4-8.4,12.6-8.4,20.3c0,7.7,3,14.9,8.4,20.3s12.6,8.4,20.3,8.4h28
						l0.7,0V34.6H291.7z M291.2,62.9c-7.4,0-14.4-2.9-19.6-8.1s-8.1-12.2-8.1-19.6l27.2,0l0.5,0l0.5,0.5L319,62.9v0H291.2z"/>
				</g>
				<rect x="367.4" y="0.2" width="1" height="70.1"/>
				<g>
					<path d="M401,19.7c0,1.4,0.1,2.8,0.2,3.9h-2.6l-0.2-2h-0.1c-0.9,1.3-2.6,2.4-4.9,2.4c-3.3,0-4.9-2.3-4.9-4.6c0-3.9,3.5-6,9.7-6
						V13c0-1.3-0.4-3.7-3.7-3.7c-1.5,0-3.1,0.4-4.2,1.2l-0.7-2c1.3-0.8,3.3-1.4,5.3-1.4c4.9,0,6.1,3.4,6.1,6.5V19.7z M398.2,15.4
						c-3.2-0.1-6.8,0.5-6.8,3.6c0,1.9,1.3,2.8,2.7,2.8c2.1,0,3.5-1.3,4-2.7c0.1-0.3,0.1-0.7,0.1-0.9V15.4z"/>
					<path d="M407,12.5c0-1.9,0-3.5-0.1-5h2.6l0.1,3.2h0.1c0.7-2.2,2.5-3.5,4.5-3.5c0.3,0,0.5,0,0.8,0.1V10c-0.3-0.1-0.6-0.1-1-0.1
						c-2.1,0-3.5,1.5-3.9,3.7c-0.1,0.4-0.1,0.9-0.1,1.4v8.6H407V12.5z"/>
					<path d="M422.3,14.9L422.3,14.9c0.5-0.6,1-1.3,1.5-1.8l4.8-5.6h3.5l-6.2,6.6l7.1,9.5h-3.6l-5.5-7.7l-1.5,1.7v6h-2.9V0h2.9V14.9
						z"/>
					<path d="M440.1,3c0,1-0.7,1.8-1.9,1.8c-1.1,0-1.8-0.8-1.8-1.8s0.7-1.8,1.8-1.8C439.4,1.2,440.1,2,440.1,3z M436.9,23.6V7.5h2.9
						v16.1H436.9z"/>
					<path d="M449.5,3.7v3.9h4.2v2.2h-4.2v8.7c0,2,0.6,3.1,2.2,3.1c0.8,0,1.3-0.1,1.7-0.2l0.1,2.2c-0.6,0.2-1.5,0.4-2.6,0.4
						c-1.4,0-2.5-0.5-3.2-1.2c-0.8-0.9-1.1-2.3-1.1-4.2V9.7h-2.5V7.5h2.5v-3L449.5,3.7z"/>
					<path d="M459.7,16.1c0.1,4,2.6,5.6,5.5,5.6c2.1,0,3.4-0.4,4.5-0.8l0.5,2.1c-1,0.5-2.8,1-5.4,1c-5,0-7.9-3.3-7.9-8.1
						c0-4.9,2.9-8.6,7.5-8.6c5.3,0,6.6,4.6,6.6,7.5c0,0.6,0,1-0.1,1.4H459.7z M468.3,14c0-1.8-0.8-4.7-4.1-4.7c-3,0-4.3,2.7-4.5,4.7
						H468.3z"/>
					<path d="M479,14.9L479,14.9c0.5-0.6,1-1.3,1.5-1.8l4.8-5.6h3.5l-6.2,6.6l7.1,9.5H486l-5.5-7.7l-1.5,1.7v6h-2.9V0h2.9V14.9z"/>
					<path d="M496.5,3.7v3.9h4.2v2.2h-4.2v8.7c0,2,0.6,3.1,2.2,3.1c0.8,0,1.3-0.1,1.7-0.2l0.1,2.2c-0.6,0.2-1.5,0.4-2.6,0.4
						c-1.4,0-2.5-0.5-3.2-1.2c-0.8-0.9-1.1-2.3-1.1-4.2V9.7h-2.5V7.5h2.5v-3L496.5,3.7z"/>
					<path d="M506.8,16.1c0.1,4,2.6,5.6,5.5,5.6c2.1,0,3.4-0.4,4.5-0.8l0.5,2.1c-1,0.5-2.8,1-5.4,1c-5,0-7.9-3.3-7.9-8.1
						c0-4.9,2.9-8.6,7.5-8.6c5.3,0,6.6,4.6,6.6,7.5c0,0.6,0,1-0.1,1.4H506.8z M515.4,14c0-1.8-0.8-4.7-4.1-4.7c-3,0-4.3,2.7-4.5,4.7
						H515.4z"/>
					<path d="M523.1,11.9c0-1.7,0-3-0.1-4.4h2.6l0.2,2.7h0.1c0.8-1.5,2.7-3,5.3-3c2.2,0,5.7,1.3,5.7,6.8v9.6h-2.9v-9.3
						c0-2.6-1-4.8-3.7-4.8c-1.9,0-3.4,1.4-3.9,3c-0.1,0.4-0.2,0.9-0.2,1.4v9.7h-2.9V11.9z"/>
					<path d="M544.5,16.1c0.1,4,2.6,5.6,5.5,5.6c2.1,0,3.4-0.4,4.5-0.8l0.5,2.1c-1,0.5-2.8,1-5.4,1c-5,0-7.9-3.3-7.9-8.1
						c0-4.9,2.9-8.6,7.5-8.6c5.3,0,6.6,4.6,6.6,7.5c0,0.6,0,1-0.1,1.4H544.5z M553.1,14c0-1.8-0.8-4.7-4.1-4.7c-3,0-4.3,2.7-4.5,4.7
						H553.1z"/>
					<path d="M560.5,20.6c0.9,0.5,2.4,1.1,3.9,1.1c2.1,0,3.1-1,3.1-2.4c0-1.4-0.8-2.1-3-2.9c-2.9-1.1-4.3-2.6-4.3-4.6
						c0-2.6,2.1-4.7,5.6-4.7c1.6,0,3.1,0.4,3.9,1l-0.7,2.1c-0.6-0.4-1.8-1-3.3-1c-1.7,0-2.7,1-2.7,2.2c0,1.3,0.9,1.9,3,2.8
						c2.8,1,4.2,2.4,4.2,4.8c0,2.9-2.2,4.9-6,4.9c-1.8,0-3.4-0.5-4.5-1.1L560.5,20.6z"/>
					<path d="M390,63.5V49.6h-2.2v-2.2h2.2v-0.8c0-2.3,0.5-4.3,1.9-5.6c1.1-1.1,2.6-1.5,3.9-1.5c1.1,0,1.9,0.2,2.5,0.5l-0.4,2.3
						c-0.4-0.2-1-0.4-1.9-0.4c-2.5,0-3.1,2.2-3.1,4.7v0.9h3.9v2.2h-3.9v13.9H390z"/>
					<path d="M412,59.6c0,1.4,0.1,2.8,0.2,3.9h-2.6l-0.2-2h-0.1c-0.9,1.3-2.6,2.4-4.9,2.4c-3.3,0-4.9-2.3-4.9-4.6c0-3.9,3.5-6,9.7-6
						v-0.3c0-1.3-0.4-3.7-3.7-3.7c-1.5,0-3.1,0.4-4.2,1.2l-0.7-2c1.3-0.8,3.3-1.4,5.3-1.4c4.9,0,6.1,3.4,6.1,6.5V59.6z M409.2,55.3
						c-3.2-0.1-6.8,0.5-6.8,3.6c0,1.9,1.3,2.8,2.7,2.8c2.1,0,3.5-1.3,4-2.7c0.1-0.3,0.1-0.7,0.1-0.9V55.3z"/>
					<path d="M431.8,61.1c0,3.7-0.8,6-2.3,7.4c-1.6,1.4-3.9,1.9-5.9,1.9c-1.9,0-4.1-0.5-5.4-1.3l0.7-2.3c1.1,0.7,2.7,1.3,4.7,1.3
						c3,0,5.2-1.6,5.2-5.7v-1.8h-0.1c-0.9,1.5-2.6,2.7-5.1,2.7c-4,0-6.8-3.4-6.8-7.8c0-5.5,3.6-8.5,7.3-8.5c2.8,0,4.3,1.4,5,2.8h0.1
						l0.1-2.4h2.6c-0.1,1.1-0.1,2.5-0.1,4.4V61.1z M428.9,53.8c0-0.5,0-0.9-0.2-1.3c-0.5-1.7-1.9-3.1-4.1-3.1
						c-2.8,0-4.8,2.4-4.8,6.1c0,3.2,1.6,5.8,4.8,5.8c1.8,0,3.5-1.1,4.1-3c0.2-0.5,0.2-1.1,0.2-1.6V53.8z"/>
					<path d="M438.4,63.5V49.6h-2.2v-2.2h2.2v-0.8c0-2.3,0.5-4.3,1.9-5.6c1.1-1.1,2.6-1.5,3.9-1.5c1.1,0,1.9,0.2,2.5,0.5l-0.4,2.3
						c-0.4-0.2-1-0.4-1.9-0.4c-2.5,0-3.1,2.2-3.1,4.7v0.9h3.9v2.2h-3.9v13.9H438.4z"/>
					<path d="M463.3,55.3c0,5.9-4.2,8.5-8,8.5c-4.3,0-7.7-3.2-7.7-8.3c0-5.4,3.6-8.5,8-8.5C460.2,47.1,463.3,50.4,463.3,55.3z
						 M450.6,55.5c0,3.5,2,6.2,4.9,6.2c2.8,0,4.9-2.6,4.9-6.2c0-2.7-1.4-6.2-4.8-6.2C452.1,49.3,450.6,52.5,450.6,55.5z"/>
					<path d="M468.3,52.4c0-1.9,0-3.5-0.1-5h2.6l0.1,3.2h0.1c0.7-2.2,2.5-3.5,4.5-3.5c0.3,0,0.5,0,0.8,0.1v2.8
						c-0.3-0.1-0.6-0.1-1-0.1c-2.1,0-3.5,1.5-3.9,3.7c-0.1,0.4-0.1,0.9-0.1,1.4v8.6h-2.9V52.4z"/>
					<path d="M480.6,39.9h2.9V50h0.1c1-1.8,2.9-2.9,5.5-2.9c4,0,6.8,3.3,6.8,8.2c0,5.8-3.7,8.6-7.2,8.6c-2.3,0-4.2-0.9-5.4-3h-0.1
						l-0.2,2.6h-2.5c0.1-1.1,0.1-2.7,0.1-4.2V39.9z M483.5,57c0,0.4,0,0.7,0.1,1.1c0.5,2,2.3,3.4,4.4,3.4c3.1,0,4.9-2.5,4.9-6.2
						c0-3.2-1.7-6-4.8-6c-2,0-3.8,1.4-4.4,3.6c-0.1,0.4-0.2,0.8-0.2,1.2V57z"/>
					<path d="M514.4,59.1c0,1.7,0,3.2,0.1,4.4h-2.6l-0.2-2.6h-0.1c-0.7,1.3-2.5,3-5.3,3c-2.5,0-5.6-1.4-5.6-7v-9.4h2.9v8.9
						c0,3.1,1,5.2,3.6,5.2c2,0,3.3-1.4,3.9-2.7c0.2-0.4,0.3-0.9,0.3-1.5v-9.8h2.9V59.1z"/>
					<path d="M520.5,51.8c0-1.7,0-3-0.1-4.4h2.6l0.2,2.7h0.1c0.8-1.5,2.7-3,5.3-3c2.2,0,5.7,1.3,5.7,6.8v9.6h-2.9v-9.3
						c0-2.6-1-4.8-3.7-4.8c-1.9,0-3.4,1.4-3.9,3c-0.1,0.4-0.2,0.9-0.2,1.4v9.7h-2.9V51.8z"/>
					<path d="M554.2,39.9v19.4c0,1.4,0.1,3.1,0.1,4.2h-2.6l-0.1-2.8h-0.1c-0.9,1.8-2.8,3.2-5.4,3.2c-3.9,0-6.9-3.3-6.9-8.2
						c0-5.4,3.3-8.6,7.2-8.6c2.5,0,4.1,1.2,4.9,2.4h0.1v-9.6H554.2z M551.3,54c0-0.4,0-0.9-0.1-1.2c-0.4-1.8-2-3.4-4.2-3.4
						c-3,0-4.8,2.7-4.8,6.2c0,3.3,1.6,6,4.8,6c2,0,3.8-1.3,4.3-3.5c0.1-0.4,0.1-0.8,0.1-1.3V54z"/>
				</g>
			</g>
			<path d="M33.4,5.9L0,63.8h66.9L33.4,5.9z M33.4,7.9L33.4,7.9l0,54.9H1.7L33.4,7.9z"/>
		</g>
		<path d="M153.6,26.2V6.4l-57.5,0l0,57.5H116V45l18.8,0l0-0.7V26.2H153.6z M115,44l0,18.8H97.1V7.4h0L133.8,44v0L115,44z"/>
	</g>
</g>
<g id="Minimumsavstand_rundt_logo" class="st0">
	<rect x="5.2" y="6.6" class="st1" width="56.5" height="56.5"/>
	<rect x="5.2" y="-49.9" class="st1" width="56.5" height="56.5"/>
	<rect x="5.2" y="63.1" class="st1" width="56.5" height="56.5"/>
	<rect x="61.7" y="6.6" class="st1" width="56.5" height="56.5"/>
	<rect x="118.2" y="6.6" class="st1" width="56.5" height="56.5"/>
	<rect x="174.7" y="6.6" class="st1" width="56.5" height="56.5"/>
	<rect x="231.2" y="6.6" class="st1" width="56.5" height="56.5"/>
	<rect x="287.7" y="6.6" class="st1" width="56.5" height="56.5"/>
	<rect x="344.2" y="6.6" class="st1" width="56.5" height="56.5"/>
	<rect x="400.7" y="6.6" class="st1" width="56.5" height="56.5"/>
	<rect x="457.2" y="6.6" class="st1" width="56.5" height="56.5"/>
	<rect x="513.7" y="6.6" class="st1" width="56.5" height="56.5"/>
	<rect x="570.2" y="6.6" class="st1" width="56.5" height="56.5"/>
	<rect x="-51.3" y="6.6" class="st1" width="56.5" height="56.5"/>
	<rect x="-51.3" y="-49.8" class="st2" width="678" height="169.5"/>
</g>
</svg>
