<svg xmlns="http://www.w3.org/2000/svg" xmlns:xlink="http://www.w3.org/1999/xlink" version="1.1" x="0px" y="0px" style="enable-background:new 0 0 373.9 88.7;" xml:space="preserve" viewBox="26.5 24 322 40.6">
<style type="text/css">
	.st0{fill:#262682;}
	.st1{fill:#FFB26D;}
</style>
<g id="Layer_1">
</g>
<g id="Layer_2">
	<g>
		<g>
			<path class="st0" d="M280.3,59l2-0.5V41.4l-1.8-1.1v-0.4l5.2-1.6h0.1l0.1,2.8h0c0.7-1,2.2-2.7,4.7-2.7c2.8,0,5.7,2,5.7,6.7     c0,5-4.5,8.4-8.6,8.4c-0.6,0-1.2-0.1-1.7-0.1v5.2l3.1,0.6v0.8h-8.9V59z M286.1,41.5v9.5c0.5,0.6,1.4,1.2,2.6,1.2     c2.1,0,3.8-2,3.8-5.8c0-3.7-1.8-6-4.1-6C287.6,40.5,286.8,40.9,286.1,41.5z"/>
			<path class="st0" d="M297.6,52.2l1.9-0.5V34.1l-1.8-1v-0.5l5.5-1.8v20.9l2,0.5V53h-7.6V52.2z"/>
			<path class="st0" d="M317,51c-0.9,1-2.7,2.5-4.9,2.5c-2.5,0-4.2-1.5-4.2-4.7v-8.1l-1.8-0.8v-0.6l5.6-1v9.7c0,2,0.9,3,2.7,3     c1.2,0,2.1-0.5,2.7-1v-9.5l-2-0.7v-0.6l5.8-1v12.9l2,0.6v0.7l-5.4,0.8L317,51z"/>
			<path class="st0" d="M324.6,52.5l-0.2-4.6h0.7l1.7,3.6c0.4,0.4,1.2,0.9,2.1,0.9c1.7,0,2.7-1.1,2.7-2.4c0-1.1-0.6-1.9-2.1-2.4     l-2-0.7c-2-0.7-3-2.1-3-4.1c0-2.7,2.5-4.6,6.1-4.6c1.4,0,2.8,0.4,3.9,0.9l0,4.1h-0.7l-1.5-3.2c-0.5-0.4-1.2-0.7-2-0.7     c-1.4,0-2.3,1-2.3,2.2c0,1.3,0.8,1.8,2.2,2.4l1.6,0.6c2.4,1,3.5,2,3.5,4c0,3-3,5.1-6.4,5.1C327.2,53.5,325.8,53,324.6,52.5z"/>
			<path class="st0" d="M337.7,52.5l-0.2-4.6h0.7l1.7,3.6c0.4,0.4,1.2,0.9,2.1,0.9c1.7,0,2.7-1.1,2.7-2.4c0-1.1-0.6-1.9-2.1-2.4     l-2-0.7c-2-0.7-3-2.1-3-4.1c0-2.7,2.5-4.6,6.1-4.6c1.4,0,2.8,0.4,3.9,0.9l0,4.1H347l-1.5-3.2c-0.5-0.4-1.2-0.7-2-0.7     c-1.4,0-2.3,1-2.3,2.2c0,1.3,0.8,1.8,2.2,2.4l1.6,0.6c2.4,1,3.5,2,3.5,4c0,3-3,5.1-6.4,5.1C340.3,53.5,338.9,53,337.7,52.5z"/>
		</g>
		<rect x="66.3" y="24" class="st1" width="1.7" height="40.6"/>
		<path class="st0" d="M85.9,53.5c2.1,0,3.2-1.3,4.1-2.5h0.1c0.1,1.6,0.9,2.4,2.5,2.4c1.5,0,3.5-1.1,3.5-1.1v-0.6h-1.3    c-0.8,0-1-0.2-1-1v-7.9c0-3.2-1.6-4.5-4.7-4.5c-3.6,0-6.6,2.1-6.6,3.8c0,1,0.7,1.5,1.7,1.5c0.7,0,1.2-0.1,1.6-0.3l0.1-3.3    c0.3-0.2,0.8-0.4,1.5-0.4c1.6,0,2.5,1.3,2.6,3.3v2l-2.9,0.7c-3.3,0.8-5,1.9-5,4.4C82.1,52.1,83.9,53.5,85.9,53.5z M87.9,51.2    c-1.4,0-2.1-1-2.1-2.3c0-1.1,0.6-2.1,2.3-2.6l2-0.7v4.4C89.6,50.7,88.9,51.2,87.9,51.2z M98.9,51.7l-1.8,0.5V53h7.3v-0.8l-1.7-0.5    V30.7l-5.5,1.8V33l1.8,1V51.7z M110.6,53.4c1.3,0,2.3-0.7,2.3-0.7l-6.9-8.8l4.4-3.8l2.1-0.7v-0.7h-6.4v0.8l2.2,0.9l-5.5,5.2    l4.4,6.3C108.1,52.8,109.1,53.4,110.6,53.4z M118.1,53.5c2.1,0,3.2-1.3,4.1-2.5h0.1c0.1,1.6,0.9,2.4,2.5,2.4    c1.5,0,3.5-1.1,3.5-1.1v-0.6H127c-0.8,0-1-0.2-1-1v-7.9c0-3.2-1.6-4.5-4.7-4.5c-3.6,0-6.6,2.1-6.6,3.8c0,1,0.7,1.5,1.7,1.5    c0.7,0,1.2-0.1,1.6-0.3l0.1-3.3c0.3-0.2,0.8-0.4,1.5-0.4c1.6,0,2.5,1.3,2.6,3.3v2l-2.9,0.7c-3.3,0.8-5,1.9-5,4.4    C114.3,52.1,116.1,53.5,118.1,53.5z M120.1,51.2c-1.4,0-2.1-1-2.1-2.3c0-1.1,0.6-2.1,2.3-2.6l2-0.7v4.4    C121.8,50.7,121,51.2,120.1,51.2z M137.4,32.7l2.3,1.1v4.8c-0.6-0.1-1.3-0.3-1.8-0.3c-4.3,0-8.5,3.3-8.5,8.2c0,3.8,2.3,7,6.1,7    c1.9,0,3.4-1.1,4.3-2.1l0.3,2l5.2-0.9v-0.7l-1.9-0.5V30.7l-6.1,1.5V32.7z M137.6,51.4c-2.8,0-4.4-3.2-4.4-6.4c0-4,1.7-5.5,3.6-5.5    c1.6,0,2.4,0.9,2.9,1.7v9.5C139.1,51,138.4,51.4,137.6,51.4z M153.4,53.4c3.3,0,5.2-2.2,6.5-4l-0.5-0.4c-0.9,0.7-2.3,1.7-4.1,1.7    c-2.9,0-5.2-2.2-5.2-6.1v-0.3h9.6c-0.5-4-2.4-6.1-5.8-6.1c-3.6,0-7.2,3.5-7.2,7.9C146.8,50,149.2,53.4,153.4,53.4z M153,39.3    c1.6,0,2.4,1.6,2.7,4h-5.5C150.5,40.7,151.6,39.3,153,39.3z M179.9,53h7.3v-0.8l-1.9-0.5V43c0-3.5-1.5-4.8-4.1-4.8    c-2.4,0-4.5,2-5.2,2.8h-0.1c-0.4-2-1.7-2.8-3.8-2.8c-2.4,0-4.4,1.9-5.2,2.7h-0.1l-0.2-2.8h-0.1l-5,1.6v0.4l1.8,1.1v10.3l-1.8,0.5    V53h7.3v-0.8l-1.7-0.5v-9.9c0.6-0.5,1.6-1.2,2.8-1.2c1.8,0,2.5,1.2,2.6,2.9v8.2l-1.7,0.5V53h7.2v-0.8l-1.7-0.5v-10    c0.6-0.4,1.6-1.1,2.7-1.1c1.8,0,2.6,1.2,2.6,2.9v8.2l-1.7,0.5V53z M188.4,53h7.6v-0.8l-2-0.5V38.2l-5.6,1.5v0.5l1.8,1.2v10.3    l-1.9,0.5V53z M192.1,35.3c1.2,0,2.2-1,2.2-2.2c0-1.2-1-2.2-2.2-2.2c-1.2,0-2.2,1-2.2,2.2C189.9,34.3,190.9,35.3,192.1,35.3z     M199.3,51.7l-1.8,0.5V53h7.3v-0.8l-1.7-0.5V30.7l-5.5,1.8V33l1.8,1V51.7z M211,53.4c1.3,0,2.3-0.7,2.3-0.7l-6.9-8.8l4.4-3.8    l2.1-0.7v-0.7h-6.4v0.8l2.2,0.9l-5.5,5.2l4.4,6.3C208.5,52.8,209.4,53.4,211,53.4z M220.9,53.4c3.3,0,5.2-2.2,6.5-4l-0.5-0.4    c-0.9,0.7-2.3,1.7-4.1,1.7c-2.9,0-5.2-2.2-5.2-6.1v-0.3h9.6c-0.5-4-2.4-6.1-5.8-6.1c-3.6,0-7.2,3.5-7.2,7.9    C214.2,50,216.6,53.4,220.9,53.4z M220.5,39.3c1.6,0,2.4,1.6,2.7,4h-5.5C217.9,40.7,219,39.3,220.5,39.3z M228.8,53h8.1v-0.8    l-2.5-0.5v-8.2c0.4-1.3,1.4-2.2,1.9-2.4l1.8,1.1c1.3-0.3,2-1,2-2.2c0-1.2-1-1.9-2-1.9c-1.4,0-2.2,0.7-3.5,3.1l-0.4,0.8h-0.1    l-0.1-3.9h-0.1l-5.1,1.6v0.4l1.8,1.1v10.3l-1.8,0.5V53z M241.1,53h7.3v-0.8l-1.7-0.5v-10c0.6-0.4,1.6-1.1,2.8-1.1    c1.8,0,2.5,1.2,2.6,2.9v8.2l-1.7,0.5V53h7.3v-0.8l-1.8-0.5V43c0-3.5-1.5-4.8-4.1-4.8c-2.4,0-4.4,1.9-5.2,2.7h-0.1l-0.2-2.8h-0.1    l-5,1.6v0.4l1.8,1.1v10.3l-1.8,0.5V53z M265.8,53.4c3.3,0,5.2-2.2,6.5-4l-0.5-0.4c-0.9,0.7-2.3,1.7-4.1,1.7    c-2.9,0-5.2-2.2-5.2-6.1v-0.3h9.6c-0.5-4-2.4-6.1-5.8-6.1c-3.6,0-7.2,3.5-7.2,7.9C259.1,50,261.5,53.4,265.8,53.4z M265.3,39.3    c1.6,0,2.4,1.6,2.7,4h-5.5C262.8,40.7,263.9,39.3,265.3,39.3z"/>
		<path class="st0" d="M53,54.3c-2.5-0.2-3.1-1.4-4.3-4.5l-7.5-19.2h-5.4l1.4,3.7L31.8,48c-1.6,4-3.2,6.1-5.3,6.4v0.3h7.8v-0.3    c-3-0.3-3.5-2-1.9-6.3h10.3l1.1,2.6c0.9,2,0.8,3.4-1.5,3.6v0.4H53V54.3z M32.5,47.6l5-12.6l2.5,6.3l2.5,6.3H32.5z"/>
		<polygon class="st0" points="58.9,30.7 54.7,30.7 54.7,26.4 53,26.4 53,30.7 48.5,30.7 49.1,32.2 53,32.2 53,36.5 54.7,36.5     54.7,32.2 58.9,32.2   "/>
	</g>
</g>
<g id="Layer_3">
</g>
</svg>