<?xml version="1.0" encoding="utf-8"?>
<!-- Generator: Adobe Illustrator 25.4.1, SVG Export Plug-In . SVG Version: 6.00 Build 0)  -->
<svg version="1.1" id="Layer_1" xmlns="http://www.w3.org/2000/svg" xmlns:xlink="http://www.w3.org/1999/xlink" x="0px" y="0px"
	 viewBox="0 0 402.52 85.04" style="enable-background:new 0 0 402.52 85.04;" xml:space="preserve">
<style type="text/css">
	.st0{fill:#FFFFFF;}
</style>
<g>
	<g>
		<g>
			<g>
				<path class="st0" d="M74.44,56.94h-5.37V41.62h5.26c5.33,0,8.13,3.09,8.13,7.64C82.46,53.81,79.62,56.94,74.44,56.94z
					 M74.24,44.57h-1.38v9.41h1.38c2.71,0,4.4-1.42,4.4-4.71C78.64,46.06,76.84,44.57,74.24,44.57z"/>
				<path class="st0" d="M86.5,56.94V41.62h9.55v3.04h-5.82v2.8h4.44l0.49,3.13h-4.93v3.31h6.02v3.04H86.5z"/>
				<path class="st0" d="M109.73,56.94l-6.04-9.17v9.17h-3.53V41.62h3.69l5.64,8.57v-8.57h3.53v15.32H109.73z"/>
				<path class="st0" d="M133.58,56.94l-6.04-9.17v9.17h-3.53V41.62h3.69l5.64,8.57v-8.57h3.53v15.32H133.58z"/>
				<path class="st0" d="M148.17,57.23c-4.4,0-7.28-3.2-7.28-7.93c0-4.75,2.89-7.97,7.33-7.97c4.44,0,7.3,3.2,7.3,7.92
					S152.63,57.23,148.17,57.23z M148.19,44.31c-2.22,0-3.51,1.93-3.51,4.97c0,3.04,1.31,4.97,3.51,4.97c2.22,0,3.51-1.93,3.51-4.97
					C151.7,46.24,150.41,44.31,148.19,44.31z"/>
				<path class="st0" d="M171.59,56.45l-3.88,0.64l-3.35-5.42h-1.04v5.26h-3.78V41.62h5.35c3.71,0,5.88,1.69,5.88,4.84
					c0,2.11-1.02,3.55-2.84,4.35L171.59,56.45z M164.51,44.49h-1.22v4.46h1.18c1.62,0,2.58-0.8,2.58-2.26
					C167.04,45.26,166.15,44.49,164.51,44.49z"/>
				<path class="st0" d="M179.7,57.12c-2.06,0-3.8-0.44-5.35-1.15l0.56-3.24c1.58,0.84,3.33,1.42,4.86,1.42
					c1.09,0,1.84-0.47,1.84-1.38c0-0.87-0.44-1.26-2.6-2.09c-3.06-1.18-4.39-2.18-4.39-4.71c0-2.95,2.31-4.53,5.24-4.53
					c2,0,3.29,0.38,4.62,1.02l-0.58,3.2c-1.38-0.8-2.82-1.24-4-1.24c-1.15,0-1.71,0.49-1.71,1.2c0,0.78,0.42,1.16,2.33,1.89
					c3.33,1.22,4.66,2.38,4.66,4.82C185.18,55.65,182.74,57.12,179.7,57.12z"/>
				<path class="st0" d="M197.97,57.09l-5.15-7.28v7.13h-3.8V41.62h3.8v6.55l4.82-6.55h4.22l-5.42,7.08l5.62,7.77L197.97,57.09z"/>
				<path class="st0" d="M205.23,56.94V41.62h9.54v3.04h-5.82v2.8h4.44l0.49,3.13h-4.93v3.31h6.02v3.04H205.23z"/>
			</g>
		</g>
		<g>
			<path class="st0" d="M225.97,56.94V41.62h3.8v12.03h4.71l0.51,3.29H225.97z"/>
			<path class="st0" d="M238.52,56.94V41.62h9.55v3.04h-5.82v2.8h4.44l0.49,3.13h-4.93v3.31h6.02v3.04H238.52z"/>
			<path class="st0" d="M258.84,57.22c-4.86,0-7.55-3.2-7.55-7.92c0-4.75,2.91-7.97,7.64-7.97c1.89,0,3.46,0.44,4.68,1.13
				l-0.51,3.31c-1.15-0.73-2.51-1.31-4.09-1.31c-2.64,0-3.93,1.95-3.93,4.82c0,2.89,1.33,4.91,3.97,4.91c0.84,0,1.44-0.16,2.07-0.49
				v-2.73h-2.67l-0.44-2.82h6.42v7.46C262.83,56.65,260.95,57.22,258.84,57.22z"/>
			<path class="st0" d="M268.76,56.94V41.62h9.55v3.04h-5.82v2.8h4.44l0.49,3.13h-4.93v3.31h6.02v3.04H268.76z"/>
			<path class="st0" d="M286.19,44.79v3.11h4l0.53,3.22h-4.53v5.82h-3.77V41.62h9.17v3.18H286.19z"/>
			<path class="st0" d="M301.87,57.22c-4.4,0-7.28-3.2-7.28-7.92c0-4.75,2.89-7.97,7.33-7.97c4.44,0,7.3,3.2,7.3,7.93
				C309.22,53.98,306.33,57.22,301.87,57.22z M301.89,44.3c-2.22,0-3.51,1.93-3.51,4.97s1.31,4.97,3.51,4.97
				c2.22,0,3.51-1.93,3.51-4.97S304.11,44.3,301.89,44.3z"/>
			<path class="st0" d="M325.29,56.45l-3.88,0.64l-3.35-5.42h-1.04v5.26h-3.77V41.62h5.35c3.71,0,5.88,1.69,5.88,4.84
				c0,2.11-1.02,3.55-2.84,4.35L325.29,56.45z M318.21,44.48h-1.22v4.46h1.18c1.62,0,2.58-0.8,2.58-2.26
				C320.74,45.26,319.86,44.48,318.21,44.48z"/>
			<path class="st0" d="M328.67,56.94V41.62h9.55v3.04h-5.82v2.8h4.44l0.49,3.13h-4.93v3.31h6.02v3.04H328.67z"/>
			<path class="st0" d="M351.9,56.94l-6.04-9.17v9.17h-3.53V41.62h3.68l5.64,8.57v-8.57h3.53v15.32H351.9z"/>
			<path class="st0" d="M359.85,56.94V41.62h3.8v15.32H359.85z"/>
			<path class="st0" d="M377.88,56.94l-6.04-9.17v9.17h-3.53V41.62h3.69l5.64,8.57v-8.57h3.53v15.32H377.88z"/>
			<path class="st0" d="M392.73,57.22c-4.86,0-7.55-3.2-7.55-7.92c0-4.75,2.91-7.97,7.64-7.97c1.89,0,3.46,0.44,4.68,1.13L397,45.77
				c-1.15-0.73-2.51-1.31-4.08-1.31c-2.64,0-3.93,1.95-3.93,4.82c0,2.89,1.33,4.91,3.97,4.91c0.84,0,1.44-0.16,2.06-0.49v-2.73
				h-2.66l-0.44-2.82h6.42v7.46C396.73,56.65,394.84,57.22,392.73,57.22z"/>
		</g>
	</g>
	<path class="st0" d="M36.95,28.27c0.36-2.7,0.85-8,0.9-9.53c0.15,0.11,0.31,0.26,0.45,0.43c0.34,0.5,0.92,1.65,0.91,2.24
		c0,0.02,0.22,1.29,0.22,1.29c0.05,0.29,0.58,1.17,0.7,1.42c0.4,0.86,0.3,1.56,0.32,1.88c-0.05,0.53,0.11,1.1,0.12,1.13
		c0.06,0.15,0.07,0.27,0.23,0.27c0.22,0,0.26-0.16,0.23-0.5c-0.02-0.2-0.09-0.3,0.02-0.81c0.11-0.49,0.36-0.95,1.3-1.94
		c1.27-1.34,3.29-4.69,3.39-4.97c0.1-0.28,0.21-0.39,0.09-0.55c-0.16-0.22-0.91-0.65-0.83-1.74c0.03-0.37,0.17-0.66,0.37-0.83
		c0.24-0.21,0.65-0.25,1.13-0.21c0.75,0.07,1.15,0.12,1.32,0.17c0,0.19-0.07,0.34-0.24,0.46c-0.26,0.19-0.96,0.14-1.2,0.11
		c-0.17-0.02-0.33,0.08-0.4,0.24c-0.06,0.16,0.05,0.35,0.24,0.57c0.19,0.22,0.3,0.35,0.27,0.91c-0.02,0.41-0.97,6.71-0.97,6.71
		c-0.91,2.02-1.75,3.83-3.24,5.45c-0.53,0.58-1,1.15-1.42,1.15c-0.45,0-1.25-0.33-1.98-0.93C37.64,29.68,36.95,28.27,36.95,28.27z
		 M48.24,16.54c0-0.01-0.14,0.24-0.23,0.34c-0.28,0.28-0.82,0.26-1.23,0.25c0.32,0.24,0.42,0.72,0.34,1.36l-1.69,11.64
		c0.09-0.05,0.81-0.42,1.05-0.56l2.04-12.37C48.31,17.12,48.12,16.87,48.24,16.54z M48.32,14.66c-0.32,0.06-0.67,0.41-0.86,0.77
		c0.33,0.02,0.78,0.1,0.81,0.41c0.07-0.25,0.24-0.47,0.47-0.68c0.12-0.11,0.23-0.22,0.14-0.33C48.78,14.7,48.6,14.61,48.32,14.66z
		 M46.84,14.4c-0.45,0.23-0.71,0.61-0.78,0.97c0.21-0.03,0.66,0.02,0.81,0.01c0.15-0.3,0.48-0.75,0.96-0.92
		c0.04-0.01,0.05-0.07,0.02-0.09C47.58,14.18,47.15,14.24,46.84,14.4z M6.55,18.5c0.07-0.06,0.25-0.17,0.39-0.19
		c0.49-0.08,0.89,0.05,1.18,0.4c0.21-0.22,0.47-0.36,0.99-0.32c0.39,0.03,0.74,0.25,1.02,0.54c0.22,0.23,0.33,0.37,0.52,0.4
		c0.21,0.03,0.56,0.04,1.36-0.1c1.13-0.2,2.08-0.09,2.08-0.09c1.05-0.17,2.83-1.58,3.22-2.59L4.19,16.48
		c0.24,0.62,0.73,1.25,1.56,1.87C6.01,18.37,6.43,18.43,6.55,18.5z M6.33,18.98c-0.06-0.04-0.35-0.28-0.8-0.22
		c-0.01,0-0.02,0-0.03,0c0.23,0.4,0.46,0.7,0.84,1.12c0.52,0.59,0.96,0.89,1.21,1.02c0.1,0.05,0.37,0.13,0.68,0.18
		c-0.01-0.01-0.61-0.62-0.95-1C7.03,19.81,6.4,19.05,6.33,18.98z M22.68,26.08c-0.38,0.64-1.65,2.73-3.17,4.25
		c-1.68,1.67-2.72,2.23-3.02,2.35c-0.3,0.12-0.5-0.07-0.51-0.08c-0.01-0.01-1.57-1.56-1.99-2.56c-1.14-2.72-1.18-5.82-1.22-6.32
		c-0.05-0.5-0.08-1.2-0.12-1.65c-0.04-0.45-0.23-0.61-0.93-0.59c-0.51,0.02-1.2,0.05-1.89-0.03c-0.43-0.05-0.78-0.16-1.01-0.43
		c-0.11-0.12-0.77-0.99-1.04-1.29c-0.41-0.46-0.61-0.74-0.77-0.9c0.31-0.23,0.73-0.13,1.05,0.27c0.04,0.05,0.83,1.2,1.09,1.49
		c0.05,0.06,0.13,0.09,0.21,0.1l0.9,0.15c0.17,0.01,0.28,0.01,0.34-0.14c0.05-0.13-0.21-0.25-0.39-0.31l-0.71-0.28
		c-0.22-0.27-0.63-0.89-0.9-1.21c0.14-0.07,0.23-0.11,0.45-0.06c0.23,0.05,0.51,0.31,0.71,0.56c0.2,0.25,0.31,0.35,0.61,0.42
		c0.19,0.05,1.1-0.01,1.25-0.04c0.35-0.05,1.01-0.14,2.03-0.14c0.39,0,0.98,0.1,1.14,0.91l1.23,4.49c0.04,0.14,0.93,1.46,0.93,1.46
		l0.91,1.91c0.14,0.2,0.26,0.25,0.46,0.15c0.16-0.08,0.22-0.29,0.14-0.45l-1.04-2.47c0,0,1.54-1.43,1.67-1.56
		c0.21-0.21,0.2-0.28,0.34-0.69c0.27-0.81,0.6-1.95,0.75-2.4c0.23-0.68,1.02-2.12,2.25-2.47c0.44-0.13,0.9-0.14,1.39-0.15
		c0.8-0.02,1.93,0.02,2.74-0.7c0.48-0.42,0.64-0.92,0.77-1.31c0.06,0.05,0.4,0.21,0.68,0.21c0.15,0,0.3-0.06,0.34-0.18
		c0.07-0.19-0.09-0.35-0.55-0.59c-0.81-0.42-1.17-1.68-1.14-3.17c0.01-0.36-0.21-0.42-0.42-0.56c-0.39-0.11-0.52-0.67-0.63-1.21
		c-0.11-0.51-0.02-0.79,0.22-0.94c0.16-0.1,0.19-0.21,0.17-0.48c-0.02-0.27-0.04-0.56-0.04-1.04c-0.01-2.53,1.76-3.92,4-3.92
		c2.81,0,3.89,2.33,3.99,3.48C33.96,8.53,33.96,8.63,33.9,9c-0.03,0.2-0.1,0.31-0.11,0.52c-0.01,0.13,0.06,0.25,0.16,0.32
		c0.21,0.17,0.23,0.33,0.12,1.1c-0.06,0.41-0.26,0.78-0.53,0.79c-0.27,0.01-0.3-0.25-0.52-0.18c-0.16,0.06-0.14,0.28-0.11,0.44
		c0.04,0.22,0.12,0.5-0.09,1.64c-0.04,0.25-0.13,0.5-0.17,0.64c-0.32,1.1-1.09,2.05-3.2,1.94c-0.2-0.01-0.52,0.01-0.57,0.2
		c-0.05,0.18,0.08,0.33,0.23,0.38c0.3,0.08,0.54,0.1,0.79,0.1c0.65,0,1.32-0.19,1.72-0.38c0.15,1.39,1.72,1.47,1.72,1.47
		s-0.28,0.92-0.5,1.63c-0.49,1.6-1.37,3.89-3.06,6.48l0.01-1.44c0-0.21-0.17-0.38-0.37-0.38c0,0,0,0,0,0
		c-0.21,0-0.38,0.17-0.38,0.38l-0.02,2.54c0,0,0,0,0,0.01c-1.74,2.34-3.17,3.63-4.41,3.77c-1.03,0.11-1.72-0.38-1.84-0.54
		c0.17-0.96,0.33-2.85,0.3-3.7c0.44,0.37,1.09,0.69,2.18,0.75c0.48,0.03,1.26-0.05,1.28-0.06c0.21-0.03,0.35-0.17,0.32-0.38
		c-0.03-0.21-0.22-0.3-0.43-0.27c-0.56,0.08-2.23,0.15-2.79-0.52c-0.59-0.69-0.87-1.89-0.87-1.91c-0.02-0.21-0.15-0.36-0.36-0.34
		c-0.21,0.02-0.27,0.16-0.25,0.37C22.13,24.38,22.3,25.33,22.68,26.08z M31.11,12.87c0,0-0.33-0.09-0.82-0.26
		c-0.53-0.18-0.93-0.02-1.28,0.12c-0.12,0.05-0.25,0.1-0.39,0.14c-0.17,0.05-0.29,0.21-0.27,0.38c0.02,0.2,0.18,0.31,0.35,0.31
		c0.13,0,0.43-0.12,0.57-0.18c0.34-0.14,0.52-0.2,0.79-0.11c0.51,0.18,0.85,0.27,0.87,0.27c0.19,0.05,0.36-0.07,0.43-0.25
		C31.44,13.11,31.3,12.92,31.11,12.87z M26.95,7.18c0.04,0.28,0.39,0.17,0.46,0.13c0.53-0.29,0.79-0.05,1.22,0.06
		c0.33,0.08,0.83,0.19,1.31,0.07c0.2-0.05,0.33-0.17,0.31-0.37c0.06,0.01,0.13,0.03,0.19,0.04c0.45,0.09,0.92,0.16,1.46,0.78
		c0.26,0.3,0.27,0.62,0.29,0.9l-1.2,0c-0.4,0-1.13,0.02-1.14,0.99c0,0.4,0.05,1.04,0.08,1.44l-0.46,0.01
		c-0.17,0.01-0.32,0.13-0.34,0.3c-0.03,0.22,0.14,0.4,0.35,0.4c0.01,0,0.86-0.01,0.86-0.01c0.1-0.01,0.18-0.05,0.25-0.12
		c0.06-0.07,0.09-0.17,0.08-0.26c0-0.01-0.12-1.17-0.11-1.74c0-0.16,0.03-0.31,0.37-0.27c-0.04,0.06-0.08,0.12-0.08,0.26
		c0,0.2,0.18,0.36,0.38,0.37c0,0,0.67,0,0.67,0c0.27,0,0.42-0.19,0.42-0.39c0-0.13-0.02-0.19-0.07-0.25l0.2,0
		c0.42,0,0.52-0.41,0.51-0.65c-0.02-0.55-0.07-0.96-0.57-1.5c-0.53-0.57-1.29-0.83-1.76-0.96c-0.19-0.05-0.35-0.07-0.52-0.08
		c-0.14-0.01-0.29,0.06-0.35,0.19c-0.04,0.08-0.03,0.16-0.01,0.24c-0.38,0.03-0.65-0.03-0.93-0.1c-0.49-0.12-0.92-0.29-1.67,0.22
		C27.03,6.94,26.93,7.05,26.95,7.18z M28.54,8.81c-0.37,0-0.86,0-1.06,0c-0.2,0-0.53,0.04-0.53,0.37s0.44,0.33,0.45,0.33l0.4,0
		c-0.11,0.06-0.19,0.14-0.19,0.28c0,0.19,0.14,0.36,0.36,0.36c0,0,0.43,0.01,0.56,0c0.41-0.03,0.67-0.18,0.67-0.72
		C29.2,9.13,28.97,8.81,28.54,8.81z M24.87,19.92c-0.02,0.21,0.13,0.39,0.34,0.41c0,0,2.83,0.27,2.84,0.27
		c0.09,0,0.18-0.03,0.25-0.1c0.08-0.07,0.12-0.17,0.13-0.27l0.02-0.95c0.01-0.21-0.16-0.38-0.37-0.39c0,0-0.01,0-0.01,0
		c-0.2,0-0.37,0.16-0.38,0.37l-0.01,0.54l-2.41-0.23C25.08,19.56,24.89,19.71,24.87,19.92z M24.8,74.53
		c-0.45,0.83-0.88,1.5-1.23,2.04c-0.06,0.09-0.12,0.18-0.17,0.27c0.51-0.02,1.63-0.04,2.47,0.03c0.89,0.07,1.79,0.24,2.24,0.35
		c0.07-0.51,0.08-0.83,0.1-1.09c0.02-0.32,0.08-1.2,0.08-1.3c-0.1-0.05-0.46-0.19-1.34-0.29C26.34,74.47,25.17,74.5,24.8,74.53z
		 M27.05,73.79c0.47,0.07,0.98,0.16,1.22,0.23c-0.06-0.38-0.13-0.86-0.16-1.55c-0.04-0.99,0.06-1.92,0.15-2.49
		c-0.49,0.13-1.96,0.17-3.03,0.07c0.23,0.57,0.62,1.95-0.07,3.7C25.61,73.73,26.56,73.72,27.05,73.79z M25.89,77.63
		c-0.63-0.07-2.55-0.07-2.97-0.01c-0.46,0.81-0.29,1.48-0.03,1.83c0.4,0.55,1.38,1.01,2.63,1.08c-0.15-0.28-0.33-0.6-0.23-1.08
		C25.4,78.95,25.68,78.1,25.89,77.63z M26.04,79.53c-0.08,0.54,0.13,1.03,0.74,1.05c0.62,0.02,1.01-1.17,1.21-2.61
		c-0.26-0.07-0.82-0.16-1.33-0.24C26.47,78.17,26.11,79.09,26.04,79.53z M20.23,67.59l0.5-14.87c0-0.09-0.03-0.19-0.09-0.26
		c-0.01-0.01-0.73-0.86-0.7-2.41c0.03-1.68,0.74-4.89,1.02-5.92c0.16,0.03,0.32,0.05,0.5,0.05c0.9,0,3.71-0.4,6.65-4.98
		c2.43-3.8,4.79-10.12,4.81-10.19c0.07-0.2-0.03-0.41-0.22-0.49c-0.2-0.07-0.41,0.03-0.49,0.22c-0.02,0.06-2.35,6.31-4.74,10.04
		c-2.81,4.39-5.01,4.66-5.61,4.73c-0.65,0.08-1.07-0.15-1.27-0.46c-0.77-1.19,0.19-3.83,1-5.9c0.17-0.42,0-0.95,0.2-3.04
		c0.13-1.38,0.6-2.51,0.8-3.03c0.35,0.33,1.3,0.56,1.99,0.49c1.28,0,3.4-1.82,5.21-4.34c2.17-3.02,3.04-5.87,3.59-7.57
		c0.24-0.74,0.42-1.61,0.59-1.83c0.11-0.13,0.34-0.12,0.43-0.1c-0.13,0.32-0.27,1.1-0.49,1.95c-0.77,2.91-2.27,8.33-6.27,13.52
		c-1.84,2.39-3.43,3.34-4.44,3.72c-0.2,0.07-0.29,0.29-0.22,0.49c0.06,0.15,0.2,0.24,0.35,0.24c0.04,0,0.09-0.01,0.13-0.02
		c1.1-0.42,2.82-1.44,4.77-3.97c4.1-5.31,5.57-11.04,6.3-13.79c0.21-0.79,0.57-2.14,0.57-2.21c0.09-0.13,0.23-0.17,0.42-0.17
		c0.17,0,0.31,0.09,0.34,0.16c-0.2,1.44-2.84,19.94-7.89,28.73c-2.25,3.92-3.99,5.23-5.95,6.02c-0.19,0.08-0.35,0.27-0.27,0.5
		c0.05,0.15,0.23,0.33,0.53,0.21c2.11-0.85,4-2.25,6.35-6.35c5.01-8.74,7.62-26.81,7.92-28.9c0.12-0.05,0.31-0.08,0.44,0.03
		c0.05,0.04,0.11,0.18,0.09,0.51c-0.01,0.24-0.22,5.09-0.94,10.32c-0.73,5.27-2.15,13.07-4.82,20.32
		c-1.42,3.87-4.73,8.44-6.33,10.63c-2.5,3.45-2.93,6.34-2.94,6.47c-0.03,0.21,0.05,0.42,0.31,0.46c0.26,0.03,0.41-0.16,0.44-0.35
		c0.14-0.97,0.9-3.49,2.81-6.12c1.61-2.22,4.96-6.84,6.42-10.81c2.25-6.12,3.88-14.05,4.7-19.17l0.31,4.98
		c0,0.04,0.01,0.09,0.03,0.13c0.02,0.04,1.15,4.89,1.61,10.01c0.08,0.93,0.14,1.9,0.19,2.87c-0.6,0.71-1,1.61-1.01,2.81
		c-0.01,1.46,0.47,2.4,1.1,3.08c-0.04,3.34-0.19,6-0.22,6.6c-0.51,0.46-1.72,1.3-2.22,2.53c-1.32,1.46-2.92,3.15-4.03,4.02
		c-1.07,0.85-2.42,1.58-4.34,2.02C25.74,69.76,21.84,68.79,20.23,67.59z M29.42,67.8c0.21,0.02,0.4-0.14,0.42-0.34
		c0-0.04,0.44-3.75,3.14-9.8c2.1-4.7,3.16-8.57,3.67-13.35c0.02-0.21-0.13-0.39-0.34-0.42c-0.21-0.02-0.39,0.13-0.42,0.34
		c-0.5,4.69-1.55,8.49-3.61,13.12c-2.75,6.18-3.18,9.87-3.2,10.03C29.06,67.6,29.21,67.78,29.42,67.8z M32.88,73.96
		c0.24,0,0.42,0.01,0.64,0.04c0.11-0.35,0.47-1.05,0.84-1.44c0.54-0.58,0.81-0.72,1.13-0.9c-0.18-0.2-0.34-0.43-0.46-0.67
		c-0.6-1.22-0.53-3.51-0.44-4.76c-0.66,0.79-1.89,1.95-2.8,2.4c0.1,0.71-0.26,2.15-0.31,2.3c-0.08,0.28-0.18,0.54-0.26,0.76
		c-0.34,0.91-0.35,1.6,0.11,1.89C31.85,73.9,32.45,73.96,32.88,73.96z M34.98,72.88c-0.35,0.38-0.62,0.93-0.69,1.28
		c0.38,0.2,0.72,0.39,1.07,0.65c0.17,0.13,0.28,0.19,0.48,0.33c0.09-0.29,0.36-0.94,0.68-1.3c0.42-0.45,0.65-0.61,0.93-0.78
		c-0.5-0.26-0.98-0.56-1.42-0.9C35.73,72.31,35.34,72.49,34.98,72.88z M36.49,75.54c0.34,0.26,0.79,0.42,1.15,0.5l0.32-2.42
		c-0.26,0.14-0.62,0.37-0.89,0.69C36.75,74.7,36.52,75.36,36.49,75.54z M39.49,75.89c0.41-0.01,0.76-0.35,0.81-0.61
		c0.1-0.51-0.3-0.88-0.56-1.03L39.49,75.89z M40.26,63.66l-2,12.99c-0.01,0.07,0.01,0.19,0.16,0.21c0.1,0.01,0.19-0.06,0.21-0.16
		l2.26-13.58C40.64,63.3,40.43,63.48,40.26,63.66z M41.41,68.22c-0.18-0.17-0.36-0.34-0.53-0.51l-0.35,2.12
		c1.24,1.08,2.39,2.25,2.38,3.88c-0.02,2.76-1.45,4.08-3.5,4.83c-1.39,0.51-4.74,0.88-5.61,1.06c-0.59,0.12-1.63,0.45-2.18,0.75
		c1.26-0.25,3.05-0.45,4.59-0.47c4.81-0.06,8.19-2.51,8.21-5.97C44.44,71.11,42.9,69.64,41.41,68.22z M43.23,53.64l-0.51,3.04
		c0.04,0.19,0.07,0.4,0.06,0.64c-0.02,1.36-1.31,2.28-2.68,3.26c-1.52,1.09-3.1,2.21-3.12,3.98c-0.02,1.57,0.78,2.71,1.8,3.71
		l0.45-2.93c-0.09-0.31-0.14-0.64-0.14-0.99c0.01-0.92,1.01-1.62,2.26-2.51c1.6-1.13,3.59-2.54,3.62-4.67
		C45,55.42,44.14,54.43,43.23,53.64z M43.15,49.51c-0.31,0.19-0.58,0.38-0.8,0.56l-1.37,8.9c0.29-0.25,0.54-0.5,0.72-0.76
		L43.15,49.51z M45.68,38.93l-0.44,2.62c0.23,0.37,0.36,0.78,0.36,1.29c-0.03,1.99-1.73,2.92-3.37,3.82
		c-1.84,1.01-3.46,1.97-3.61,4.3c-0.13,2.04,1.73,3.39,2.27,3.64l0.43-2.8c-0.16-0.28-0.25-0.59-0.25-0.95
		c0.01-0.98,1.09-1.63,2.34-2.39c1.9-1.15,4.26-2.59,4.31-5.65C47.74,40.96,46.74,39.89,45.68,38.93z M44.72,34.72l-1.63,10.57
		c0.32-0.2,0.62-0.42,0.87-0.65l1.79-10.77C45.33,34.14,44.97,34.41,44.72,34.72z M48.5,22L48,25c0.52,0.72,1.01,1.59,1,2.3
		c-0.02,1.82-1.39,2.53-2.97,3.36c-0.27,0.14-0.54,0.28-0.83,0.44c-1.12,0.61-3.73,2.3-3.75,4.7c-0.02,1.91,0.83,2.96,1.75,3.79
		l0.46-2.97c-0.1-0.27-0.15-0.57-0.13-0.89c0.1-1.66,1.68-2.46,3.36-3.31c2.19-1.11,4.46-2.26,4.51-5.39
		C51.42,25.1,50.19,23.55,48.5,22z M49.15,17.49c0,0.01-0.19,1.16-0.19,1.16c0.1-0.09,0.3-0.23,0.43-0.34
		c0.17-0.15,0.39-0.35,0.65-0.59c0.62-0.57,0.56-1.34,0.46-1.66c-0.41-0.22-0.73-0.44-0.98-0.66c-0.5,0.02-0.79,0.52-0.89,0.77
		c-0.06,0.16-0.08,0.46,0.07,0.62c0.2,0.22,0.52-0.07,0.72-0.3c0.25-0.28,0.35-0.38,0.49-0.29c0.22,0.14-0.1,0.7-0.26,0.87
		C49.49,17.25,49.28,17.41,49.15,17.49z M56.03,15.91c-0.03,0.12-0.15,0.21-0.26,0.27c-0.63,0.36-2.16,0.52-3.84-0.06
		c-1.56-0.53-2.12-1.13-2.57-1.61c-0.34-0.37-0.63-0.62-1.26-0.77c-0.76-0.18-1.38-0.09-1.89,0.25c-0.64,0.42-0.84,1.09-0.85,1.46
		c-0.13,0.06-0.85,0.31-1,1.26c-0.17,1.12,0.41,1.71,0.87,2.24c-0.29,0.58-0.72,1.22-1.05,1.77c-1.12-1.13-2.21-2.74-1.88-5.23
		c0.26-1.91,1.63-3.96,4.71-3.96c1.4,0,1.98,0.29,2.65,0.62c0.28,0.14,0.57,0.28,0.93,0.42c0.51,0.19,1.06,0.19,1.55,0.19
		c0.35,0,0.67,0,0.9,0.07c0.69,0.21,0.9,0.55,1.13,0.94c0,0,0.26,0.39,0.38,0.52c0.23,0.25,0.5,0.47,0.74,0.66
		C55.8,15.33,56.1,15.59,56.03,15.91z M52.59,13.69l-0.65-0.24c-0.2-0.07-0.41,0.03-0.49,0.23c-0.07,0.2,0.03,0.41,0.22,0.49
		c0,0,0.74,0.26,0.78,0.26c0.15,0,0.3-0.1,0.36-0.25C52.89,13.98,52.79,13.76,52.59,13.69z"/>
</g>
</svg>
