<?xml version="1.0" encoding="UTF-8" standalone="no"?>
<svg
   xmlns:dc="http://purl.org/dc/elements/1.1/"
   xmlns:cc="http://creativecommons.org/ns#"
   xmlns:rdf="http://www.w3.org/1999/02/22-rdf-syntax-ns#"
   xmlns:svg="http://www.w3.org/2000/svg"
   xmlns="http://www.w3.org/2000/svg"
   viewBox="0 0 524.20001 154.70667"
   height="154.70667"
   width="524.20001"
   xml:space="preserve"
   id="svg2"
   version="1.1"><metadata
     id="metadata8"><rdf:RDF><cc:Work
         rdf:about=""><dc:format>image/svg+xml</dc:format><dc:type
           rdf:resource="http://purl.org/dc/dcmitype/StillImage" /></cc:Work></rdf:RDF></metadata><defs
     id="defs6" /><g
     transform="matrix(1.3333333,0,0,-1.3333333,0,154.70667)"
     id="g10"><g
       transform="scale(0.1)"
       id="g12"><path
         id="path14"
         style="fill:#ffffff;fill-opacity:1;fill-rule:nonzero;stroke:none"
         d="m 30.7891,346.984 6.1093,72.145 49.375,266.336 43.4536,10.758 30.55,7.254 40.188,26.211 54.965,118.515 152.504,23.738 c 0,0 26.058,-64.757 7.929,-76.843 -18.129,-12.082 -38.273,-10.071 -41.293,-18.129 -3.015,-8.055 -4.027,-23.164 -4.027,-23.164 L 404.785,740.715 532.688,719.566 555.953,694.07 519.98,424.266 448.031,342.039 108.848,280.367 30.7891,346.984" /><path
         id="path16"
         style="fill:#ffffff;fill-opacity:1;fill-rule:nonzero;stroke:none"
         d="m 425.336,803.348 c 94.004,12.496 141.141,82.132 142.551,163.164 1.633,93.948 -74.957,183.478 -174.992,189.268 -92.657,5.36 -186.981,-65.78 -192.446,-177.686 -2.422,-49.492 16.778,-93.781 48.903,-126.637" /><path
         id="path18"
         style="fill:none;stroke:#1c4e9d;stroke-width:8.43200016;stroke-linecap:butt;stroke-linejoin:miter;stroke-miterlimit:4;stroke-dasharray:none;stroke-opacity:1"
         d="m 425.336,803.348 c 94.004,12.496 141.141,82.132 142.551,163.164 1.633,93.948 -74.957,183.478 -174.992,189.268 -92.657,5.36 -186.981,-65.78 -192.446,-177.686 -2.422,-49.492 16.778,-93.781 48.903,-126.637" /><path
         id="path20"
         style="fill:#1c4e9d;fill-opacity:1;fill-rule:nonzero;stroke:none"
         d="m 138.484,296.48 c 0.129,-3.929 0.227,-7.171 0.282,-9.324" /><path
         id="path22"
         style="fill:#1c4e9d;fill-opacity:1;fill-rule:nonzero;stroke:none"
         d="m 150.563,183.16 c 0.019,-2.117 -0.504,-13.597 -0.836,-15.828 -2.5,-16.672 -3.59,-18.312 -7.5,-30.832 -4.164,-13.34 -16.95,-31.398 -13.422,-41.5 3.523,-10.1094 14.363,-14.0508 29.082,-16.1484 34.691,-4.961 67.676,15.1484 99.34,16.8203 21.765,1.1367 32.636,0.8281 65.625,-8.3399 30,-8.332 83.011,-20.5117 107.711,-17.1718 28.332,3.8398 71.824,18.4101 81.664,20.5117 58.336,1.6601 111.668,-33.3399 141.668,-10 11.593,9.0078 2.839,18.7773 11.668,36.6601 8.828,17.887 27.945,55.363 40.066,98.203 16.504,58.313 13.922,67.539 14.504,92.293 0.215,9.215 -1.418,54.25 -9.328,112.262 -8.571,1.406 -61.903,7.383 -61.903,7.383 l -58.937,-19.239 c 0,0 -68.024,40.954 -70.793,31.411 -2.777,-9.536 -41.574,-76.629 -78.227,-77.918 -23.816,-0.84 -63.461,30.179 -88.718,55.605 -29.645,29.84 -47.082,57.582 -61.946,76.938 -38.09,49.605 -77.543,221.296 -66.386,247.226 -32.309,-13.137 -51.145,-18.023 -71.981,-26.351 l -4.687,-18.75 -9.571,-131.731 -6.617,-79.234 c -0.609,-37.063 7.969,-37.539 9.371,-45.539 l -1.18,-12.336 c 1.821,-26.395 3.266,-41.973 4.133,-44.539 7.805,-22.989 7.715,-38.77 7.715,-38.77 1.66,-52.91 -25.363,-56.383 -39.308,-48.105 -38.7466,15 -58.602,66.718 -64.9575,85.777 -10.3437,31 -25.3086,73.566 -30.4609,93.789 C -2.32422,354.82 16.4219,270.367 33.4414,221.637 69.7578,117.68 94.2227,117.191 108.734,125.289 c 9.739,5.43 31.852,28.59 42.661,49.543 l -0.832,8.328" /><path
         id="path24"
         style="fill:#1c4e9d;fill-opacity:1;fill-rule:nonzero;stroke:none"
         d="m 449.727,1022.75 c -22.5,0.27 -20.836,-0.3 -27.5,-1.25 -4.829,-0.69 -13.829,-2.89 -15.403,-3.16 0.211,2.48 -1.32,8.08 -1.597,10.66 -0.5,4.58 -0.164,8.22 -0.868,12.13 27.454,16.62 101.817,11.83 123.282,-34.63 1.672,-5.42 3.754,-20.586 1.312,-27.586 -0.457,-0.109 1.676,-0.855 -5.476,9.5 -8.071,11.686 -38.75,33.916 -73.75,34.336 z M 333.883,917.574 c 0.078,-0.015 0.164,-0.031 0.164,-0.023 -0.055,-0.004 -0.102,-0.024 -0.152,-0.031 -0.004,0.023 -0.008,0.035 -0.012,0.054 z m -60.43,-121.246 c -2.75,-2.707 -7.101,-3.871 -10.152,-4.113 -2.809,12.152 -9.246,15.793 -16.016,29.223 -4.258,8.453 -4.355,18.164 -3.531,21.984 1.094,5.082 8.211,7.703 11.312,6.226 1.832,-1.972 -0.636,1.051 1.301,-0.82 0.789,-0.75 10.699,-14.301 14.844,-21.672 8.855,-15.406 8.715,-24.445 2.242,-30.828 z m 261.11,161.242 c 1.414,11.012 3.914,30.7 1.902,47.42 -10.488,59.22 -75.742,113.2 -150.098,113.13 -92.762,-0.08 -145.804,-70.79 -144.859,-144.444 0.461,-35.61 22.961,-76.946 26.558,-81.301 6.247,-10.457 15.821,-20.242 14.579,-15.879 1.671,-0.484 77.113,100.809 82.082,107.086 5.687,7.18 19.336,15.57 21.25,18.748 1.914,3.17 19.714,7.84 19.714,7.84 2.36,0.74 5.11,1.69 7.586,2.04 57.231,8.29 76.071,-7.48 85.614,-12.718 20.441,-11.203 23.25,-21.937 26.964,-27.726 -0.097,-1.246 0.793,-2.832 0.508,-7.852 -0.601,-10.43 -1.73,-19.023 -4.425,-31.777 -0.965,-4.567 -1.098,-6.407 -3.317,-11.106 -2.211,-4.703 0.688,-4.808 -2.641,-8.656 -2.917,-3.379 -5.808,-4.84 -7.011,-5.637 -12.324,-8.156 -11.242,-16.215 -12.414,-25.246 -0.813,-6.379 -3.563,-14.332 -7.821,-19.219 -9.726,-11.125 -22.871,-24.523 -27.597,-28.281 -4.727,-3.765 -15.121,-13.918 -26.918,-21.082 -2.395,-1.453 -12.563,-7.449 -14.805,-9.015 -5.73,-4.079 -8.75,-8.293 -15.934,-10.938 -2.457,-0.906 -7.367,-2.648 -9.789,-3.004 -7.761,-1.098 -14.199,3.242 -21.156,7.426 -15.582,9.332 -27.226,20.644 -36.984,36.516 -6.598,8.464 -8.067,14.824 -10.524,18.941 -1.726,1.043 -3.168,1.848 -4.211,0.16 -1.046,-1.734 2.036,-9.414 4.282,-14.23 l 3.347,-6.957 c 6.106,-8.672 4.914,-8.227 7.473,-10.661 8.672,-11.668 19.094,-20.992 31.504,-29.453 4.769,-3.23 10.219,-6.715 15.641,-7.488 4.375,-0.625 6.195,-0.93 10.828,-0.414 2.812,0.309 6.277,0.637 10.625,2.078 6.949,2.305 11.773,6.461 19.547,11.391 2.914,1.851 11.425,7.14 14.328,9.062 11.703,7.692 18.39,13.567 26.082,20.305 7.695,6.738 13.601,11.863 18.246,18.129 13.609,11.125 20.047,24.965 21.086,43.308 0.183,2.969 -0.535,6.407 1.738,8.661 2.543,2.5 9.828,7.855 13.559,10.605 8.437,8.438 15.41,49.824 15.461,50.238" /><path
         id="path26"
         style="fill:#ffffff;fill-opacity:1;fill-rule:nonzero;stroke:none"
         d="m 529.809,658.785 c -14.348,2.961 -90.922,-13.41 -125.532,-67.547 58.219,-54.058 174.028,-162.746 163.754,-179.23 33.293,44.246 105.582,36.734 106.836,51.387 2.168,25.23 76.363,74.242 93.563,82.628 -6.86,9.907 -57.313,93.633 -70.442,112.989 -28.535,42.074 -81.843,98.347 -81.843,98.347 0,0 -41.61,-24.14 -55.493,-40.488 -13.879,-16.351 -28.019,-47.344 -30.843,-58.086" /><path
         id="path28"
         style="fill:none;stroke:#1c4e9d;stroke-width:9.15499973;stroke-linecap:butt;stroke-linejoin:miter;stroke-miterlimit:4;stroke-dasharray:none;stroke-opacity:1"
         d="m 529.809,658.785 c -14.348,2.961 -90.922,-13.41 -125.532,-67.547 58.219,-54.058 174.028,-162.746 163.754,-179.23 33.293,44.246 105.582,36.734 106.836,51.387 2.168,25.23 76.363,74.242 93.563,82.628 -6.86,9.907 -57.313,93.633 -70.442,112.989 -28.535,42.074 -81.843,98.347 -81.843,98.347 0,0 -41.61,-24.14 -55.493,-40.488 -13.879,-16.351 -28.019,-47.344 -30.843,-58.086 z" /><path
         id="path30"
         style="fill:#ffffff;fill-opacity:1;fill-rule:nonzero;stroke:none"
         d="m 524.512,662 26.804,-32.062" /><path
         id="path32"
         style="fill:none;stroke:#1c4e9d;stroke-width:9.15499973;stroke-linecap:butt;stroke-linejoin:miter;stroke-miterlimit:4;stroke-dasharray:none;stroke-opacity:1"
         d="m 524.512,662 26.804,-32.062" /><path
         id="path34"
         style="fill:#1c4e9d;fill-opacity:1;fill-rule:nonzero;stroke:none"
         d="m 397.582,951.668 c 6.664,0.531 14.383,-0.738 16.207,-1.211 6.129,-1.598 16.582,-5.926 16.566,-15.309 -0.003,-2.972 0.25,-0.21 -0.531,-5.863 -0.344,-2.484 1.153,-1.64 1.598,-1.066 1.598,2.668 1.68,3.414 2.394,6.398 0,0 0.61,1.942 0.442,4.434 -0.156,2.344 -0.703,5.422 -3.903,8.086 -7.421,6.176 -10.66,6.125 -23.714,7.461 -4.063,0.312 -14.918,0 -21.473,1.172 0,0 5.473,-4.004 6.555,-4.102 2.929,-0.27 4.41,-0.117 5.859,0" /><path
         id="path36"
         style="fill:#1c4e9d;fill-opacity:1;fill-rule:nonzero;stroke:none"
         d="m 416.504,930.086 c 6.363,-0.508 13.652,6.094 12.781,10.656 -1.062,5.598 -5.863,10.528 -14.383,11.188 -3.464,0.269 -9.058,-4.793 -9.504,-10.512 -0.402,-5.234 4.442,-10.801 11.106,-11.332" /><path
         id="path38"
         style="fill:#1c4e9d;fill-opacity:1;fill-rule:nonzero;stroke:none"
         d="m 400.359,926.191 c 2.036,-1.718 5.786,-4.375 10.469,-4.843 0.266,-0.024 4.621,-0.52 4.938,-0.477 2.187,0.313 2.554,-0.344 5.422,0.414 1.562,0.313 3.066,0.367 4.164,1.875 -0.219,-0.301 -0.45,1.906 -0.059,1.86 -7.191,-2.395 -13.875,-1.047 -17.582,0.8 -3.731,1.868 -8.086,5.52 -10.898,9.426 -0.938,1.305 -2.243,3.457 -3.653,5.844 -0.812,1.375 0.883,-5.067 1.418,-6.617 0,0 1.246,-4.442 5.781,-8.282" /><path
         id="path40"
         style="fill:#1c4e9d;fill-opacity:1;fill-rule:nonzero;stroke:none"
         d="m 497.852,901.707 c 0.312,6.25 1.48,10.566 -5.215,14.512 -6.328,3.73 -10.328,3.476 -20.719,1.078 -4.238,-0.977 -5.785,-1.527 -13.855,-4.859 -1.446,-0.594 1.179,-2.723 4.011,-1.7 11.133,4.035 10.754,2.141 10.754,2.141 0,0 -0.902,-2.063 -0.894,-2.063 -0.418,-1.003 -0.704,-2.054 -0.746,-3.097 -0.188,-4.938 2.867,-10.672 9.257,-11.203 4.785,-0.403 10.121,4.343 11.993,7.457 0.621,0.332 5.378,-2.926 5.414,-2.266" /><path
         id="path42"
         style="fill:#1c4e9d;fill-opacity:1;fill-rule:nonzero;stroke:none"
         d="m 466.344,894.152 c 3.172,-3.07 7.656,-5.937 12.64,-5.332 1.973,0.239 5.164,1.813 6.11,2.832 -0.469,0.157 3.344,2.321 1.406,1.875 -9.531,-2.187 -13.234,-0.976 -18.172,2.95 -1.863,1.503 -4.562,6.543 -5.367,8.632 -1.617,4.2 -1.523,1.844 -1.617,0.137 -0.094,-1.711 2.609,-8.777 5,-11.094" /><path
         id="path44"
         style="fill:#1c4e9d;fill-opacity:1;fill-rule:nonzero;stroke:none"
         d="m 427.641,971.66 c 4.586,-5.164 7.086,-9.328 9.672,-14.539 1.21,-2.441 4.644,-10.695 4.542,-10.496 1.09,-2.094 3.032,-2.656 5,-2.668 2.708,1.039 4.606,2.242 4.461,4.195 -0.339,4.758 -4.734,10.274 -11.589,18.766 -5.247,6.492 -14.586,12.914 -25.836,13.75 -1.953,0.145 -18,1.418 -18.243,-0.574 -0.234,-1.973 5.387,-0.137 9.915,-0.512 7.078,-0.586 15.828,-2.922 22.078,-7.922" /><path
         id="path46"
         style="fill:#1c4e9d;fill-opacity:1;fill-rule:nonzero;stroke:none"
         d="m 438.27,855.457 c 2.293,-0.625 3.957,-1.07 5.625,-1.047 2.793,0.039 3.332,0.836 4.582,1.875 1.894,1.578 2.277,8.762 2.23,10.969 -0.312,15.652 -2.777,25.547 -0.211,40.391 1.731,10 3.606,12.812 8.606,17.664 2.64,2.566 6.503,3.004 8.496,3.722 1.597,0.567 3.41,-0.539 6.035,0.02 21.406,4.531 27.812,2.5 33.281,0.625 5.27,-1.809 9.516,-4.988 10.781,-11.25 0.645,-1.91 -1.234,-4.492 0.633,-3.848 1.91,0.641 4.231,2.754 3.586,4.629 -2.027,8.098 -10.703,14.813 -18.902,17.266 -9.239,2.761 -17.973,4.609 -27.348,2.422 -6.848,-1.598 -13.59,-3.926 -20.59,-10.844 -4.691,-4.645 -9.797,-11.985 -10.582,-20.696 -1.469,-16.355 2.047,-39.71 -2.07,-44.828 -4.031,-3.257 -8.645,0 -12.227,-2.242 -1.687,-1.055 -2.523,-3.109 -1.386,-4.762 0.855,-1.25 4.046,0.04 5.918,0.762 0,0 2.203,-0.465 3.543,-0.828" /><path
         id="path48"
         style="fill:#1c4e9d;fill-opacity:1;fill-rule:nonzero;stroke:none"
         d="m 417.066,866.074 c 0.961,-1.656 3.176,-4.527 5.118,-4.113 1.972,0.453 1.086,5.516 0.671,7.457 -0.531,2.566 -5.175,9.004 -9.957,6.898 0.418,0.18 -2.25,-0.656 -4.027,-3.75 2.473,-2.355 5.684,-2.179 8.195,-6.492" /><path
         id="path50"
         style="fill:#1c4e9d;fill-opacity:1;fill-rule:nonzero;stroke:none"
         d="m 391.133,851.863 c 4.375,-1.718 8.086,-3 10.68,-4.117 4.597,-1.988 5,-6.226 9.578,-9.164 1.773,-1.133 7.492,-1.812 9.742,-3.437 2.258,-1.633 4.746,-5.207 4.844,-5.313 2.351,-2.676 2.304,-4.551 4.164,-4.586 1.863,0 2.148,1.738 0.836,5.422 -1.039,2.914 -1.028,4.711 -2.711,9.164 -1.801,4.766 -8.289,3.672 -9.914,5.141 -1.633,1.465 -2.461,6.367 -7.586,7.148 -7.188,1.094 -11.196,1.774 -16.508,3.18 -5.313,1.406 -9.879,3.418 -10.367,1.609 -0.524,-1.765 3.707,-3.66 7.242,-5.047" /><path
         id="path52"
         style="fill:#1c4e9d;fill-opacity:1;fill-rule:nonzero;stroke:none"
         d="m 391.012,836.082 c 2.484,-5.918 6.859,-11.855 13.265,-12.793 1.957,-0.289 17.61,-1.203 17.989,0.785 0.371,1.942 -7.731,-0.582 -18.145,6.09 -10.699,6.848 -12.5,14.219 -14.687,15.938 -1.563,-2.344 1.578,-10.02 1.578,-10.02" /><path
         id="path54"
         style="fill:#1c4e9d;fill-opacity:1;fill-rule:nonzero;stroke:none"
         d="m 380.766,786.496 c -3.555,-3.363 -8.942,-5.902 -10.625,-10.625 -1.645,-4.496 -2.289,-7.601 -3.125,-14.105 -1.157,-8.996 -0.649,-12.442 0.211,-21.52 0.617,-6.543 1.738,-17.766 3.125,-20.828 0.621,-1.367 1.664,-3.336 5.211,-4.375 3.468,-1.023 5.527,-1.203 9.128,-1.543 1.7,3 -2.253,3 -5.753,6.273 -1.965,1.836 -2.817,9.465 -3.442,13.329 -1.183,7.355 -0.824,15.558 -0.769,20.058 0.046,4.219 -0.336,0.387 0.625,7.922 0.66,5.398 0.523,10.547 2.711,15.625 1.117,2.664 8.878,6.719 10.625,8.953 0.035,-0.117 -2.418,-0.894 -2.383,-1.004 1.59,1.215 0.414,0.672 -0.809,2.227 -1.219,1.59 -2.094,1.824 -3.644,0.605 l -1.086,-0.992" /><path
         id="path56"
         style="fill:#1c4e9d;fill-opacity:1;fill-rule:nonzero;stroke:none"
         d="m 326.438,713.582 c 8.574,-1.941 16.023,-5.918 16.023,-5.918 0,0 1.641,-1.641 3.496,-1.73 1.531,-0.059 2.207,2.648 2.207,2.648 -1.562,4.063 -7.5,7.188 -7.5,7.188 -3.75,1.25 -7.5,2.812 -12.012,1.789 -1.765,-0.399 -3.64,-2.864 -2.214,-3.977 v 0" /><path
         id="path58"
         style="fill:#1c4e9d;fill-opacity:1;fill-rule:nonzero;stroke:none"
         d="m 189.402,883.359 c 8.746,23.524 -29.445,45.489 -30.449,46.786 0.203,-4.02 0.625,-6.418 0.625,-6.418 1.406,-1.594 5.649,-7.11 7.899,-10.586 2.449,-3.789 8.617,-15.395 -0.961,-24.973 -9.469,-9.469 -27.328,-22.766 -36.004,-28.895 -2.973,-2.097 -2.504,-2.566 -3.535,-1.304 -6.079,5.695 -19.637,18.551 -30.1645,32.945 -5.8359,7.981 -4.7734,13.262 -3.1523,17.828 2.9414,8.278 13.7228,17.227 13.7228,17.227 l 2.222,5.047 c 0,0 -5.257,-1.723 -13.5152,-5.45 C 85.7773,920.914 77.2266,911.551 74.4219,901.52 69.1836,882.781 101.5,850.219 108.777,842.527 c -2.769,-2.437 -4.363,-4.257 -8.113,-7.382 -7.3476,-6.125 -28.7421,-28.379 -31.1484,-38.922 -2.6015,-11.391 11.3164,-73.266 17.1211,-106.629 9.5352,3.312 15.6483,5.847 18.8243,6.488 -3.234,32.5 -10.7344,84.063 -9.6876,93.602 0.2032,6.086 30.2496,32.41 37.1526,38.89 6.894,6.485 29.816,24.539 35.086,29.778 8.172,8.125 16.824,12.714 21.39,25.007" /><path
         id="path60"
         style="fill:#ffffff;fill-opacity:1;fill-rule:nonzero;stroke:none"
         d="m 130.117,431.824 c -2.562,-5.769 17.125,-4.113 40.742,-46.375 10,-20 13.426,-25.855 13.907,-65.14 22.484,-28.176 40.297,-72.43 66.062,-110.536 21.848,-32.308 69.758,-37.449 90.356,-45.175 82.168,-30.828 62.711,-51.438 92.711,-50.598 23.527,0.648 67.32,39.129 81.574,58.57 23.453,31.981 29.844,47.36 43.426,91.426 7,22.699 15.828,65.41 13.562,93.258 -6.078,-19.922 -22.406,-99.219 -58.57,-152.754 -18.422,-27.277 -40.621,-43.578 -61.66,-45.828 -32.317,-3.453 -95.961,32.922 -161.797,97.508 -26.184,24.363 -44.617,56.992 -69.617,98.656 -16.497,27.496 -46.379,74.695 -48.5,82.555 -3.411,12.644 -3.641,79.734 -2.903,99.589 1.113,30.086 12.621,91.254 14.969,81.43 2.848,-11.914 -0.965,-37.621 4.101,-71.234 10.45,-69.293 13.977,-86.84 28.977,-108.762 35.125,-51.328 123.77,-134.355 156.688,-155.578 63.515,-40.953 86.335,-49.664 106.617,-46.844 12.851,1.789 22.953,23.352 28.988,34.649 19.145,35.855 37.477,114.191 44.059,131.316 2.769,7.195 -10.489,14.051 -10.489,14.051 0,0 -26.285,-83.121 -62.199,-117.817 -12.359,-11.945 -17.699,-17.539 -43.894,-6.691 -26.997,11.184 -107.329,81.328 -133.997,117.164 -32.101,43.145 -40.98,60.445 -49.339,83.668 -8.36,23.227 -31.332,98.418 -38.442,141.645 -3.011,18.316 -12.605,54.761 -10.222,88.023 -10.586,-3.152 -60.95,-21.496 -66.332,-36.34 -2.278,-28.242 -7.5,-61.664 -9.161,-120.41 l 0.383,-133.426" /><path
         id="path62"
         style="fill:#ffffff;fill-opacity:1;fill-rule:nonzero;stroke:none"
         d="m 538.188,320.66 c 0.972,1.934 0.777,1.539 0,0 v 0" /><path
         id="path64"
         style="fill:#ffffff;fill-opacity:1;fill-rule:nonzero;stroke:none"
         d="m 196.395,211.828 c 15,-43.066 34.585,-53.558 63.332,-62.277 22.5,-6.821 65.875,-20.16 64.566,-30.852 -46.23,12.301 -68.73,14.289 -102.066,7.66 -33.125,-6.57 -38.301,-5.578 -44.336,0.27 -5.664,7.441 7.672,17.621 11.004,30.211 7.8,29.43 -3.473,52.269 7.5,54.988" /><path
         id="path66"
         style="fill:#ffffff;fill-opacity:1;fill-rule:nonzero;stroke:none"
         d="M 547.652,120.84 C 536.406,121 531.621,116.711 521.43,116 c -16.371,2.27 7.64,19.379 15.718,31.5 8.079,12.121 11.954,35.438 22.286,34.711 1.093,-8.75 0.601,-14.301 2.945,-28.262 6.375,-38.09 37.207,-47.14 32.543,-49.07 -18.192,-7.547 -34.863,15.793 -47.27,15.961" /><path
         id="path68"
         style="fill:#ffffff;fill-opacity:1;fill-rule:nonzero;stroke:none"
         d="m 695.32,299.309 c -20.261,-58.301 -49.09,-74.196 -61.132,-69.336 -20.293,8.187 -15.293,38.187 -13.188,74.316 1.227,38.871 5.352,85.863 14.563,120.543 1.339,5.047 -28.954,-15.269 -39.122,-23.707 -0.179,-4.512 20.079,-24.199 6.153,-98.023 -16.621,-56.989 -14.41,-102.133 -12.031,-119.942 3.507,-26.301 14.132,-42.98 31.664,-47.5 25.836,-6.66 44.168,40 56.984,78.879 8.894,26.992 24.617,109.242 16.109,84.77" /><path
         id="path70"
         style="fill:none;stroke:#1c4e9d;stroke-width:9.15499973;stroke-linecap:butt;stroke-linejoin:miter;stroke-miterlimit:4;stroke-dasharray:none;stroke-opacity:1"
         d="m 246.078,757.977 c -5.59,-8.789 -18.461,-32.84 1.602,-57.536 10.386,-12.785 22.316,-21.816 45.883,-30.461 34.613,-12.687 54.507,-22.476 69.195,-45.218 5.406,-8.367 3.019,-15.789 3.019,-15.789 0,0 0.453,12.039 4.528,23.937 4.066,11.903 13.582,26.524 29.113,38.496 14.902,11.485 31.352,21.383 29.977,46.453 -1.102,20.059 -18.872,22.317 -29.118,25.731" /><path
         id="path72"
         style="fill:#1c4e9d;fill-opacity:1;fill-rule:nonzero;stroke:none"
         d="m 370.355,571.148 c 8.45,0.582 12.071,13.305 11.458,22.223 -0.618,8.914 -6.129,17.008 -14.579,16.426 -8.445,-0.582 -13.578,-10.617 -12.961,-19.531 1.582,-22.856 15.868,-19.133 16.082,-19.118" /><path
         id="path74"
         style="fill:none;stroke:#1c4e9d;stroke-width:9.15499973;stroke-linecap:butt;stroke-linejoin:miter;stroke-miterlimit:4;stroke-dasharray:none;stroke-opacity:1"
         d="m 370.355,571.148 c 8.45,0.582 12.071,13.305 11.458,22.223 -0.618,8.914 -6.129,17.008 -14.579,16.426 -8.445,-0.582 -13.578,-10.617 -12.961,-19.531 1.582,-22.856 15.868,-19.133 16.082,-19.118 z" /><path
         id="path76"
         style="fill:#1c4e9d;fill-opacity:1;fill-rule:nonzero;stroke:none"
         d="m 398.762,590.816 c 1.926,-7.925 4.617,-7.382 3.426,-38.679 49.367,-33.223 164.527,-164.188 164.527,-164.188 l 102.578,55.563 c 0,0 51.598,67.554 100.203,77.758 2.539,13.972 3.133,15.445 5.543,22.781 -6.699,2.902 -75.648,-38.196 -100.172,-80.656 -48.793,-15.024 -102.992,-45.508 -102.992,-45.508 0,0 -93.734,104.808 -173.113,172.929" /><path
         id="path78"
         style="fill:none;stroke:#1c4e9d;stroke-width:9.15499973;stroke-linecap:butt;stroke-linejoin:miter;stroke-miterlimit:4;stroke-dasharray:none;stroke-opacity:1"
         d="m 467.656,593.641 c 0,0 35.641,33.609 83.532,40.82 7.82,15.375 46.621,62.492 57.703,68.707" /><path
         id="path80"
         style="fill:none;stroke:#1c4e9d;stroke-width:9.15499973;stroke-linecap:butt;stroke-linejoin:miter;stroke-miterlimit:4;stroke-dasharray:none;stroke-opacity:1"
         d="m 493.891,567.332 c 0,0 56.019,41.566 84.332,41.09 13.828,27.176 37.48,52.195 56.504,65.574" /><path
         id="path82"
         style="fill:none;stroke:#1c4e9d;stroke-width:9.15499973;stroke-linecap:butt;stroke-linejoin:miter;stroke-miterlimit:4;stroke-dasharray:none;stroke-opacity:1"
         d="m 518.063,538.996 c 0,0 59.71,46.656 88.328,38.336 -0.008,15.668 38.804,56.742 51.672,65.836" /><path
         id="path84"
         style="fill:none;stroke:#1c4e9d;stroke-width:9.15499973;stroke-linecap:butt;stroke-linejoin:miter;stroke-miterlimit:4;stroke-dasharray:none;stroke-opacity:1"
         d="m 543.891,510.668 c 0,0 54.816,35.105 80,36.664 7.82,15.375 44.816,58.598 53.336,63.336" /><path
         id="path86"
         style="fill:none;stroke:#1c4e9d;stroke-width:9.15499973;stroke-linecap:butt;stroke-linejoin:miter;stroke-miterlimit:4;stroke-dasharray:none;stroke-opacity:1"
         d="m 568.281,481.918 c 0,0 46.446,27.914 75.61,28.75 7.82,15.375 43.136,55.18 56.672,62.5" /><path
         id="path88"
         style="fill:#ffffff;fill-opacity:1;fill-rule:nonzero;stroke:none"
         d="m 558.609,622.102 c -10.41,6.363 -11.66,17.457 -5.781,22.554 8.672,7.52 16.774,1.157 22.098,-2.078 12.012,-7.281 26.469,-15.383 32.262,-21.633 5.792,-6.246 27.347,-32.101 38.835,-47.004 9.813,-12.726 39.043,-59.414 49.957,-73.738 16.075,-21.109 10.168,-27.953 12.461,-52.148 2.274,-3.707 -6.476,-64.657 -9.488,-80.211 -2.996,-15.559 -23.012,-72.578 -47.625,-67.508 -22.949,2.152 -3.086,119.691 -3.086,119.691 0,0 4.301,15.09 13.754,16.649 -30.41,3.625 -110.851,88.652 -118.422,99.254 -2.89,4.047 -11.566,17.929 4.082,23.304 7.321,2.516 34.043,-26.359 34.043,-26.359 0,0 -23.082,20.961 -25.98,26.766 -1.735,3.464 -4.625,14.457 6.359,17.929 5.516,1.743 11.57,0.575 41.32,-28.277 3.668,-3.559 -41.753,39.43 -48.835,43.312 -7.086,3.887 -27.762,13.305 -30.653,28.915 -0.691,3.742 3.469,10.992 12.145,10.992 5.808,0 37.933,-18.332 44.531,-24.293 7.672,-6.934 40,-41.278 40,-41.278" /><path
         id="path90"
         style="fill:none;stroke:#1c4e9d;stroke-width:9.15499973;stroke-linecap:round;stroke-linejoin:miter;stroke-miterlimit:4;stroke-dasharray:none;stroke-opacity:1"
         d="m 558.609,622.102 c -10.41,6.363 -11.66,17.457 -5.781,22.554 8.672,7.52 16.774,1.157 22.098,-2.078 12.012,-7.281 26.469,-15.383 32.262,-21.633 5.792,-6.246 27.347,-32.101 38.835,-47.004 9.813,-12.726 39.043,-59.414 49.957,-73.738 16.075,-21.109 10.168,-27.953 12.461,-52.148 2.274,-3.707 -6.476,-64.657 -9.488,-80.211 -2.996,-15.559 -23.012,-72.578 -47.625,-67.508 -22.949,2.152 -3.086,119.691 -3.086,119.691 0,0 4.301,15.09 13.754,16.649 -30.41,3.625 -110.851,88.652 -118.422,99.254 -2.89,4.047 -11.566,17.929 4.082,23.304 7.321,2.516 34.043,-26.359 34.043,-26.359 0,0 -23.082,20.961 -25.98,26.766 -1.735,3.464 -4.625,14.457 6.359,17.929 5.516,1.743 11.57,0.575 41.32,-28.277 3.668,-3.559 -41.753,39.43 -48.835,43.312 -7.086,3.887 -27.762,13.305 -30.653,28.915 -0.691,3.742 3.469,10.992 12.145,10.992 5.808,0 37.933,-18.332 44.531,-24.293 7.672,-6.934 40,-41.278 40,-41.278" /><path
         id="path92"
         style="fill:#ffffff;fill-opacity:1;fill-rule:nonzero;stroke:none"
         d="m 42.0469,380.09 c -3.8399,13.719 -11.2305,30.566 -18.4492,59.926 -5.3321,21.691 -18.59379,55.953 -18.41801,81.988 0.1875,27.133 17.68751,76.976 28.89841,101.109 6.543,14.067 14.7266,46.703 29.3633,53.567 20.1172,9.425 59.5076,21.281 64.4686,21.949 4.949,0.684 28.926,-9.961 44.988,-18.316 17.508,-9.106 32.141,-13.5 30.211,-22.176 -1.464,-6.598 -10.043,-18.227 -40.57,-2.16" /><path
         id="path94"
         style="fill:none;stroke:#1c4e9d;stroke-width:10.36229992;stroke-linecap:butt;stroke-linejoin:miter;stroke-miterlimit:4;stroke-dasharray:none;stroke-opacity:1"
         d="m 42.0469,380.09 c -3.8399,13.719 -11.2305,30.566 -18.4492,59.926 -5.3321,21.691 -18.59379,55.953 -18.41801,81.988 0.1875,27.133 17.68751,76.976 28.89841,101.109 6.543,14.067 14.7266,46.703 29.3633,53.567 20.1172,9.425 59.5076,21.281 64.4686,21.949 4.949,0.684 28.926,-9.961 44.988,-18.316 17.508,-9.106 32.141,-13.5 30.211,-22.176 -1.464,-6.598 -10.043,-18.227 -40.57,-2.16" /><path
         id="path96"
         style="fill:#ffffff;fill-opacity:1;fill-rule:nonzero;stroke:none"
         d="m 99.5273,631.418 c 0,0 21.5627,6.988 30.8557,5.785 17.351,-2.246 25.066,-4.496 29.887,-9.32 4.82,-4.824 2.89,-19.281 -5.79,-20.891 -7.972,-1.472 -23.058,1.93 -23.136,1.93 -12.352,0 -11.891,-1.285 -25.746,-4.906" /><path
         id="path98"
         style="fill:none;stroke:#1c4e9d;stroke-width:10.36229992;stroke-linecap:round;stroke-linejoin:round;stroke-miterlimit:4;stroke-dasharray:none;stroke-opacity:1"
         d="m 99.5273,631.418 c 0,0 21.5627,6.988 30.8557,5.785 17.351,-2.246 25.066,-4.496 29.887,-9.32 4.82,-4.824 2.89,-19.281 -5.79,-20.891 -7.972,-1.472 -23.058,1.93 -23.136,1.93 -12.352,0 -11.891,-1.285 -25.746,-4.906" /><path
         id="path100"
         style="fill:none;stroke:#1c4e9d;stroke-width:10.36229992;stroke-linecap:round;stroke-linejoin:round;stroke-miterlimit:4;stroke-dasharray:none;stroke-opacity:1"
         d="m 92.2578,658.016 c 0,0 23.3442,9.078 32.6602,9.398 9.316,0.32 25.707,-5.781 36.312,-10.281 9.356,-3.973 8.356,-20.891 -6.425,-24.11" /><path
         id="path102"
         style="fill:#ffffff;fill-opacity:1;fill-rule:nonzero;stroke:none"
         d="m 105.637,603.332 c 7.386,2.055 18.636,5.273 27.957,4.305 11.25,-1.926 22.172,-3.211 21.851,-13.496 -0.406,-6.766 -1.554,-11.809 -8.996,-14.282 -4.304,-1.062 -21.308,-0.027 -32.558,-0.441 0,0 -22.9144,4.164 -33.3715,-24.039 -2.9453,-7.938 -10.3047,-54.266 -22.2578,-57.238 -2.0508,-1.618 1.8203,-8.993 3.9571,-14.223 0.2617,-0.645 0.582,-1.367 0.9453,-2.145 3.3672,-7.21 10.5156,-19.335 10.5156,-19.335 0,0 0.6328,1.98 -1.6758,-8.657 -4.8203,12.782 -13.2695,39.391 -13.2695,39.391" /><path
         id="path104"
         style="fill:none;stroke:#1c4e9d;stroke-width:10.36229992;stroke-linecap:round;stroke-linejoin:miter;stroke-miterlimit:4;stroke-dasharray:none;stroke-opacity:1"
         d="m 105.637,603.332 c 7.386,2.055 18.636,5.273 27.957,4.305 11.25,-1.926 22.172,-3.211 21.851,-13.496 -0.406,-6.766 -1.554,-11.809 -8.996,-14.282 -4.304,-1.062 -21.308,-0.027 -32.558,-0.441 0,0 -22.9144,4.164 -33.3715,-24.039 -2.9453,-7.938 -10.3047,-54.266 -22.2578,-57.238 -2.0508,-1.618 1.8203,-8.993 3.9571,-14.223 0.2617,-0.645 0.582,-1.367 0.9453,-2.145 3.3672,-7.21 10.5156,-19.335 10.5156,-19.335 0,0 0.6328,1.98 -1.6758,-8.657 -4.8203,12.782 -13.2695,39.391 -13.2695,39.391" /><path
         id="path106"
         style="fill:#1c4e9d;fill-opacity:1;fill-rule:nonzero;stroke:none"
         d="m 117.395,351.641 c -5.469,0 -9.11,1.992 -9.735,5.351 -0.941,5.309 1.91,38.098 5.754,80.418 1.188,13.188 2.211,24.406 2.609,30.039 0.125,1.504 0.524,12.942 0.969,25.512 0.922,25.57 1.285,34.879 1.446,36.023 3.339,24.489 4.382,38.141 4.406,38.258 l 0.258,3.379 3.378,-0.078 18.676,-0.527 3.739,-0.118 -0.301,-3.738 c -0.059,-0.785 -6.469,-78.531 -6.071,-96.461 0.18,-8.566 0.602,-16.929 1.067,-25.715 1.023,-20.105 2.191,-42.882 0.785,-75.453 l -0.043,-0.984 -0.543,-0.828 c -7.418,-11.137 -18.84,-15.078 -26.394,-15.078 v 0" /><path
         id="path108"
         style="fill:#ffffff;fill-opacity:1;fill-rule:nonzero;stroke:none"
         d="m 119.824,574.277 -0.515,-6.746 c -0.012,-0.133 -1.071,-13.715 -4.399,-38.09 -0.168,-1.25 -0.441,-8.121 -1.472,-36.769 -0.418,-11.606 -0.848,-23.602 -0.95,-24.977 -0.402,-5.547 -1.402,-16.586 -2.586,-29.597 -4.742,-52.231 -6.687,-76.426 -5.722,-81.743 0.355,-1.937 2.351,-8.273 13.222,-8.273 8.821,0 21.161,4.387 29.344,16.68 l 1.102,1.652 0.086,1.981 c 1.398,32.679 0.226,55.539 -0.809,75.703 -0.453,8.82 -0.879,17.156 -1.066,25.675 -0.395,17.754 6.007,95.321 6.07,96.102 l 0.621,7.473 -7.496,0.207 -18.668,0.531 -6.762,0.191 z m 6.563,-7.289 18.668,-0.527 c 0,0 -6.5,-78.516 -6.094,-96.844 0.617,-28.359 3.871,-54.429 1.879,-100.918 -6.735,-10.117 -16.918,-13.515 -23.438,-13.515 -3.519,0 -5.972,0.992 -6.234,2.445 -1.359,7.441 7.023,90.531 8.402,109.559 0.25,3.468 2.09,59.195 2.379,61.296 3.399,24.922 4.438,38.504 4.438,38.504" /><path
         id="path110"
         style="fill:#ffffff;fill-opacity:1;fill-rule:nonzero;stroke:none"
         d="m 126.168,837.184 c 2.344,-0.09 4.312,1.601 4.395,3.785 0.074,2.183 -1.762,4.023 -4.11,4.125 -2.351,0.094 -4.308,-1.602 -4.39,-3.785 -0.083,-2.192 1.753,-4.028 4.105,-4.125" /><path
         id="path112"
         style="fill:none;stroke:#ffffff;stroke-width:5;stroke-linecap:butt;stroke-linejoin:miter;stroke-miterlimit:4;stroke-dasharray:none;stroke-opacity:1"
         d="m 126.168,837.184 c 2.344,-0.09 4.312,1.601 4.395,3.785 0.074,2.183 -1.762,4.023 -4.11,4.125 -2.351,0.094 -4.308,-1.602 -4.39,-3.785 -0.083,-2.192 1.753,-4.028 4.105,-4.125 z" /><path
         id="path114"
         style="fill:#1c4e9d;fill-opacity:1;fill-rule:nonzero;stroke:none"
         d="m 87.6328,355.676 c -5.9531,0 -11.8594,5.609 -15.7773,10.293 -0.3867,0.476 -9.6875,11.715 -8.6016,17.601 1.082,5.871 3.1719,13.887 5.0234,20.961 1.1016,4.227 2.0899,7.981 2.6133,10.395 l 9.2852,45.179 c 4.1172,20.438 5.0039,26.629 5.0039,28.215 0.0195,3.118 5.4648,66.422 6.6328,70.524 1.1016,6.832 14.0075,11.234 20.6215,11.234 2.992,0 5.222,-0.785 6.629,-2.351 1.082,-1.207 1.585,-2.793 1.406,-4.504 -0.098,-0.825 -11.293,-95.379 -12.215,-99.903 -0.184,-1.004 -0.77,-6.672 -1.613,-14.812 -8.4574,-82.016 -11.1527,-89.473 -14.2894,-91.465 -1.4024,-0.902 -2.9922,-1.367 -4.7188,-1.367 v 0" /><path
         id="path116"
         style="fill:#ffffff;fill-opacity:1;fill-rule:nonzero;stroke:none"
         d="m 112.438,573.633 c -7.829,0 -22.6138,-4.875 -24.2192,-14.594 0.0429,0.27 0.1054,0.531 0.1796,0.797 -1.6015,-5.602 -6.7656,-71.031 -6.7656,-71.52 -0.0156,-0.972 -0.5195,-5.574 -4.9375,-27.527 l -9.289,-45.168 c -0.5,-2.312 -1.4727,-6.016 -2.5586,-10.183 -1.8633,-7.141 -3.9727,-15.231 -5.0704,-21.227 -1.3007,-7.023 6.8282,-17.461 9.3477,-20.492 4.3945,-5.285 11.1719,-11.578 18.5117,-11.578 2.3672,0 4.6563,0.664 6.625,1.918 4.2891,2.73 6.6443,4.234 15.9293,94.16 0.711,6.918 1.387,13.457 1.563,14.508 0.965,4.742 12.148,99.281 12.238,100.121 0.289,2.711 -0.519,5.289 -2.289,7.257 -2.109,2.344 -5.223,3.528 -9.265,3.528 z m 0,-7.098 c 2.789,0 4.714,-0.859 4.496,-2.933 -0.301,-2.848 -11.329,-95.489 -12.161,-99.571 -0.82,-4.097 -9.4644,-100.89 -14.3238,-103.984 -0.8672,-0.555 -1.8125,-0.809 -2.8125,-0.809 -8.7851,0 -21.6758,19.387 -20.8789,23.692 1.711,9.32 6.2149,24.871 7.6016,31.261 l 9.2969,45.196 c 4.1992,20.879 5.0664,26.992 5.0742,28.886 0.0195,3.485 5.4648,66 6.4922,69.61 0.7461,4.492 11.0663,8.652 17.2153,8.652" /><path
         id="path118"
         style="fill:#1c4e9d;fill-opacity:1;fill-rule:nonzero;stroke:none"
         d="m 619.23,562.938 c 2.805,-0.567 5.481,0.96 5.981,3.417 0.492,2.45 -1.379,4.899 -4.18,5.469 -2.804,0.567 -5.48,-0.957 -5.976,-3.414 -0.5,-2.449 1.371,-4.906 4.175,-5.472" /><path
         id="path120"
         style="fill:#1c4e9d;fill-opacity:1;fill-rule:nonzero;stroke:none"
         d="m 599.922,546.344 c 2.461,-1.461 5.488,-0.895 6.766,1.261 1.277,2.157 0.316,5.083 -2.153,6.543 -2.461,1.454 -5.492,0.887 -6.765,-1.265 -1.278,-2.153 -0.309,-5.082 2.152,-6.539" /><path
         id="path122"
         style="fill:#1c4e9d;fill-opacity:1;fill-rule:nonzero;stroke:none"
         d="m 579.395,528.973 c 2.46,-1.461 5.492,-0.895 6.765,1.257 1.278,2.161 0.317,5.09 -2.152,6.543 -2.461,1.457 -5.492,0.891 -6.766,-1.265 -1.273,-2.153 -0.308,-5.082 2.153,-6.535" /><path
         id="path124"
         style="fill:#1c4e9d;fill-opacity:1;fill-rule:nonzero;stroke:none"
         d="m 1031.07,523.66 c 0,-15.988 0,-27.058 31.12,-27.058 82.09,0 100.12,35.671 100.12,118.492 0,72.57 -9.46,118.898 -94.25,118.898 -26.16,0 -36.99,-2.867 -36.99,-22.14 z m -49.605,-2.824 v 176.668 c 0,40.59 -5.969,55.758 -5.969,55.758 h 88.044 c 85.7,0 148.38,-21.317 148.38,-137.352 0,-129.562 -75.31,-138.578 -163.26,-138.578 h -70.031 l 2.836,43.504" /><path
         id="path126"
         style="fill:#1c4e9d;fill-opacity:1;fill-rule:nonzero;stroke:none"
         d="m 1373.52,610.582 c 0,9.43 -0.91,47.969 -40.15,47.969 -33.82,0 -43.29,-32.387 -43.29,-47.969 z m 41.04,-126.687 c -8.57,-2.872 -32.48,-11.075 -63.6,-11.075 -69,0 -110.49,38.129 -110.49,106.602 0,64.777 34.28,93.07 94.71,93.07 77.12,0 83.43,-50.84 83.43,-78.312 h -128.53 c 0,-41 18.49,-99.215 82.08,-99.215 18.94,0 34.73,4.094 42.4,6.965 v -18.035" /><path
         id="path128"
         style="fill:#1c4e9d;fill-opacity:1;fill-rule:nonzero;stroke:none"
         d="m 1313.19,224.824 c 0,28.699 -2.04,50.364 -2.04,50.364 l 47.14,7.445 v -24.11 l 0.9,-14.183 c 6.77,14.348 30.67,38.293 75.32,38.293 41.04,0 54.57,-26.238 54.57,-57.809 V 87.4688 h -45.1 V 193.664 c 0,32.387 0,61.09 -30.22,61.09 -29.76,0 -55.47,-26.785 -55.47,-55.895 V 87.4688 h -45.1 V 224.824" /><path
         id="path130"
         style="fill:#1c4e9d;fill-opacity:1;fill-rule:nonzero;stroke:none"
         d="m 1539.16,224.824 c 0,28.699 -2.04,50.364 -2.04,50.364 l 47.14,7.445 v -24.11 l 0.91,-14.183 c 6.76,14.348 30.66,38.293 75.31,38.293 41.04,0 54.57,-26.238 54.57,-57.809 V 87.4688 h -45.1 V 193.664 c 0,32.387 0,61.09 -30.21,61.09 -29.77,0 -55.48,-26.785 -55.48,-55.895 V 87.4688 h -45.1 V 224.824" /><path
         id="path132"
         style="fill:#1c4e9d;fill-opacity:1;fill-rule:nonzero;stroke:none"
         d="m 1459.17,615.848 c 0,28.695 -2.04,50.359 -2.04,50.359 l 47.14,7.445 v -24.109 l 0.9,-14.184 c 6.76,14.352 30.67,38.293 75.32,38.293 41.04,0 54.57,-26.238 54.57,-57.804 V 478.492 h -45.1 v 106.192 c 0,32.386 0,61.089 -30.22,61.089 -29.76,0 -55.47,-26.781 -55.47,-55.894 V 478.492 h -45.1 v 137.356" /><path
         id="path134"
         style="fill:#1c4e9d;fill-opacity:1;fill-rule:nonzero;stroke:none"
         d="m 1784.97,614.172 c 0,28.695 -2.04,50.359 -2.04,50.359 l 47.14,7.449 v -24.113 l 0.91,-14.183 c 6.76,14.351 30.67,38.296 75.31,38.296 41.06,0 54.6,-26.242 54.6,-57.808 V 476.816 h -45.13 v 106.192 c 0,32.39 0,61.09 -30.21,61.09 -29.77,0 -55.48,-26.782 -55.48,-55.895 V 476.816 h -45.1 v 137.356" /><path
         id="path136"
         style="fill:#1c4e9d;fill-opacity:1;fill-rule:nonzero;stroke:none"
         d="m 3207.21,224.172 c 0,28.695 -2.04,50.359 -2.04,50.359 l 47.13,7.449 v -24.113 l 0.9,-14.183 c 6.77,14.351 30.68,38.296 75.33,38.296 41.04,0 54.58,-26.242 54.58,-57.808 V 86.8203 h -45.12 V 193.008 c 0,32.39 0,61.09 -30.22,61.09 -29.76,0 -55.47,-26.782 -55.47,-55.891 V 86.8203 h -45.09 V 224.172" /><path
         id="path138"
         style="fill:#1c4e9d;fill-opacity:1;fill-rule:nonzero;stroke:none"
         d="m 3532.38,223.344 c 0,28.695 -2.04,50.359 -2.04,50.359 l 47.14,7.445 v -24.109 l 0.9,-14.187 c 6.77,14.351 30.67,38.296 75.32,38.296 41.05,0 54.58,-26.238 54.58,-57.804 V 85.9883 h -45.12 V 192.18 c 0,32.386 0,61.09 -30.21,61.09 -29.77,0 -55.47,-26.786 -55.47,-55.895 V 85.9883 h -45.1 V 223.344" /><path
         id="path140"
         style="fill:#1c4e9d;fill-opacity:1;fill-rule:nonzero;stroke:none"
         d="m 2097.12,486.758 c 44.2,0 47.81,44.695 47.81,85.695 0,37.719 -4.06,86.098 -47.81,86.098 -44.65,0 -47.8,-50.02 -47.8,-86.098 0,-34.031 3.15,-85.695 47.8,-85.695 z m -97.41,85.695 c 0,68.473 31.57,100.039 97.41,100.039 65.4,0 97.42,-41 97.42,-100.039 0,-66.832 -30.67,-99.633 -97.42,-99.633 -72.61,0 -97.41,42.231 -97.41,99.633" /><path
         id="path142"
         style="fill:#1c4e9d;fill-opacity:1;fill-rule:nonzero;stroke:none"
         d="m 2232.92,665.047 46.74,7.445 v -31.426 l 0.91,-11.347 c 6.31,18.863 20.29,42.773 56.37,42.773 8.12,0 16.68,-0.82 24.35,-2.051 v -38.949 c -7.21,2.051 -15.33,4.922 -23,4.922 -45.55,0 -58.63,-32.394 -58.63,-61.09 v -97.992 h -45.1 v 148.699" /><path
         id="path144"
         style="fill:#1c4e9d;fill-opacity:1;fill-rule:nonzero;stroke:none"
         d="m 2849.11,275.047 46.74,7.445 v -31.426 l 0.91,-11.347 c 6.31,18.863 20.29,42.773 56.37,42.773 8.12,0 16.68,-0.82 24.35,-2.051 v -38.949 c -7.21,2.051 -15.33,4.922 -23,4.922 -45.54,0 -58.63,-32.394 -58.63,-61.09 V 87.332 h -45.1 v 148.699" /><path
         id="path146"
         style="fill:#1c4e9d;fill-opacity:1;fill-rule:nonzero;stroke:none"
         d="m 2505.44,634.773 c -6.77,4.102 -28.42,19.676 -53.67,19.676 -14.44,0 -31.57,-4.918 -31.57,-22.547 0,-38.953 98.76,-39.769 98.76,-102.5 0,-40.183 -36.53,-56.582 -81.18,-56.582 -27.51,0 -47.35,4.922 -57.72,7.383 v 31.977 c 13.07,-8.2 34.28,-21.321 59.53,-21.321 28.41,0 38.79,13.121 38.79,27.473 0,40.18 -98.77,42.641 -98.77,99.219 0,29.519 22.1,54.941 75.31,54.941 23,0 42.85,-5.328 50.52,-6.969 v -30.75" /><path
         id="path148"
         style="fill:#1c4e9d;fill-opacity:1;fill-rule:nonzero;stroke:none"
         d="m 2551.5,754.086 47.71,10.246 -1.42,-178.758 87.95,82.406 h 34.28 l -80.28,-74.21 98.77,-116.438 h -57.28 l -82.54,102.91 h -0.9 V 477.332 H 2552.7 V 708.57" /><path
         id="path150"
         style="fill:#1c4e9d;fill-opacity:1;fill-rule:nonzero;stroke:none"
         d="m 2868.6,610.582 c 0,9.43 -0.9,47.969 -40.13,47.969 -33.83,0 -43.3,-32.387 -43.3,-47.969 z m 41.04,-126.687 c -8.57,-2.872 -32.47,-11.075 -63.59,-11.075 -69,0 -110.49,38.129 -110.49,106.602 0,64.777 34.27,93.07 94.7,93.07 77.13,0 83.44,-50.84 83.44,-78.312 h -128.53 c 0,-41 18.49,-99.215 82.08,-99.215 18.94,0 34.72,4.094 42.39,6.965 v -18.035" /><path
         id="path152"
         style="fill:#1c4e9d;fill-opacity:1;fill-rule:nonzero;stroke:none"
         d="m 1087,86.1016 c -9.92,-1.6407 -20.3,-3.2813 -30.22,-3.2813 -43.29,0 -68.553,6.1485 -68.553,52.8907 v 125.875 h -35.176 v 16.394 h 35.176 v 49.415 l 45.103,10.957 V 277.98 h 59.08 v -16.394 h -59.08 V 142.27 c 0,-28.7 2.26,-41.411 36.98,-41.411 5.41,0 11.28,0.411 16.69,1.641 V 86.1016" /><path
         id="path154"
         style="fill:#1c4e9d;fill-opacity:1;fill-rule:nonzero;stroke:none"
         d="m 1221.52,178.352 c -16.23,-0.411 -69,-2.461 -69,-41.411 0,-18.859 10.38,-31.98 27.06,-31.98 26.16,0 41.94,21.73 41.94,49.609 z m 0,-66.832 c -8.12,-8.61 -23.45,-28.6997 -58.18,-28.6997 -35.18,0 -60.43,22.9607 -60.43,47.1487 0,57.812 89.75,62.324 118.61,63.144 v 20.907 c 0,25.832 0,54.531 -28.41,54.531 -29.77,0 -31.57,-23.778 -31.57,-41.821 h -53.67 c 4.96,27.063 19.84,55.762 84.79,55.762 64.04,0 73.97,-29.933 73.97,-70.523 V 87.332 h -45.11 v 24.188" /><path
         id="path156"
         style="fill:#1c4e9d;fill-opacity:1;fill-rule:nonzero;stroke:none"
         d="m 1770.63,364.086 45.33,10.246 v -287 h -45.1 v 239.75" /><path
         id="path158"
         style="fill:#1c4e9d;fill-opacity:1;fill-rule:nonzero;stroke:none"
         d="m 1988.22,220.582 c 0,9.43 -0.91,47.969 -40.13,47.969 -33.84,0 -43.33,-32.387 -43.33,-47.969 z m 41.04,-126.6914 c -8.57,-2.8711 -32.47,-11.0703 -63.59,-11.0703 -69.03,0 -110.52,38.1287 -110.52,106.6017 0,64.777 34.28,93.07 94.73,93.07 77.13,0 83.44,-50.84 83.44,-78.312 h -128.56 c 0,-41 18.52,-99.219 82.11,-99.219 18.94,0 34.72,4.098 42.39,6.969 V 93.8906" /><path
         id="path160"
         style="fill:#1c4e9d;fill-opacity:1;fill-rule:nonzero;stroke:none"
         d="m 2197.87,208.691 c 0,25.832 -14.43,51.661 -42.4,51.661 -41.04,0 -45.1,-46.332 -45.1,-76.258 0,-29.114 4.51,-74.625 41.5,-74.625 38.78,0 46,36.082 46,58.633 z m 45.1,31.981 V 81.1797 C 2242.97,38.9492 2234.39,0 2155.47,0 2100,0 2061.21,11.4805 2061.21,57.3984 h 50.97 c 0,-17.2187 5.86,-43.457 41.94,-43.457 43.75,0 43.75,31.5703 43.75,54.1172 v 47.9724 h -0.91 c -8.11,-12.301 -20.29,-28.699 -56.82,-28.699 -56.83,0 -79.38,43.047 -79.38,91.02 0,52.89 17.59,104.14 79.83,104.14 32.47,0 48.71,-17.222 56.37,-28.293 h 0.91 v 23.781 h 46.74" /><path
         id="path162"
         style="fill:#1c4e9d;fill-opacity:1;fill-rule:nonzero;stroke:none"
         d="m 2413.65,220.582 c 0,9.43 -0.91,47.969 -40.13,47.969 -33.83,0 -43.31,-32.387 -43.31,-47.969 z m 41.04,-126.6914 c -8.57,-2.8711 -32.47,-11.0703 -63.59,-11.0703 -69,0 -110.49,38.1287 -110.49,106.6017 0,64.777 34.27,93.07 94.7,93.07 77.13,0 83.44,-50.84 83.44,-78.312 h -128.54 c 0,-41 18.5,-99.219 82.08,-99.219 18.95,0 34.73,4.098 42.4,6.969 V 93.8906" /><path
         id="path164"
         style="fill:#1c4e9d;fill-opacity:1;fill-rule:nonzero;stroke:none"
         d="m 2510.42,261.586 h -36.53 v 16.394 h 36.53 v 27.469 c 0,32.805 15.78,68.883 69.9,68.883 57.74,0 77.58,-18.445 82.54,-48.379 h -50.52 c -0.45,14.762 -6.3,34.438 -28.85,34.438 -26.17,0 -27.97,-26.239 -27.97,-45.508 V 277.98 h 59.99 v -16.394 h -59.99 V 87.332 h -45.1 v 174.254" /><path
         id="path166"
         style="fill:#1c4e9d;fill-opacity:1;fill-rule:nonzero;stroke:none"
         d="m 2719.57,96.7617 c 44.2,0 47.81,44.6873 47.81,85.6913 0,37.719 -4.06,86.098 -47.81,86.098 -44.65,0 -47.8,-50.02 -47.8,-86.098 0,-34.031 3.15,-85.6913 47.8,-85.6913 z m -97.41,85.6913 c 0,68.473 31.57,100.039 97.41,100.039 65.4,0 97.42,-41 97.42,-100.039 0,-66.832 -30.67,-99.6327 -97.42,-99.6327 -72.61,0 -97.41,42.2307 -97.41,99.6327" /><path
         id="path168"
         style="fill:#1c4e9d;fill-opacity:1;fill-rule:nonzero;stroke:none"
         d="m 3121.26,220.582 c 0,9.43 -0.91,47.969 -40.14,47.969 -33.83,0 -43.3,-32.387 -43.3,-47.969 z m 41.03,-126.6914 c -8.56,-2.8711 -32.47,-11.0703 -63.58,-11.0703 -69,0 -110.5,38.1287 -110.5,106.6017 0,64.777 34.28,93.07 94.71,93.07 77.13,0 83.44,-50.84 83.44,-78.312 h -128.54 c 0,-41 18.5,-99.219 82.08,-99.219 18.95,0 34.73,4.098 42.39,6.969 V 93.8906" /><path
         id="path170"
         style="fill:#1c4e9d;fill-opacity:1;fill-rule:nonzero;stroke:none"
         d="m 3430.72,332.203 c 0,13.942 12.63,25.422 28.42,25.422 15.33,0 28.86,-11.07 28.86,-25.422 0,-14.351 -13.53,-25.828 -29.32,-25.828 -15.33,0 -27.96,11.477 -27.96,25.828 z m 4.22,-57.156 45.84,7.445 V 87.332 h -45.1 v 137.352" /><path
         id="path172"
         style="fill:#1c4e9d;fill-opacity:1;fill-rule:nonzero;stroke:none"
         d="m 3884.79,208.691 c 0,25.832 -14.43,51.661 -42.4,51.661 -41.03,0 -45.1,-46.332 -45.1,-76.258 0,-29.114 4.52,-74.625 41.5,-74.625 38.79,0 46,36.082 46,58.633 z m 45.1,31.981 V 81.1797 C 3929.89,38.9492 3921.32,0 3842.39,0 c -55.47,0 -94.26,11.4805 -94.26,57.3984 h 50.97 c 0,-17.2187 5.86,-43.457 41.94,-43.457 43.75,0 43.75,31.5703 43.75,54.1172 v 47.9724 h -0.9 c -8.12,-12.301 -20.3,-28.699 -56.83,-28.699 -56.83,0 -79.37,43.047 -79.37,91.02 0,52.89 17.58,104.14 79.82,104.14 32.47,0 48.71,-17.222 56.38,-28.293 h 0.9 v 23.781 h 46.74" /><path
         id="path174"
         style="fill:#1c4e9d;fill-opacity:1;fill-rule:nonzero;stroke:none"
         d="m 128.164,703.27 c 0.856,6.14 19.656,75.394 19.063,81.25 -0.84,8.265 -18.274,34.519 -18.274,34.519 l 16.723,15.156 c 0,0 27.562,-29.968 28.113,-43.425 0.625,-15.313 -16.148,-55.473 -25,-95 -11.199,3.875 -10.406,5.382 -20.625,7.5" /><path
         id="path176"
         style="fill:#ffffff;fill-opacity:1;fill-rule:nonzero;stroke:none"
         d="m 266.734,783.051 c 0,0 -18.921,35.457 -22.132,45.902 -5.817,18.875 10.586,37.363 21.644,41.016 15.031,-29.793 15.125,-32.926 21.527,-46.875 2.61,-5.664 0.274,-31.125 -21.039,-40.043" /><path
         id="path178"
         style="fill:none;stroke:#1c4e9d;stroke-width:10;stroke-linecap:butt;stroke-linejoin:miter;stroke-miterlimit:4;stroke-dasharray:none;stroke-opacity:1"
         d="m 266.734,783.051 c 0,0 -18.921,35.457 -22.132,45.902 -5.817,18.875 10.586,37.363 21.644,41.016 15.031,-29.793 15.125,-32.926 21.527,-46.875 2.61,-5.664 0.274,-31.125 -21.039,-40.043 z" /><path
         id="path180"
         style="fill:#ffffff;fill-opacity:1;fill-rule:nonzero;stroke:none"
         d="m 237.75,746.887 c 0,0 -10.266,30.133 -12.176,39.609 -5.711,28.348 21.637,42.723 19.106,42.137 12.941,-24.067 16.761,-36.129 21.3,-48.934 1.848,-5.195 -2.734,-26.371 -28.23,-32.812" /><path
         id="path182"
         style="fill:none;stroke:#1c4e9d;stroke-width:10;stroke-linecap:butt;stroke-linejoin:miter;stroke-miterlimit:4;stroke-dasharray:none;stroke-opacity:1"
         d="m 237.75,746.887 c 0,0 -10.266,30.133 -12.176,39.609 -5.711,28.348 21.637,42.723 19.106,42.137 12.941,-24.067 16.761,-36.129 21.3,-48.934 1.848,-5.195 -2.734,-26.371 -28.23,-32.812 z" /><path
         id="path184"
         style="fill:#ffffff;fill-opacity:1;fill-rule:nonzero;stroke:none"
         d="m 207.395,731.918 c 0,0 -4.457,12.723 -3.481,26.668 1.012,14.414 13.59,27.816 20.719,30.027 9.887,-19.675 11.09,-27.636 9.344,-38.617 -2.262,-14.144 -29.989,-17.312 -26.582,-18.078" /><path
         id="path186"
         style="fill:none;stroke:#1c4e9d;stroke-width:10;stroke-linecap:butt;stroke-linejoin:miter;stroke-miterlimit:4;stroke-dasharray:none;stroke-opacity:1"
         d="m 207.395,731.918 c 0,0 -4.457,12.723 -3.481,26.668 1.012,14.414 13.59,27.816 20.719,30.027 9.887,-19.675 11.09,-27.636 9.344,-38.617 -2.262,-14.144 -29.989,-17.312 -26.582,-18.078 z" /><path
         id="path188"
         style="fill:#ffffff;fill-opacity:1;fill-rule:nonzero;stroke:none"
         d="m 286.395,830.66 c 0,0 -15.875,31.918 -18.415,43.672 -4.589,21.25 9.665,44.242 20.497,47.578 14.996,-29.586 14.996,-33.75 20.414,-49.586 2.203,-6.429 -1.993,-38.402 -22.496,-41.664" /><path
         id="path190"
         style="fill:none;stroke:#1c4e9d;stroke-width:10;stroke-linecap:butt;stroke-linejoin:miter;stroke-miterlimit:4;stroke-dasharray:none;stroke-opacity:1"
         d="m 286.395,830.66 c 0,0 -15.875,31.918 -18.415,43.672 -4.589,21.25 9.665,44.242 20.497,47.578 14.996,-29.586 14.996,-33.75 20.414,-49.586 2.203,-6.429 -1.993,-38.402 -22.496,-41.664 z" /><path
         id="path192"
         style="fill:#ffffff;fill-opacity:1;fill-rule:nonzero;stroke:none"
         d="m 306.016,881.523 c 0,0 -17.203,36.911 -19.254,48.762 -3.703,21.422 8.801,43.711 23.718,45.543 13.754,-30.183 14.071,-34.707 18.833,-50.754 1.933,-6.519 4.554,-35.527 -23.297,-43.551" /><path
         id="path194"
         style="fill:none;stroke:#1c4e9d;stroke-width:10;stroke-linecap:butt;stroke-linejoin:miter;stroke-miterlimit:4;stroke-dasharray:none;stroke-opacity:1"
         d="m 306.016,881.523 c 0,0 -17.203,36.911 -19.254,48.762 -3.703,21.422 8.801,43.711 23.718,45.543 13.754,-30.183 14.071,-34.707 18.833,-50.754 1.933,-6.519 4.554,-35.527 -23.297,-43.551 z" /><path
         id="path196"
         style="fill:#ffffff;fill-opacity:1;fill-rule:nonzero;stroke:none"
         d="m 329.68,924.836 c 0,0 -15.692,37.148 -16.203,49.16 -0.926,21.719 15.007,33.134 26.25,34.584 9.765,-31.697 9.164,-29.998 13.336,-46.67 1.648,-6.59 5.273,-32.691 -23.383,-37.074" /><path
         id="path198"
         style="fill:none;stroke:#1c4e9d;stroke-width:10;stroke-linecap:butt;stroke-linejoin:miter;stroke-miterlimit:4;stroke-dasharray:none;stroke-opacity:1"
         d="m 329.68,924.836 c 0,0 -15.692,37.148 -16.203,49.16 -0.926,21.719 15.007,33.134 26.25,34.584 9.765,-31.697 9.164,-29.998 13.336,-46.67 1.648,-6.59 5.273,-32.691 -23.383,-37.074 z" /><path
         id="path200"
         style="fill:#ffffff;fill-opacity:1;fill-rule:nonzero;stroke:none"
         d="m 380.563,986.91 c 0,0 -6.723,34.35 -7.922,43.34 -1.664,12.5 16.25,20.41 29.172,13.33 2.25,-15.42 4.164,-20.42 5,-29.58 0.468,-5.12 -9.172,-23.34 -26.25,-27.09" /><path
         id="path202"
         style="fill:none;stroke:#1c4e9d;stroke-width:10;stroke-linecap:butt;stroke-linejoin:miter;stroke-miterlimit:4;stroke-dasharray:none;stroke-opacity:1"
         d="m 380.563,986.91 c 0,0 -6.723,34.35 -7.922,43.34 -1.664,12.5 16.25,20.41 29.172,13.33 2.25,-15.42 4.164,-20.42 5,-29.58 0.468,-5.12 -9.172,-23.34 -26.25,-27.09 z" /><path
         id="path204"
         style="fill:#ffffff;fill-opacity:1;fill-rule:nonzero;stroke:none"
         d="m 353.785,966.324 c 0,0 -11.992,31.125 -12.691,40.706 -1.254,17.3 17.152,27.71 27.383,28.63 7.5,-30.83 7.5,-30 10,-42.5 1.605,-8.023 1.429,-23.922 -24.692,-26.836" /><path
         id="path206"
         style="fill:none;stroke:#1c4e9d;stroke-width:10;stroke-linecap:butt;stroke-linejoin:miter;stroke-miterlimit:4;stroke-dasharray:none;stroke-opacity:1"
         d="m 353.785,966.324 c 0,0 -11.992,31.125 -12.691,40.706 -1.254,17.3 17.152,27.71 27.383,28.63 7.5,-30.83 7.5,-30 10,-42.5 1.605,-8.023 1.429,-23.922 -24.692,-26.836 z" /><path
         id="path208"
         style="fill:#ffffff;fill-opacity:1;fill-rule:nonzero;stroke:none"
         d="m 161.492,288.832 c -0.59,-17.164 -8.941,-45.73 -17.406,-61.32 -11.859,-21.852 -17.555,-29.371 -30.195,-41.852 -12.934,-12.769 -24.9847,-5.762 -36.6644,4.528 -10,8.808 -21.6641,34.5 -29.1641,57 -7.5898,22.765 -6.3047,23.894 -9.1797,33.203 -5.918,22.55 -10.8203,53.605 -7.1562,67.218 6.9336,-22.629 31.457,-99.961 61.1445,-117.961 21.4689,-13.847 56.6839,15.102 68.4059,67.215 l 0.215,-8.031" /><path
         id="path210"
         style="fill:#1c4e9d;fill-opacity:1;fill-rule:nonzero;stroke:none"
         d="m 597.742,323.77 6.153,48.562 19.015,22.813 c 0,0 33.336,31.531 26.567,37.976 -14.774,14.074 -59.512,-27.719 -59.512,-27.719" /><path
         id="path212"
         style="fill:none;stroke:#1c4e9d;stroke-width:9.15499973;stroke-linecap:butt;stroke-linejoin:miter;stroke-miterlimit:4;stroke-dasharray:none;stroke-opacity:1"
         d="m 371.254,756.68 c 17.641,-13.657 80.621,-27.532 108.273,-29.469 33.95,-2.379 45.539,-5.691 55.067,-10.559 7.633,-3.902 12.633,-9.32 15.133,-13.07" /><path
         id="path214"
         style="fill:none;stroke:#1c4e9d;stroke-width:6.99012995;stroke-linecap:butt;stroke-linejoin:miter;stroke-miterlimit:4;stroke-dasharray:none;stroke-opacity:1"
         d="m 111.516,960.859 c 0,0 0.746,-5.472 2.488,-15.984 0.777,-4.687 2.336,-9.613 1.133,-17.281 -4.668,-5.571 -7.957,-16.512 -8.25,-27.067 -0.199,-3.007 0.293,-9.656 5.371,-10.711 8.57,-2.089 13.445,1.629 18.816,1.477 5.86,-0.184 8.074,-2.727 13.762,-4.113 7.676,-1.867 12.273,2.851 13.211,10.058 1.308,10.102 -3.594,25.621 -6.543,29.75 0.492,13.832 5.383,30.09 6.262,32.852 -1.25,1.738 -5.422,2.109 -11.047,-1.949 -5.02,-2.887 -11.414,-16.043 -12.625,-16.637 -1.418,0.715 -7.246,14.176 -13.379,18.383 -2.524,1.726 -4.414,2.543 -9.199,1.222 z" /></g></g></svg>