<?xml version="1.0" encoding="UTF-8" standalone="no"?>
<svg
   xmlns:dc="http://purl.org/dc/elements/1.1/"
   xmlns:cc="http://creativecommons.org/ns#"
   xmlns:rdf="http://www.w3.org/1999/02/22-rdf-syntax-ns#"
   xmlns:svg="http://www.w3.org/2000/svg"
   xmlns="http://www.w3.org/2000/svg"
   viewBox="0 0 816.8667 292.94666"
   height="292.94666"
   width="816.8667"
   xml:space="preserve"
   id="svg2"
   version="1.1"><metadata
     id="metadata8"><rdf:RDF><cc:Work
         rdf:about=""><dc:format>image/svg+xml</dc:format><dc:type
           rdf:resource="http://purl.org/dc/dcmitype/StillImage" /></cc:Work></rdf:RDF></metadata><defs
     id="defs6" /><g
     transform="matrix(1.3333333,0,0,-1.3333333,0,292.94667)"
     id="g10"><g
       transform="scale(0.1)"
       id="g12"><path
         id="path14"
         style="fill:#231f20;fill-opacity:1;fill-rule:nonzero;stroke:none"
         d="m 1856.46,556.301 h -48.6 V 770.66 h 48.6 c 67.7,0 106.32,-52.93 106.32,-107.18 0,-54.238 -38.62,-107.179 -106.32,-107.179 z m 0,259.07 h -98.49 v -303.75 h 98.49 c 100.68,0 157.52,75.059 157.52,151.859 0,76.809 -56.84,151.891 -157.52,151.891" /><path
         id="path16"
         style="fill:#231f20;fill-opacity:1;fill-rule:nonzero;stroke:none"
         d="m 2239.57,556.301 h -125.41 v 83.75 h 125.41 v 44.687 h -125.41 v 85.922 h 125.41 v 44.711 h -175.3 v -303.75 h 175.3 v 44.68" /><path
         id="path18"
         style="fill:#231f20;fill-opacity:1;fill-rule:nonzero;stroke:none"
         d="m 2352.8,727.711 120.19,-216.09 h 54.67 v 303.75 h -49.89 V 599.27 l -120.21,216.101 h -54.66 v -303.75 h 49.9 v 216.09" /><path
         id="path20"
         style="fill:#231f20;fill-opacity:1;fill-rule:nonzero;stroke:none"
         d="m 2891.62,599.27 -120.2,216.101 h -54.68 v -303.75 h 49.91 v 216.09 l 120.19,-216.09 h 54.67 v 303.75 h -49.89 V 599.27" /><path
         id="path22"
         style="fill:#231f20;fill-opacity:1;fill-rule:nonzero;stroke:none"
         d="m 3148.89,548.93 c -64.65,0 -104.58,55.539 -104.58,114.55 0,59.02 39.93,114.551 104.58,114.551 64.65,0 104.57,-55.531 104.57,-114.551 0,-59.011 -39.92,-114.55 -104.57,-114.55 z m 0,273.8 c -97.64,0 -157.09,-76.8 -157.09,-159.25 0,-82.441 59.45,-159.25 157.09,-159.25 97.62,0 157.08,76.809 157.08,159.25 0,82.45 -59.46,159.25 -157.08,159.25" /><path
         id="path24"
         style="fill:#231f20;fill-opacity:1;fill-rule:nonzero;stroke:none"
         d="m 3406.15,770.66 h 59.03 c 34.7,0 57.26,-28.199 57.26,-61.609 0,-33.41 -22.56,-61.61 -57.26,-61.61 h -59.03 z m 0,-167.922 h 49.91 l 55.53,-91.117 h 56.86 l -60.32,98.918 c 39.92,16.5 64.22,55.121 64.22,98.512 0,57.269 -42.1,106.32 -107.17,106.32 h -108.92 v -303.75 h 49.89 v 91.117" /><path
         id="path26"
         style="fill:#231f20;fill-opacity:1;fill-rule:nonzero;stroke:none"
         d="m 3817.91,599.699 c 0,58.153 -56.84,78.11 -104.14,95.02 -22.57,8.25 -44.27,19.961 -44.27,44.703 0,25.609 20.82,38.609 45.56,38.609 28.21,0 45.57,-20.39 45.57,-50.32 h 49.9 c 0,56.398 -42.09,95.019 -96.76,95.019 -50.78,0 -94.16,-32.968 -94.16,-83.308 0,-60.742 44.69,-77.672 100.22,-97.203 20.83,-7.367 48.17,-17.36 48.17,-48.16 0,-27.34 -22.13,-45.129 -49.9,-45.129 -34.28,0 -59.02,22.57 -59.02,62.039 h -49.89 c 0,-68.11 49.46,-106.739 104.58,-106.739 56.4,0 104.14,32.989 104.14,95.469" /><path
         id="path28"
         style="fill:#231f20;fill-opacity:1;fill-rule:nonzero;stroke:none"
         d="m 3921.57,644.832 112.82,-133.211 h 62.49 l -128.45,151.859 128.45,151.891 h -62.49 L 3921.57,681.719 v 133.652 h -49.9 v -303.75 h 49.9 v 133.211" /><path
         id="path30"
         style="fill:#231f20;fill-opacity:1;fill-rule:nonzero;stroke:none"
         d="m 4312.49,556.301 h -125.4 v 83.75 h 125.4 v 44.687 h -125.4 v 85.922 h 125.4 v 44.711 H 4137.2 v -303.75 h 175.29 v 44.68" /><path
         id="path32"
         style="fill:#231f20;fill-opacity:1;fill-rule:nonzero;stroke:none"
         d="m 1849.95,90.25 -70.28,220.859 h -52.51 L 1832.17,7.37891 h 35.14 L 1972.32,311.109 h -52.51 L 1849.95,90.25" /><path
         id="path34"
         style="fill:#231f20;fill-opacity:1;fill-rule:nonzero;stroke:none"
         d="m 2007,7.37891 h 175.3 V 52.0703 H 2056.9 V 135.82 h 125.4 v 44.68 h -125.4 v 85.922 h 125.4 v 44.687 H 2007 V 7.37891" /><path
         id="path36"
         style="fill:#231f20;fill-opacity:1;fill-rule:nonzero;stroke:none"
         d="m 2218.29,266.422 h 75.06 V 7.37891 h 49.91 V 266.422 h 75.5 v 44.687 h -200.47 v -44.687" /><path
         id="path38"
         style="fill:#231f20;fill-opacity:1;fill-rule:nonzero;stroke:none"
         d="m 2456.91,7.37891 h 175.3 V 52.0703 H 2506.82 V 135.82 h 125.39 v 44.68 h -125.39 v 85.922 h 125.39 v 44.687 h -175.3 V 7.37891" /><path
         id="path40"
         style="fill:#231f20;fill-opacity:1;fill-rule:nonzero;stroke:none"
         d="m 2804.43,143.199 h -58.99 v 123.223 h 58.99 c 34.72,0 57.29,-28.192 57.29,-61.613 0,-33.411 -22.57,-61.61 -57.29,-61.61 z m 107.19,61.61 c 0,57.281 -42.09,106.3 -107.19,106.3 h -108.9 V 7.37891 h 49.91 V 98.5 h 49.89 l 55.54,-91.12109 h 56.85 L 2847.4,106.309 c 39.92,16.492 64.22,55.113 64.22,98.5" /><path
         id="path42"
         style="fill:#231f20;fill-opacity:1;fill-rule:nonzero;stroke:none"
         d="m 2961.93,7.37891 h 51.64 V 311.109 h -51.64 V 7.37891" /><path
         id="path44"
         style="fill:#231f20;fill-opacity:1;fill-rule:nonzero;stroke:none"
         d="M 3253.95,95.0391 3133.74,311.109 h -54.67 V 7.37891 h 49.91 V 223.469 L 3249.17,7.37891 h 54.67 V 311.109 h -49.89 V 95.0391" /><path
         id="path46"
         style="fill:#231f20;fill-opacity:1;fill-rule:nonzero;stroke:none"
         d="m 3511.63,91.1289 h -81.57 L 3511.63,264.25 Z M 3336.34,7.37891 h 54.23 l 18.23,39.05079 h 102.83 V 7.37891 h 175.31 V 52.0703 H 3561.53 V 135.82 h 125.41 v 44.68 h -125.41 v 85.922 h 125.41 v 44.687 H 3483.86 L 3336.34,7.37891" /><path
         id="path48"
         style="fill:#231f20;fill-opacity:1;fill-rule:nonzero;stroke:none"
         d="m 3859.16,143.199 h -59.02 v 123.223 h 59.02 c 34.72,0 57.28,-28.192 57.28,-61.613 0,-33.411 -22.56,-61.61 -57.28,-61.61 z m 107.18,61.61 c 0,57.281 -42.09,106.3 -107.18,106.3 H 3750.24 V 7.37891 h 49.9 V 98.5 h 49.91 l 55.54,-91.12109 h 56.84 l -60.32,98.93009 c 39.93,16.492 64.23,55.113 64.23,98.5" /><path
         id="path50"
         style="fill:#231f20;fill-opacity:1;fill-rule:nonzero;stroke:none"
         d="m 4016.63,7.37891 h 49.89 V 125.41 h 125.4 v 44.68 h -125.4 v 96.332 h 125.4 v 44.687 H 4016.63 V 7.37891" /><path
         id="path52"
         style="fill:#231f20;fill-opacity:1;fill-rule:nonzero;stroke:none"
         d="m 4394.11,44.6914 c -64.65,0 -104.57,55.5386 -104.57,114.5506 0,59.02 39.92,114.559 104.57,114.559 64.65,0 104.58,-55.539 104.58,-114.559 0,-59.012 -39.93,-114.5506 -104.58,-114.5506 z m 0,273.7966 c -97.63,0 -157.08,-76.797 -157.08,-159.246 C 4237.03,76.8008 4296.48,0 4394.11,0 c 97.64,0 157.08,76.8008 157.08,159.242 0,82.449 -59.44,159.246 -157.08,159.246" /><path
         id="path54"
         style="fill:#231f20;fill-opacity:1;fill-rule:nonzero;stroke:none"
         d="m 4710.38,143.199 h -59 v 123.223 h 59 c 34.71,0 57.28,-28.192 57.28,-61.613 0,-33.411 -22.57,-61.61 -57.28,-61.61 z m 107.19,61.61 c 0,57.281 -42.09,106.3 -107.19,106.3 h -108.9 V 7.37891 h 49.9 V 98.5 h 49.89 l 55.54,-91.12109 h 56.85 l -60.32,98.93009 c 39.92,16.492 64.23,55.113 64.23,98.5" /><path
         id="path56"
         style="fill:#231f20;fill-opacity:1;fill-rule:nonzero;stroke:none"
         d="m 4867.86,7.37891 h 175.29 V 52.0703 H 4917.76 V 135.82 h 125.39 v 44.68 h -125.39 v 85.922 h 125.39 v 44.687 H 4867.86 V 7.37891" /><path
         id="path58"
         style="fill:#231f20;fill-opacity:1;fill-rule:nonzero;stroke:none"
         d="m 5281.35,95.0391 -120.2,216.0699 h -54.67 V 7.37891 h 49.9 V 223.469 L 5276.58,7.37891 h 54.67 V 311.109 h -49.9 V 95.0391" /><path
         id="path60"
         style="fill:#231f20;fill-opacity:1;fill-rule:nonzero;stroke:none"
         d="m 5396.73,7.37891 h 51.64 V 311.109 h -51.64 V 7.37891" /><path
         id="path62"
         style="fill:#231f20;fill-opacity:1;fill-rule:nonzero;stroke:none"
         d="M 5688.74,95.0391 5568.55,311.109 h -54.67 V 7.37891 h 49.89 V 223.469 L 5683.98,7.37891 h 54.66 V 311.109 h -49.9 V 95.0391" /><path
         id="path64"
         style="fill:#231f20;fill-opacity:1;fill-rule:nonzero;stroke:none"
         d="m 5982.03,159.68 v -44.688 h 58.15 c -6.08,-37.3201 -36.9,-70.3006 -88.53,-70.3006 -75.06,0 -111.5,55.1094 -111.5,114.5506 0,59.457 39.91,114.559 105,114.559 42.09,0 73.77,-23.86 78.96,-53.801 h 50.34 c -4.77,53.801 -57.7,98.488 -129.3,98.488 -95.9,0 -156.21,-76.797 -156.21,-159.246 C 5788.94,76.8008 5845.78,0 5945.15,0 c 84.18,0 134.51,46.8711 147.97,114.992 h 33.4 v 44.688 h -144.49" /><path
         id="path66"
         style="fill:#231f20;fill-opacity:1;fill-rule:nonzero;stroke:none"
         d="M 983.027,1276.87 615.188,343.852 v 317.207 l 216.566,541.961 -65.18,26.1 -151.386,-378.198 v 526.308 l 367.839,-0.05 z M 702.18,1631.71 h 65.031 v -92.56 h 44.703 v 136.51 H 702.18 v 49.61 h 193.086 v -49.61 h -52.664 v -43.95 h 52.664 V 1447.45 H 702.18 Z m 0,272.11 70.984,140.45 0.012,-245.78 H 702.18 Z m 122.875,140.45 70.211,-140.45 v -105.33 h -70.211 z m 514.905,-436.38 38.63,98 25.75,65.31 -65.33,25.76 v -0.01 l -65.31,25.75 v 0.01 l -65.33,25.75 -25.75,-65.32 -132.34,-335.69 h -84.792 v 473.97 l -168.57,275.7 -164.965,-275.74 V 1447.41 H 544.984 V 991.031 H 456.41 L 315.977,1113.92 473.965,1236.8 v 87.72 H 193.102 v 87.76 l 140.425,77.58 v 57.54 l -140.425,-77.29 v 170.38 h -52.661 v -93.28 L 35.0977,1605.39 V 1548.1 L 140.441,1489.39 V 1324.52 H 0 v -52.61 H 70.2148 V 569.68 L 209.938,464.359 V 7.99219 H 280.16 V 517.02 L 140.426,622.352 v 631.998 h 228.211 v -17.59 L 210.648,1113.92 421.301,920.789 H 544.984 V 517.02 L 351.09,517.039 V 7.94922 h 69.512 V 446.789 l 124.382,-0.008 V 7.99219 h 70.204 V 150.379 L 983.027,1084.58 V 7.99219 h 70.223 V 446.789 h 140.44 V 7.94922 h 70.21 V 517.02 h -210.65 v 403.769 h 157.99 L 1334.12,780.34 1334.13,7.94922 h 70.21 l -0.01,807.49178 -157.98,175.59 h -193.1 v 271.909 l 194.69,494.45 65.32,-25.76 -38.63,-97.98 65.33,-25.76" /></g></g></svg>