<?xml version="1.0" encoding="utf-8"?>
<svg viewBox="0 0.2136 1079.9996 134.5729" width="1079.9996" height="134.5729" xmlns="http://www.w3.org/2000/svg">
  <g transform="matrix(1.3350670337677002, 0, 0, -1.3350670337677002, -157.12274169921878, 267.0601501464844)" id="g10">
    <g transform="scale(0.1)" id="g12">
      <path id="path14" style="fill:#26573e;fill-opacity:1;fill-rule:nonzero;stroke:none" d="m 2697.11,1366.61 c -62.12,0 -120.94,-49.42 -120.94,-111.54 v -23.16 c 0,-80.62 65.34,-142.5 150.27,-142.5 h 186.23 v 187.31 c 0,49.57 -44.16,89.89 -98.1,89.89 z m 34.24,422.86 c 161.69,0 293.99,-123.93 293.99,-281.81 l -5.64,-513.808 c -97.15,-6.704 -188.76,-0.403 -296.52,-0.403 -156.88,0 -269.55,106.761 -269.55,235.401 0,128.45 107.75,224.53 241.76,224.53 h 163.4 c 29.46,0 53.88,23.24 53.88,51.1 0,106.76 -84.93,185.9 -187.83,185.9 -62.05,0 -117.66,-14.07 -166.66,-38.76 v 105.16 c 53.94,20.22 112.73,32.69 173.17,32.69"/>
      <path id="path16" style="fill:#26573e;fill-opacity:1;fill-rule:nonzero;stroke:none" d="m 3560.26,1005.7 c -22.86,-4.63 -47.34,-6.2 -71.85,-6.2 -147.12,0 -245.14,89.91 -245.14,233.96 v 390.27 c 0,24.84 -21.19,44.96 -45.61,44.96 h -112.7 v 95.95 h 517.83 v -95.95 h -199.37 c -24.54,0 -45.64,-20.12 -45.64,-44.96 v -390.27 c 0,-82.17 55.47,-137.77 138.75,-137.77 22.93,0 44.16,1.47 63.73,4.53 v -94.52"/>
      <path id="path18" style="fill:#26573e;fill-opacity:1;fill-rule:nonzero;stroke:none" d="m 4321.8,1764.64 v -481.61 c 0,-161.05 -137.14,-289.589 -305.46,-289.589 -168.33,0 -305.58,128.539 -305.58,289.589 v 481.61 h 114.38 v -493.99 c 0,-102.15 81.79,-181.23 191.2,-181.23 109.41,0 191.08,79.08 191.08,181.23 v 493.99 h 114.38"/>
      <path id="path20" style="fill:#26573e;fill-opacity:1;fill-rule:nonzero;stroke:none" d="m 4812.62,1678 h -90.02 c -84.82,0 -151.83,-65.16 -151.83,-148.65 V 998.391 h -114.33 v 532.419 c 0,136.28 114.33,244.62 254.85,244.62 34.31,0 68.62,-3.02 101.33,-7.74 V 1678"/>
      <path id="path22" style="fill:#26573e;fill-opacity:1;fill-rule:nonzero;stroke:none" d="m 5408.09,1764.64 h 119.24 L 5259.37,998.891 h -107.82 l -267.9,765.749 h 119.3 l 202.59,-601.55 202.55,601.55"/>
      <path id="path24" style="fill:#26573e;fill-opacity:1;fill-rule:nonzero;stroke:none" d="m 6541.18,1005.7 c -22.86,-4.63 -47.4,-6.2 -71.97,-6.2 -147,0 -244.9,89.91 -244.9,233.96 v 390.27 c 0,24.84 -21.31,44.96 -45.84,44.96 h -112.74 v 95.95 h 517.93 v -95.95 h -199.29 c -24.65,0 -45.79,-20.12 -45.79,-44.96 v -390.27 c 0,-82.17 55.53,-137.77 138.83,-137.77 22.89,0 44.11,1.47 63.77,4.53 v -94.52"/>
      <path id="path26" style="fill:#26573e;fill-opacity:1;fill-rule:nonzero;stroke:none" d="m 7785.14,1678 h -89.84 c -84.98,0 -151.95,-65.16 -151.95,-148.65 V 998.879 H 7429 v 531.931 c 0,136.28 114.35,244.62 254.79,244.62 34.39,0 68.58,-3.02 101.35,-7.74 V 1678"/>
      <path id="path28" style="fill:#26573e;fill-opacity:1;fill-rule:nonzero;stroke:none" d="m 6830.54,1433.25 h 274.36 c 29.45,0 53.92,23.27 53.92,51.14 v 29.43 c 0,102.17 -81.61,181.14 -191.14,181.14 -109.37,0 -191.17,-78.97 -191.17,-181.14 v -29.43 c 0,-27.87 24.57,-51.14 54.03,-51.14 m 407.58,-423.68 c -97.46,-10.359 -170.73,-16.121 -270.44,-16.121 -168.31,0 -305.49,128.521 -305.49,289.581 v 216.88 c 0,160.91 137.18,289.55 305.49,289.55 168.33,0 305.48,-128.64 305.48,-289.55 v -147.23 h -442.62 c -29.46,0 -54.03,-23.26 -54.03,-51.05 v -30.98 c 0,-102.14 81.8,-181.25 191.17,-181.25 96.48,0 189.53,-10.59 272.91,28.19 l -2.47,-108.02"/>
      <path id="path30" style="fill:#26573e;fill-opacity:1;fill-rule:nonzero;stroke:none" d="m 8823.76,1433.25 h 274.36 c 29.45,0 53.93,23.27 53.93,51.14 v 29.43 c 0,102.17 -81.62,181.14 -191.15,181.14 -109.38,0 -191.19,-78.97 -191.19,-181.14 v -29.43 c 0,-27.87 24.59,-51.14 54.05,-51.14 m 407.57,-423.68 c -97.45,-10.359 -170.72,-16.121 -270.43,-16.121 -168.32,0 -305.49,128.521 -305.49,289.581 v 216.88 c 0,160.91 137.17,289.55 305.49,289.55 168.33,0 305.47,-128.64 305.47,-289.55 v -147.23 h -442.61 c -29.46,0 -54.05,-23.26 -54.05,-51.05 v -30.98 c 0,-102.14 81.81,-181.25 191.19,-181.25 96.48,0 189.52,-10.59 272.9,28.19 l -2.47,-108.02"/>
      <path id="path32" style="fill:#26573e;fill-opacity:1;fill-rule:nonzero;stroke:none" d="m 5955.07,998.891 h -114.35 v 620.119 c 0,27.95 -22.92,49.67 -52.28,49.67 h -191.11 v 95.95 h 191.11 c 91.59,0 166.63,-71.23 166.63,-157.88 V 998.891"/>
      <path id="path34" style="fill:#26573e;fill-opacity:1;fill-rule:nonzero;stroke:none" d="m 5954.77,1876.95 c 0,-35.28 -30.15,-63.89 -67.4,-63.89 -37.25,0 -67.37,28.61 -67.37,63.89 0,35.2 30.12,63.81 67.37,63.81 37.25,0 67.4,-28.61 67.4,-63.81"/>
      <path id="path36" style="fill:#26573e;fill-opacity:1;fill-rule:nonzero;stroke:none" d="m 1761.75,1998.41 c -0.33,0 -584.86,0.34 -584.86,0.34 l 0.55,-61.19 1.66,-437.75 c 1.89,-191.61 95.49,-368.77 256.85,-487.81 3.58,-3.2 11.31,-7.44 17.1,-10.4 h 200.45 l -143.57,103.84 c -134.42,96.8 -212.43,242.75 -213.98,400.41 l -1.44,376.33 -0.03,5.7 c 0,0 460.67,-0.3 460.73,-0.3 259.2,-1.74 470.09,-205.41 470.09,-454 l -0.15,-431.98 h 128.63 v 426.56 c 0,312.23 -265.69,568.07 -592.03,570.25"/>
      <path id="path38" style="fill:#26573e;fill-opacity:1;fill-rule:nonzero;stroke:none" d="m 8212.11,1789.33 c 175.73,0 318,-134.86 318,-301.49 V 999.141 h -117.15 v 501.409 c 0,104.71 -88.71,190.4 -197.49,190.4 -61.93,0 -122.2,-6.36 -177.45,-19.04 V 999.141 h -117.14 v 740.989 c 87.03,30.16 185.77,49.2 291.23,49.2"/>
    </g>
  </g>
</svg>