<?xml version="1.0" encoding="utf-8"?>
<svg viewBox="0 0.2679 489.9999 94.4642" width="489.9999" height="94.4642" xmlns="http://www.w3.org/2000/svg">
  <defs>
    <clipPath id="clipPath18" clipPathUnits="userSpaceOnUse">
      <path id="path16" d="M 0,109.034 H 410.467 V 0 H 0 Z"/>
    </clipPath>
  </defs>
  <g transform="matrix(1.3381519317626953, 0, 0, -1.3381519317626953, -29.79636001586914, 116.57514190673828)" id="g10">
    <g id="g12">
      <g clip-path="url(#clipPath18)" id="g14">
        <g transform="translate(38.7487,40.998)" id="g20">
          <path id="path22" style="fill:#008675;fill-opacity:1;fill-rule:nonzero;stroke:none" d="M 0,0 C -4.687,0 -8.501,3.813 -8.501,8.5 -8.501,13.187 -4.687,17 0,17 4.687,17 8.5,13.187 8.5,8.5 8.5,3.813 4.687,0 0,0 m 0,21.761 c -7.312,0 -13.261,-5.949 -13.261,-13.261 0,-7.311 5.949,-13.26 13.261,-13.26 7.312,0 13.26,5.949 13.26,13.26 0,7.312 -5.948,13.261 -13.26,13.261"/>
        </g>
        <g transform="translate(93.4444,40.998)" id="g24">
          <path id="path26" style="fill:#008675;fill-opacity:1;fill-rule:nonzero;stroke:none" d="M 0,0 C -4.687,0 -8.5,3.813 -8.5,8.5 -8.5,13.187 -4.687,17 0,17 4.687,17 8.5,13.187 8.5,8.5 8.5,3.813 4.687,0 0,0 m 0,21.761 c -7.312,0 -13.26,-5.949 -13.26,-13.261 0,-7.311 5.948,-13.26 13.26,-13.26 7.312,0 13.26,5.949 13.26,13.26 0,7.312 -5.948,13.261 -13.26,13.261"/>
        </g>
        <g transform="translate(66.0948,24.7423)" id="g28">
          <path id="path30" style="fill:#008675;fill-opacity:1;fill-rule:nonzero;stroke:none" d="M 0,0 C -4.877,9.175 -2.992,18.399 0.001,25.205 2.995,18.399 4.877,9.175 0,0 M 2.382,38.296 V 62.174 H -2.379 V 38.296 c -10.471,13.528 -27.227,23.38 -41.449,23.38 v -4.76 c 14.286,0 32.14,-11.765 41.088,-26.482 -0.354,-0.662 -0.696,-1.328 -1.017,-2 C -9.922,15.502 -8.871,2.812 -0.831,-7.359 h -0.016 l 0.846,-1.06 0.577,0.72 V -7.7 c 0.008,0.01 0.015,0.02 0.023,0.03 l 0.246,0.307 H 0.831 c 8.043,10.172 9.095,22.864 2.929,35.797 -0.321,0.672 -0.663,1.338 -1.017,2 8.948,14.717 26.802,26.482 41.088,26.482 v 4.76 c -14.222,0 -30.978,-9.852 -41.449,-23.38"/>
        </g>
        <g transform="translate(141.6777,41.2784)" id="g32">
          <path id="path34" style="fill:#008675;fill-opacity:1;fill-rule:nonzero;stroke:none" d="M 0,0 H 15.506 V -4.318 H -4.857 V 30.423 H 0 Z"/>
        </g>
        <g transform="translate(177.7926,50.6505)" id="g36">
          <path id="path38" style="fill:#008675;fill-opacity:1;fill-rule:nonzero;stroke:none" d="M 0,0 C -0.033,0.915 -0.188,1.774 -0.466,2.576 -0.744,3.377 -1.153,4.072 -1.692,4.662 -2.232,5.25 -2.903,5.717 -3.704,6.06 -4.507,6.404 -5.447,6.575 -6.526,6.575 -7.507,6.575 -8.432,6.404 -9.299,6.06 -10.165,5.717 -10.918,5.25 -11.556,4.662 -12.194,4.072 -12.717,3.377 -13.126,2.576 -13.535,1.774 -13.772,0.915 -13.837,0 Z M 4.711,-1.865 V -2.65 c 0,-0.262 -0.017,-0.524 -0.049,-0.785 h -18.499 c 0.032,-0.975 0.253,-1.893 0.662,-2.753 0.409,-0.861 0.957,-1.608 1.644,-2.242 0.687,-0.633 1.48,-1.129 2.38,-1.486 0.899,-0.357 1.856,-0.536 2.87,-0.536 1.571,0 2.927,0.343 4.074,1.03 1.144,0.687 2.043,1.522 2.698,2.503 L 3.73,-9.52 c -1.244,-1.648 -2.708,-2.861 -4.392,-3.641 -1.685,-0.778 -3.558,-1.168 -5.619,-1.168 -1.766,0 -3.402,0.295 -4.906,0.884 -1.505,0.588 -2.797,1.414 -3.877,2.478 -1.079,1.062 -1.93,2.346 -2.552,3.852 -0.621,1.504 -0.932,3.172 -0.932,5.005 0,1.799 0.303,3.459 0.91,4.98 0.606,1.522 1.45,2.822 2.532,3.901 1.082,1.08 2.36,1.921 3.835,2.528 1.476,0.604 3.065,0.907 4.77,0.907 1.705,0 3.254,-0.278 4.647,-0.834 C -0.461,8.815 0.72,8.014 1.687,6.967 2.654,5.92 3.4,4.653 3.925,3.165 4.448,1.676 4.711,0 4.711,-1.865"/>
        </g>
        <g transform="translate(193.5931,50.1106)" id="g40">
          <path id="path42" style="fill:#008675;fill-opacity:1;fill-rule:nonzero;stroke:none" d="m 0,0 h 0.147 l 9.765,10.108 h 6.182 L 5.202,-0.442 17.027,-13.151 H 10.648 L 0.147,-1.08 H 0 V -13.151 H -4.612 V 23.946 H 0 Z"/>
        </g>
        <g transform="translate(226.1252,56.4407)" id="g44">
          <path id="path46" style="fill:#008675;fill-opacity:1;fill-rule:nonzero;stroke:none" d="m 0,0 h -6.183 v -12.084 c 0,-1.402 0.262,-2.404 0.785,-3.008 0.523,-0.603 1.358,-0.905 2.503,-0.905 0.425,0 0.883,0.045 1.374,0.135 0.49,0.09 0.932,0.224 1.325,0.405 l 0.146,-3.778 c -0.556,-0.197 -1.17,-0.351 -1.84,-0.466 -0.67,-0.115 -1.365,-0.173 -2.085,-0.173 -2.192,0 -3.869,0.606 -5.03,1.817 -1.161,1.21 -1.742,3.025 -1.742,5.446 V 0 h -4.465 v 3.778 h 4.465 v 6.673 h 4.564 V 3.778 l 6.183,0 z"/>
        </g>
        <g transform="translate(249.6295,48.614)" id="g48">
          <path id="path50" style="fill:#008675;fill-opacity:1;fill-rule:nonzero;stroke:none" d="m 0,0 c 0,1.109 -0.173,2.169 -0.517,3.18 -0.345,1.011 -0.845,1.899 -1.501,2.666 -0.657,0.767 -1.469,1.378 -2.437,1.835 -0.968,0.456 -2.076,0.686 -3.323,0.686 -1.247,0 -2.355,-0.23 -3.322,-0.686 -0.969,-0.457 -1.781,-1.068 -2.437,-1.835 -0.657,-0.767 -1.157,-1.655 -1.502,-2.666 -0.345,-1.011 -0.516,-2.071 -0.516,-3.18 0,-1.109 0.171,-2.17 0.516,-3.18 0.345,-1.011 0.845,-1.909 1.502,-2.692 0.656,-0.782 1.468,-1.402 2.437,-1.859 0.967,-0.457 2.075,-0.684 3.322,-0.684 1.247,0 2.355,0.227 3.323,0.684 0.968,0.457 1.78,1.077 2.437,1.859 0.656,0.783 1.156,1.681 1.501,2.692 C -0.173,-2.17 0,-1.109 0,0 m 4.809,0.025 c 0,-1.8 -0.32,-3.452 -0.957,-4.957 -0.638,-1.504 -1.522,-2.805 -2.65,-3.9 -1.129,-1.097 -2.462,-1.947 -3.999,-2.552 -1.538,-0.605 -3.19,-0.908 -4.956,-0.908 -1.767,0 -3.418,0.303 -4.956,0.908 -1.538,0.605 -2.863,1.455 -3.975,2.552 -1.112,1.095 -1.987,2.396 -2.625,3.9 -0.638,1.505 -0.957,3.157 -0.957,4.957 0,1.798 0.319,3.442 0.957,4.931 0.638,1.488 1.513,2.773 2.625,3.851 1.112,1.08 2.437,1.922 3.975,2.528 1.538,0.605 3.189,0.907 4.956,0.907 1.766,0 3.418,-0.302 4.956,-0.907 C -1.26,10.729 0.073,9.887 1.202,8.807 2.33,7.729 3.214,6.444 3.852,4.956 4.489,3.467 4.809,1.823 4.809,0.025"/>
        </g>
        <g transform="translate(260.7666,57.6179)" id="g52">
          <path id="path54" style="fill:#008675;fill-opacity:1;fill-rule:nonzero;stroke:none" d="M 0,0 C -0.033,0.982 -0.082,1.848 -0.147,2.601 H 4.22 C 4.286,2.012 4.334,1.333 4.367,0.565 4.4,-0.204 4.417,-0.834 4.417,-1.325 h 0.146 c 0.655,1.375 1.611,2.478 2.871,3.313 1.259,0.834 2.674,1.251 4.245,1.251 0.718,0 1.325,-0.066 1.815,-0.196 l -0.196,-4.27 c -0.655,0.164 -1.358,0.245 -2.11,0.245 -1.112,0 -2.078,-0.204 -2.895,-0.613 C 7.475,-2.004 6.797,-2.552 6.257,-3.239 5.717,-3.925 5.316,-4.719 5.055,-5.618 4.792,-6.519 4.662,-7.459 4.662,-8.439 V -20.658 H 0.05 V -2.404 C 0.05,-1.783 0.033,-0.982 0,0"/>
        </g>
        <path id="path56" style="fill:#008675;fill-opacity:1;fill-rule:nonzero;stroke:none" d="m 283.289,36.96 h -4.612 v 37.096 h 4.612 z"/>
        <g transform="translate(304.6827,48.0493)" id="g58">
          <path id="path60" style="fill:#008675;fill-opacity:1;fill-rule:nonzero;stroke:none" d="m 0,0 c -1.145,0 -2.33,-0.049 -3.557,-0.147 -1.227,-0.098 -2.339,-0.295 -3.337,-0.589 -0.998,-0.294 -1.824,-0.736 -2.478,-1.325 -0.655,-0.588 -0.982,-1.373 -0.982,-2.355 0,-0.687 0.139,-1.259 0.418,-1.718 0.277,-0.458 0.645,-0.833 1.104,-1.128 0.457,-0.294 0.965,-0.499 1.521,-0.613 0.556,-0.115 1.129,-0.172 1.717,-0.172 2.16,0 3.819,0.646 4.981,1.938 1.161,1.292 1.741,2.92 1.741,4.882 l 0,1.227 z m 1.128,3.975 c 0,1.734 -0.523,3.018 -1.57,3.852 -1.047,0.834 -2.436,1.251 -4.17,1.251 -1.309,0 -2.544,-0.254 -3.705,-0.76 C -9.478,7.81 -10.451,7.165 -11.236,6.38 l -2.454,2.943 c 1.145,1.08 2.543,1.93 4.196,2.552 1.651,0.621 3.426,0.932 5.323,0.932 1.669,0 3.116,-0.237 4.343,-0.711 C 1.398,11.621 2.405,10.975 3.19,10.158 3.975,9.339 4.563,8.375 4.956,7.263 5.349,6.15 5.545,4.956 5.545,3.68 V -6.477 c 0,-0.785 0.025,-1.612 0.073,-2.477 0.05,-0.868 0.139,-1.579 0.27,-2.135 H 1.718 C 1.455,-9.978 1.325,-8.865 1.325,-7.752 H 1.178 c -0.851,-1.244 -1.922,-2.209 -3.214,-2.896 -1.293,-0.686 -2.821,-1.03 -4.588,-1.03 -0.916,0 -1.873,0.122 -2.87,0.368 -0.999,0.246 -1.907,0.646 -2.724,1.202 -0.818,0.556 -1.496,1.292 -2.036,2.209 -0.54,0.915 -0.81,2.043 -0.81,3.385 0,1.767 0.474,3.165 1.423,4.195 0.949,1.031 2.192,1.816 3.729,2.356 1.537,0.539 3.271,0.891 5.202,1.055 1.929,0.163 3.876,0.245 5.838,0.245 z"/>
        </g>
        <g transform="translate(321.1205,48.8344)" id="g62">
          <path id="path64" style="fill:#008675;fill-opacity:1;fill-rule:nonzero;stroke:none" d="M 0,0 C 0,-1.079 0.172,-2.109 0.517,-3.091 0.861,-4.072 1.37,-4.94 2.043,-5.692 2.715,-6.444 3.527,-7.05 4.48,-7.507 c 0.951,-0.459 2.034,-0.687 3.249,-0.687 1.18,0 2.264,0.212 3.248,0.638 0.984,0.425 1.821,1.005 2.511,1.742 0.688,0.735 1.222,1.602 1.598,2.6 0.377,0.998 0.568,2.069 0.568,3.214 0,1.112 -0.191,2.16 -0.568,3.141 -0.376,0.981 -0.918,1.847 -1.623,2.6 -0.705,0.753 -1.543,1.35 -2.51,1.792 C 9.984,7.974 8.909,8.195 7.729,8.195 6.514,8.195 5.431,7.974 4.48,7.533 3.527,7.091 2.715,6.502 2.043,5.766 1.37,5.03 0.861,4.163 0.517,3.165 0.172,2.167 0,1.112 0,0 m -1.374,-15.849 c 1.014,-1.145 2.282,-2.061 3.803,-2.748 1.521,-0.686 3.083,-1.031 4.686,-1.031 1.538,0 2.829,0.222 3.877,0.663 1.046,0.442 1.889,1.047 2.527,1.816 0.638,0.769 1.095,1.677 1.373,2.723 0.278,1.047 0.418,2.176 0.418,3.385 v 2.994 h -0.098 c -0.851,-1.308 -2.012,-2.306 -3.485,-2.994 -1.472,-0.686 -3.042,-1.03 -4.71,-1.03 -1.767,0 -3.378,0.311 -4.833,0.933 -1.456,0.621 -2.691,1.472 -3.705,2.551 -1.014,1.08 -1.8,2.347 -2.356,3.803 -0.555,1.455 -0.833,3.018 -0.833,4.687 0,1.668 0.278,3.238 0.833,4.71 0.556,1.472 1.342,2.755 2.356,3.852 1.014,1.096 2.241,1.962 3.681,2.6 1.439,0.638 3.042,0.957 4.808,0.957 1.669,0 3.263,-0.36 4.784,-1.079 1.522,-0.72 2.723,-1.816 3.607,-3.288 h 0.098 v 3.73 h 4.465 v -22.081 c 0,-1.701 -0.213,-3.329 -0.638,-4.883 -0.426,-1.554 -1.145,-2.927 -2.159,-4.122 -1.014,-1.193 -2.339,-2.15 -3.974,-2.87 -1.636,-0.719 -3.665,-1.08 -6.085,-1.08 -2.029,0 -4.065,0.368 -6.109,1.104 -2.045,0.736 -3.803,1.775 -5.275,3.116 z"/>
        </g>
        <g transform="translate(365.9694,50.6505)" id="g66">
          <path id="path68" style="fill:#008675;fill-opacity:1;fill-rule:nonzero;stroke:none" d="M 0,0 C -0.033,0.915 -0.188,1.774 -0.466,2.576 -0.744,3.377 -1.153,4.072 -1.692,4.662 -2.232,5.25 -2.903,5.717 -3.704,6.06 -4.507,6.404 -5.447,6.575 -6.526,6.575 -7.507,6.575 -8.432,6.404 -9.299,6.06 -10.165,5.717 -10.918,5.25 -11.556,4.662 -12.194,4.072 -12.717,3.377 -13.126,2.576 -13.535,1.774 -13.772,0.915 -13.837,0 Z M 4.711,-1.865 V -2.65 c 0,-0.262 -0.017,-0.524 -0.049,-0.785 h -18.499 c 0.032,-0.975 0.253,-1.893 0.663,-2.753 0.408,-0.861 0.956,-1.608 1.643,-2.242 0.687,-0.633 1.48,-1.129 2.38,-1.486 0.899,-0.357 1.856,-0.536 2.87,-0.536 1.571,0 2.927,0.343 4.074,1.03 1.144,0.687 2.043,1.522 2.698,2.503 L 3.73,-9.52 c -1.244,-1.648 -2.708,-2.861 -4.392,-3.641 -1.685,-0.778 -3.558,-1.168 -5.619,-1.168 -1.766,0 -3.402,0.295 -4.906,0.884 -1.505,0.588 -2.797,1.414 -3.877,2.478 -1.079,1.062 -1.93,2.346 -2.552,3.852 -0.621,1.504 -0.932,3.172 -0.932,5.005 0,1.799 0.303,3.459 0.91,4.98 0.606,1.522 1.45,2.822 2.532,3.901 1.082,1.08 2.36,1.921 3.835,2.528 1.476,0.604 3.065,0.907 4.77,0.907 1.705,0 3.254,-0.278 4.647,-0.834 C -0.461,8.815 0.72,8.014 1.687,6.967 2.654,5.92 3.4,4.653 3.925,3.165 4.448,1.676 4.711,0 4.711,-1.865"/>
        </g>
        <g transform="translate(388.4434,56.4407)" id="g70">
          <path id="path72" style="fill:#008675;fill-opacity:1;fill-rule:nonzero;stroke:none" d="m 0,0 h -6.183 v -12.084 c 0,-1.402 0.262,-2.404 0.785,-3.008 0.523,-0.603 1.358,-0.905 2.503,-0.905 0.425,0 0.883,0.045 1.374,0.135 0.49,0.09 0.932,0.224 1.325,0.405 l 0.146,-3.778 c -0.556,-0.197 -1.17,-0.351 -1.84,-0.466 -0.67,-0.115 -1.365,-0.173 -2.085,-0.173 -2.192,0 -3.869,0.606 -5.03,1.817 -1.161,1.21 -1.742,3.025 -1.742,5.446 V 0 h -4.465 v 3.778 h 4.465 v 6.673 h 4.564 V 3.778 l 6.183,0 z"/>
        </g>
      </g>
    </g>
  </g>
</svg>