<?xml version="1.0" encoding="utf-8"?>
<svg viewBox="-0.0001 0.4278 1070.0002 441.1442" width="1070.0002" height="441.1442" xmlns="http://www.w3.org/2000/svg">
  <g transform="matrix(1.333858013153076, 0, 0, -1.333858013153076, 232.7723999023437, 586.4689941406249)" id="g10">
    <g transform="scale(0.1)" id="g12">
      <path id="path14" style="fill:#FFF;fill-opacity:1;fill-rule:nonzero;stroke:none" d="M -1276.997 4393.58 C -1276.997 4393.58 -2778.611 2903.67 -402.937 2609.66 C -402.937 2609.66 -1568.367 3413.38 -1276.997 4393.58"/>
      <path id="path16" style="fill:#FFF;fill-opacity:1;fill-rule:nonzero;stroke:none" d="M 650.603 3903.45 C 650.603 3903.45 695.653 2768.42 -559.727 2452.83 C -559.727 2452.83 1263.763 1938.51 650.603 3903.45"/>
      <path id="path18" style="fill:#FFF;fill-opacity:1;fill-rule:nonzero;stroke:none" d="M -89.007 3361.66 C -89.007 3361.66 -1153.547 2540.05 -329.227 1086.3 C -329.227 1086.3 -604.527 2401.16 -89.007 3361.66"/>
      <path id="path20" style="fill: #FFF; fill-opacity: 1; fill-rule: nonzero; stroke: none;" d="M 1252.87 3325.785 L 1312.861 3325.785 L 1312.861 3937.938 L 1308.792 4006.085 L 1689.103 3325.785 L 1799.943 3325.785 L 1799.943 4044.721 L 1737.914 4044.721 L 1737.914 3447.816 L 1740.966 3355.275 L 1351.502 4044.721 L 1252.87 4044.721 L 1252.87 3325.785 Z M 2316.305 3313.598 C 2540.012 3313.598 2678.305 3468.141 2678.305 3684.749 C 2678.305 3893.199 2559.335 4054.894 2335.621 4054.894 C 2121.066 4054.894 1971.584 3911.51 1971.584 3686.783 C 1971.584 3470.176 2100.725 3313.598 2316.305 3313.598 Z M 2319.349 3365.448 C 2129.201 3365.448 2030.56 3516.97 2030.56 3687.79 C 2030.56 3865.743 2134.284 4003.023 2326.469 4003.023 C 2511.542 4003.023 2618.316 3864.736 2618.316 3685.756 C 2618.316 3506.798 2519.678 3365.448 2319.349 3365.448 Z M 3411.767 3363.413 C 3384.31 3371.552 3328.371 3388.835 3276.519 3462.058 L 3153.48 3643.051 C 3255.167 3678.645 3293.803 3754.911 3293.803 3840.321 C 3293.803 3981.671 3203.296 4044.721 3073.147 4044.721 L 2850.436 4044.721 L 2850.436 3325.785 L 2911.452 3325.785 L 2911.452 3621.698 L 3020.269 3621.698 C 3043.656 3621.698 3076.188 3623.733 3095.506 3627.802 L 3241.932 3410.188 C 3301.941 3323.75 3385.318 3315.612 3398.532 3315.612 L 3411.767 3363.413 Z M 2911.452 3677.618 L 2911.452 3994.885 L 3050.767 3994.885 C 3165.667 3994.885 3229.745 3954.215 3229.745 3834.218 C 3229.745 3709.144 3140.246 3677.618 3026.372 3677.618 L 2911.452 3677.618 Z M 3702.766 3313.598 C 3839.039 3313.598 3943.767 3374.593 3943.767 3507.805 C 3943.767 3738.635 3586.857 3710.17 3586.857 3890.157 C 3586.857 3971.498 3653.956 4003.023 3733.284 4003.023 C 3798.369 4003.023 3837.005 3990.816 3877.675 3975.567 L 3893.952 4022.341 C 3854.288 4039.625 3805.48 4053.866 3732.257 4053.866 C 3621.424 4053.866 3531.945 3996.92 3531.945 3886.088 C 3531.945 3653.223 3885.813 3697.963 3885.813 3501.701 C 3885.813 3395.946 3779.031 3368.49 3700.731 3368.49 C 3635.665 3368.49 3585.829 3383.759 3536.014 3407.146 L 3513.634 3355.275 C 3551.263 3335.957 3600.071 3313.598 3702.766 3313.598 Z M 4500.203 3325.785 L 4580.537 3325.785 L 4259.201 3713.213 L 4559.184 4044.721 L 4483.927 4044.721 L 4194.117 3718.308 L 4194.117 3698.99 L 4500.203 3325.785 Z M 4095.491 3325.785 L 4155.481 3325.785 L 4155.481 4044.721 L 4095.491 4044.721 L 4095.491 3325.785"/>
      <path id="path22" style="fill: #FFF; fill-opacity: 1; fill-rule: nonzero; stroke: none;" d="M 1253.317 2317.619 L 1314.545 2317.619 L 1314.545 2989.098 L 1454.348 2989.098 C 1573.749 2989.098 1633.951 2938.074 1633.951 2816.647 C 1633.951 2690.102 1544.153 2646.229 1429.861 2646.229 L 1400.265 2646.229 L 1400.265 2593.149 L 1423.739 2593.149 C 1616.609 2593.149 1698.247 2695.199 1698.247 2821.742 C 1698.247 2964.604 1616.609 3039.096 1476.798 3039.096 L 1253.317 3039.096 L 1253.317 2317.619 Z M 1991.311 2305.375 C 2128.051 2305.375 2233.154 2366.611 2233.154 2500.284 C 2233.154 2731.942 1874.971 2703.377 1874.971 2883.988 C 1874.971 2965.631 1942.327 2997.256 2021.919 2997.256 C 2087.23 2997.256 2126.007 2985.01 2166.829 2969.721 L 2183.158 3016.655 C 2143.357 3034 2094.375 3048.282 2020.896 3048.282 C 1909.671 3048.282 1819.866 2991.133 1819.866 2879.919 C 1819.866 2646.229 2174.989 2691.13 2174.989 2494.162 C 2174.989 2388.044 2067.841 2360.488 1989.264 2360.488 C 1923.954 2360.488 1873.956 2375.793 1823.951 2399.266 L 1801.501 2347.231 C 1839.254 2327.833 1888.238 2305.375 1991.311 2305.375 Z M 2540.217 2317.619 L 2600.429 2317.619 L 2600.429 2600.3 L 2842.277 3039.096 L 2780.032 3039.096 L 2572.872 2657.448 L 2378.978 3039.096 L 2312.645 3039.096 L 2540.217 2602.335 L 2540.217 2317.619 Z M 3384.331 2317.619 L 3464.947 2317.619 L 3142.481 2706.439 L 3443.513 3039.096 L 3368.014 3039.096 L 3077.175 2711.536 L 3077.175 2692.137 L 3384.331 2317.619 Z M 2978.188 2317.619 L 3038.399 2317.619 L 3038.399 3039.096 L 2978.188 3039.096 L 2978.188 2317.619 Z M 3870.161 2305.375 C 4094.666 2305.375 4233.457 2460.499 4233.457 2677.854 C 4233.457 2887.05 4114.064 3049.309 3889.56 3049.309 C 3674.242 3049.309 3524.229 2905.42 3524.229 2679.889 C 3524.229 2462.538 3653.836 2305.375 3870.161 2305.375 Z M 3873.223 2357.428 C 3682.4 2357.428 3583.413 2509.475 3583.413 2680.916 C 3583.413 2859.493 3687.497 2997.256 3880.374 2997.256 C 4066.101 2997.256 4173.247 2858.485 4173.247 2678.882 C 4173.247 2499.277 4074.26 2357.428 3873.223 2357.428 Z M 4416.405 2317.619 L 4789.893 2317.619 L 4789.893 2372.732 L 4476.615 2372.732 L 4476.615 3039.096 L 4416.405 3039.096 L 4416.405 2317.619 Z M 5185.721 2305.375 C 5410.225 2305.375 5549.018 2460.499 5549.018 2677.854 C 5549.018 2887.05 5429.624 3049.309 5205.12 3049.309 C 4989.801 3049.309 4839.789 2905.42 4839.789 2679.889 C 4839.789 2462.538 4969.396 2305.375 5185.721 2305.375 Z M 5188.783 2357.428 C 4997.959 2357.428 4898.972 2509.475 4898.972 2680.916 C 4898.972 2859.493 5003.056 2997.256 5195.935 2997.256 C 5381.662 2997.256 5488.806 2858.485 5488.806 2678.882 C 5488.806 2499.277 5389.82 2357.428 5188.783 2357.428 Z M 6054.549 2305.375 C 6155.571 2305.375 6210.685 2318.65 6267.814 2334.985 L 6267.814 2671.731 L 6207.623 2671.731 L 6207.623 2375.793 C 6178.012 2368.647 6137.2 2358.45 6072.921 2358.45 C 5899.421 2358.45 5751.464 2454.378 5751.464 2683.978 C 5751.464 2908.482 5895.352 2994.194 6051.487 2994.194 C 6160.668 2994.194 6207.623 2972.783 6236.187 2961.542 L 6254.559 3014.621 C 6232.098 3022.779 6183.129 3049.309 6048.425 3049.309 C 5818.805 3049.309 5688.192 2891.139 5688.192 2673.765 C 5688.192 2469.692 5817.798 2305.375 6054.549 2305.375"/>
      <path id="path24" style="fill: #FFF; fill-opacity: 1; fill-rule: nonzero; stroke: none;" d="M 1253.317 1309.361 L 1313.529 1309.361 L 1313.529 1623.66 L 1633.951 1623.66 L 1633.951 1677.751 L 1313.529 1677.751 L 1313.529 1980.815 L 1656.402 1980.815 L 1656.402 2030.827 L 1253.317 2030.827 L 1253.317 1309.361 Z M 2098.773 1297.109 C 2323.275 1297.109 2462.065 1452.217 2462.065 1669.566 C 2462.065 1878.765 2342.663 2041.026 2118.161 2041.026 C 1902.843 2041.026 1752.833 1897.138 1752.833 1671.629 C 1752.833 1454.256 1882.43 1297.109 2098.773 1297.109 Z M 2101.834 1349.136 C 1911.001 1349.136 1812.022 1501.207 1812.022 1672.636 C 1812.022 1851.232 1916.11 1988.991 2108.979 1988.991 C 2294.705 1988.991 2401.852 1850.201 2401.852 1670.597 C 2401.852 1490.995 2302.865 1349.136 2101.834 1349.136 Z M 3198.12 1347.106 C 3170.563 1355.267 3114.422 1372.625 3062.389 1446.096 L 2938.908 1627.729 C 3040.957 1663.444 3079.733 1739.991 3079.733 1825.707 C 3079.733 1967.556 2988.904 2030.827 2858.292 2030.827 L 2634.814 2030.827 L 2634.814 1309.361 L 2696.032 1309.361 L 2696.032 1606.294 L 2805.232 1606.294 C 2828.7 1606.294 2861.354 1608.357 2880.751 1612.424 L 3027.682 1394.043 C 3087.892 1307.299 3171.57 1299.148 3184.845 1299.148 L 3198.12 1347.106 Z M 2696.032 1662.437 L 2696.032 1980.815 L 2835.851 1980.815 C 2951.155 1980.815 3015.455 1939.998 3015.455 1819.584 C 3015.455 1694.064 2925.653 1662.437 2811.356 1662.437 L 2696.032 1662.437 Z M 3329.74 1309.361 L 3738.943 1309.361 L 3738.943 1361.388 L 3389.95 1361.388 L 3389.95 1645.096 L 3693.036 1645.096 L 3693.036 1698.154 L 3389.95 1698.154 L 3389.95 1980.815 L 3715.477 1980.815 L 3715.477 2030.827 L 3329.74 2030.827 L 3329.74 1309.361 Z M 3886.297 1309.361 L 3946.507 1309.361 L 3946.507 1923.664 L 3942.417 1992.051 L 4324.085 1309.361 L 4435.319 1309.361 L 4435.319 2030.827 L 4373.075 2030.827 L 4373.075 1431.814 L 4376.137 1338.947 L 3985.284 2030.827 L 3886.297 2030.827 L 3886.297 1309.361 Z M 4676.241 1309.361 L 4736.451 1309.361 L 4736.451 2030.827 L 4676.241 2030.827 L 4676.241 1309.361 Z M 4975.841 1309.361 L 5036.053 1309.361 L 5036.053 1923.664 L 5031.963 1992.051 L 5413.63 1309.361 L 5524.865 1309.361 L 5524.865 2030.827 L 5462.619 2030.827 L 5462.619 1431.814 L 5465.681 1338.947 L 5074.829 2030.827 L 4975.841 2030.827 L 4975.841 1309.361 Z M 6063.453 1297.109 C 6164.495 1297.109 6219.588 1310.36 6276.738 1326.702 L 6276.738 1663.444 L 6216.526 1663.444 L 6216.526 1367.511 C 6186.936 1360.381 6146.124 1350.168 6081.824 1350.168 C 5908.345 1350.168 5760.388 1446.096 5760.388 1675.696 C 5760.388 1900.2 5904.276 1985.929 6060.391 1985.929 C 6169.592 1985.929 6216.526 1964.495 6245.111 1953.273 L 6263.483 2006.332 C 6241.022 2014.493 6192.032 2041.026 6057.329 2041.026 C 5827.729 2041.026 5697.115 1882.856 5697.115 1665.499 C 5697.115 1461.4 5826.701 1297.109 6063.453 1297.109"/>
    </g>
  </g>
</svg>