<?xml version="1.0" encoding="utf-8"?>
<svg viewBox="0 0.7575 611.9999 108.4849" width="611.9999" height="108.4849" xmlns="http://www.w3.org/2000/svg">
  <defs>
    <clipPath id="clip-path" transform="translate(0 0)">
      <rect class="cls-1" width="217.56" height="38.79" style="fill: none;"/>
    </clipPath>
  </defs>
  <g id="Layer_2" data-name="Layer 2" transform="matrix(2.813405990600586, 0, 0, 2.813405990600586, 0.027250003069624995, 0.7575300335883952)" style="">
    <g id="Layer_1-2" data-name="Layer 1">
      <g class="cls-2" style="clip-path: url('#clip-path');">
        <path class="cls-3" d="M38.55,19.39A19.28,19.28,0,1,1,19.28,0,19.34,19.34,0,0,1,38.55,19.39" transform="translate(0 0)" fill="#6CC0D7"/>
        <path class="cls-4" d="M26.68,13.8a9.52,9.52,0,0,1,.11,11.27A9.4,9.4,0,0,1,16.1,28.46m-4.51-3.35a9.53,9.53,0,0,1,0-11.16,9.38,9.38,0,0,1,10.57-3.43m7.48-.78a14.41,14.41,0,0,1,1.1,18.19,14.2,14.2,0,0,1-17.51,4.6M8.66,29.19a14.41,14.41,0,0,1-1-18.1A14.21,14.21,0,0,1,25.05,6.44" transform="translate(0 0)" stroke="#FFFFFF" fill="none" stroke-width="2.23px" style="stroke-linecap: round;"/>
        <path class="cls-5" d="M49.44,25.28A3.55,3.55,0,0,1,46.57,24a.73.73,0,0,1-.13-.43A.55.55,0,0,1,47,23c.57,0,.8,1.09,2.46,1.09a2,2,0,0,0,2-2c0-3.23-5-1.75-5-5.52a2.88,2.88,0,0,1,3.05-2.79,3.74,3.74,0,0,1,2.68,1,.6.6,0,0,1,.16.42.56.56,0,0,1-.55.57c-.53,0-.89-.85-2.29-.85a1.66,1.66,0,0,0-1.84,1.63c0,2.68,5,1.35,5,5.52a3.25,3.25,0,0,1-3.21,3.13" transform="translate(0 0)" fill="#006688"/>
        <path class="cls-6" d="M49.44,25.28A3.55,3.55,0,0,1,46.57,24a.73.73,0,0,1-.13-.43A.55.55,0,0,1,47,23c.57,0,.8,1.09,2.46,1.09a2,2,0,0,0,2-2c0-3.23-5-1.75-5-5.52a2.88,2.88,0,0,1,3.05-2.79,3.74,3.74,0,0,1,2.68,1,.6.6,0,0,1,.16.42.56.56,0,0,1-.55.57c-.53,0-.89-.85-2.29-.85a1.66,1.66,0,0,0-1.84,1.63c0,2.68,5,1.35,5,5.52A3.25,3.25,0,0,1,49.44,25.28Z" transform="translate(0 0)" stroke="#006688" fill="none" stroke-width="0.67px"/>
        <path class="cls-7" d="M18.88,25.28A3.57,3.57,0,0,1,16,24a.81.81,0,0,1-.13-.43.55.55,0,0,1,.55-.55c.57,0,.79,1.09,2.46,1.09a2,2,0,0,0,2-2c0-3.23-5-1.75-5-5.52a2.88,2.88,0,0,1,3.06-2.79,3.7,3.7,0,0,1,2.67,1,.57.57,0,0,1,.17.42.56.56,0,0,1-.55.57c-.54,0-.89-.85-2.29-.85a1.66,1.66,0,0,0-1.84,1.63c0,2.68,5,1.35,5,5.52a3.25,3.25,0,0,1-3.21,3.13" transform="translate(0 0)" fill="#FFFFFF"/>
        <path class="cls-8" d="M18.88,25.28A3.57,3.57,0,0,1,16,24a.81.81,0,0,1-.13-.43.55.55,0,0,1,.55-.55c.57,0,.79,1.09,2.46,1.09a2,2,0,0,0,2-2c0-3.23-5-1.75-5-5.52a2.88,2.88,0,0,1,3.06-2.79,3.7,3.7,0,0,1,2.67,1,.57.57,0,0,1,.17.42.56.56,0,0,1-.55.57c-.54,0-.89-.85-2.29-.85a1.66,1.66,0,0,0-1.84,1.63c0,2.68,5,1.35,5,5.52A3.25,3.25,0,0,1,18.88,25.28Z" transform="translate(0 0)" stroke="#FFFFFF" fill="none" stroke-width="0.67px"/>
        <path class="cls-5" d="M63.1,24.57a1,1,0,0,0,0-.28l-3.59-9.9a.58.58,0,0,0-.55-.39.57.57,0,0,0-.53.39l-3.47,10a.81.81,0,0,0,0,.27.5.5,0,0,0,.55.49.59.59,0,0,0,.55-.39l1.2-3.38h3.58L62,24.73a.58.58,0,0,0,.54.39.55.55,0,0,0,.57-.55m-2.74-4.34h-2.8l1.37-4Z" transform="translate(0 0)" fill="#006688"/>
        <path class="cls-6" d="M63.1,24.57a1,1,0,0,0,0-.28l-3.59-9.9a.58.58,0,0,0-.55-.39.57.57,0,0,0-.53.39l-3.47,10a.81.81,0,0,0,0,.27.5.5,0,0,0,.55.49.59.59,0,0,0,.55-.39l1.2-3.38h3.58L62,24.73a.58.58,0,0,0,.54.39A.55.55,0,0,0,63.1,24.57Zm-2.74-4.34h-2.8l1.37-4Z" transform="translate(0 0)" stroke="#006688" fill="none" stroke-width="0.67px"/>
        <path class="cls-5" d="M73.63,25.12a.56.56,0,0,1-.56-.57V17.1L70.6,22.23a.62.62,0,0,1-.54.39.65.65,0,0,1-.54-.39L67,17.08v7.47a.56.56,0,0,1-.56.57.55.55,0,0,1-.55-.57v-10a.55.55,0,0,1,.55-.57.63.63,0,0,1,.54.4l3,6.35,3-6.35a.67.67,0,0,1,.55-.4.55.55,0,0,1,.55.57v10a.55.55,0,0,1-.55.57" transform="translate(0 0)" fill="#006688"/>
        <path class="cls-6" d="M73.63,25.12a.56.56,0,0,1-.56-.57V17.1L70.6,22.23a.62.62,0,0,1-.54.39.65.65,0,0,1-.54-.39L67,17.08v7.47a.56.56,0,0,1-.56.57.55.55,0,0,1-.55-.57v-10a.55.55,0,0,1,.55-.57.63.63,0,0,1,.54.4l3,6.35,3-6.35a.67.67,0,0,1,.55-.4.55.55,0,0,1,.55.57v10A.55.55,0,0,1,73.63,25.12Z" transform="translate(0 0)" stroke="#006688" fill="none" stroke-width="0.67px"/>
        <path class="cls-5" d="M82.65,15.12H79v3.59h3.06a.55.55,0,0,1,.54.57.54.54,0,0,1-.54.55H79v4.72a.56.56,0,0,1-.55.57.58.58,0,0,1-.57-.57v-10a.56.56,0,0,1,.55-.57h4.23a.56.56,0,0,1,.55.57.55.55,0,0,1-.55.55" transform="translate(0 0)" fill="#006688"/>
        <path class="cls-6" d="M82.65,15.12H79v3.59h3.06a.55.55,0,0,1,.54.57.54.54,0,0,1-.54.55H79v4.72a.56.56,0,0,1-.55.57.58.58,0,0,1-.57-.57v-10a.56.56,0,0,1,.55-.57h4.23a.56.56,0,0,1,.55.57A.55.55,0,0,1,82.65,15.12Z" transform="translate(0 0)" stroke="#006688" fill="none" stroke-width="0.67px"/>
        <path class="cls-5" d="M92.87,23.59l-1.19,1a2.32,2.32,0,0,1-1.6.68c-2.87,0-3.83-2.55-3.83-4.85V14.57A.55.55,0,0,1,86.8,14a.56.56,0,0,1,.57.57v5.7c0,2,.77,3.86,2.71,3.86a1.2,1.2,0,0,0,.89-.41l1.22-1a1.11,1.11,0,0,0,.44-1V14.57a.56.56,0,0,1,.56-.57.55.55,0,0,1,.55.57v7.37a2,2,0,0,1-.87,1.65" transform="translate(0 0)" fill="#006688"/>
        <path class="cls-6" d="M92.87,23.59l-1.19,1a2.32,2.32,0,0,1-1.6.68c-2.87,0-3.83-2.55-3.83-4.85V14.57A.55.55,0,0,1,86.8,14a.56.56,0,0,1,.57.57v5.7c0,2,.77,3.86,2.71,3.86a1.2,1.2,0,0,0,.89-.41l1.22-1a1.11,1.11,0,0,0,.44-1V14.57a.56.56,0,0,1,.56-.57.55.55,0,0,1,.55.57v7.37A2,2,0,0,1,92.87,23.59Z" transform="translate(0 0)" stroke="#006688" fill="none" stroke-width="0.67px"/>
        <path class="cls-5" d="M104.21,25.12a.59.59,0,0,1-.47-.28l-5-8.24v8a.55.55,0,0,1-.55.57.56.56,0,0,1-.57-.57v-10a.6.6,0,0,1,.6-.58.52.52,0,0,1,.45.27l5,8.24V14.57a.55.55,0,0,1,.55-.57.57.57,0,0,1,.58.57V24.62a.6.6,0,0,1-.58.5" transform="translate(0 0)" fill="#006688"/>
        <path class="cls-6" d="M104.21,25.12a.59.59,0,0,1-.47-.28l-5-8.24v8a.55.55,0,0,1-.55.57.56.56,0,0,1-.57-.57v-10a.6.6,0,0,1,.6-.58.52.52,0,0,1,.45.27l5,8.24V14.57a.55.55,0,0,1,.55-.57.57.57,0,0,1,.58.57V24.62A.6.6,0,0,1,104.21,25.12Z" transform="translate(0 0)" stroke="#006688" fill="none" stroke-width="0.67px"/>
        <path class="cls-5" d="M115.74,25.12a.58.58,0,0,1-.47-.28l-5-8.24v8a.55.55,0,0,1-.54.57.56.56,0,0,1-.57-.57v-10a.6.6,0,0,1,.6-.58.53.53,0,0,1,.45.27l5,8.24V14.57a.55.55,0,0,1,.55-.57.57.57,0,0,1,.58.57V24.62a.61.61,0,0,1-.58.5" transform="translate(0 0)" fill="#006688"/>
        <path class="cls-6" d="M115.74,25.12a.58.58,0,0,1-.47-.28l-5-8.24v8a.55.55,0,0,1-.54.57.56.56,0,0,1-.57-.57v-10a.6.6,0,0,1,.6-.58.53.53,0,0,1,.45.27l5,8.24V14.57a.55.55,0,0,1,.55-.57.57.57,0,0,1,.58.57V24.62A.61.61,0,0,1,115.74,25.12Z" transform="translate(0 0)" stroke="#006688" fill="none" stroke-width="0.67px"/>
        <path class="cls-5" d="M123.07,25.28A3.57,3.57,0,0,1,120.19,24a.81.81,0,0,1-.13-.43.55.55,0,0,1,.55-.55c.57,0,.79,1.09,2.46,1.09a2,2,0,0,0,2-2c0-3.23-5-1.75-5-5.52a2.88,2.88,0,0,1,3-2.79,3.71,3.71,0,0,1,2.68,1,.57.57,0,0,1,.17.42.56.56,0,0,1-.55.57c-.54,0-.89-.85-2.3-.85a1.66,1.66,0,0,0-1.84,1.63c0,2.68,5,1.35,5,5.52a3.25,3.25,0,0,1-3.21,3.13" transform="translate(0 0)" fill="#006688"/>
        <path class="cls-6" d="M123.07,25.28A3.57,3.57,0,0,1,120.19,24a.81.81,0,0,1-.13-.43.55.55,0,0,1,.55-.55c.57,0,.79,1.09,2.46,1.09a2,2,0,0,0,2-2c0-3.23-5-1.75-5-5.52a2.88,2.88,0,0,1,3-2.79,3.71,3.71,0,0,1,2.68,1,.57.57,0,0,1,.17.42.56.56,0,0,1-.55.57c-.54,0-.89-.85-2.3-.85a1.66,1.66,0,0,0-1.84,1.63c0,2.68,5,1.35,5,5.52A3.25,3.25,0,0,1,123.07,25.28Z" transform="translate(0 0)" stroke="#006688" fill="none" stroke-width="0.67px"/>
        <path class="cls-5" d="M134.2,14.7c-.69,1.91-2.5,6.91-3.18,8.83a6.91,6.91,0,0,1-1-4c0-2.17.66-5.06,3.15-5.06a2.45,2.45,0,0,1,1.06.21m2.71,4.85c0-1.72-.38-4.07-1.92-5.16a1.2,1.2,0,0,0,.08-.25,2.46,2.46,0,0,0,.15-.42.32.32,0,0,0-.34-.31c-.26,0-.37.44-.45.67a3,3,0,0,0-1.29-.24c-3,0-3.8,3.39-3.8,5.71a7.37,7.37,0,0,0,1.42,4.73s-.09.24-.14.37c-.1.29-.23.63-.23.68a.31.31,0,0,0,.33.31c.21,0,.37-.34.47-.62a1.55,1.55,0,0,0,.09-.29,3,3,0,0,0,1.86.57c3.05,0,3.77-3.46,3.77-5.75m-.64,0c0,2.14-.65,5.08-3.13,5.08a2.5,2.5,0,0,1-1.63-.53c.69-1.93,2.56-7.1,3.26-9,1.18,1,1.5,3,1.5,4.5" transform="translate(0 0)" fill="#006688"/>
        <path class="cls-9" d="M134.2,14.7c-.69,1.91-2.5,6.91-3.18,8.83a6.91,6.91,0,0,1-1-4c0-2.17.66-5.06,3.15-5.06A2.45,2.45,0,0,1,134.2,14.7Zm2.71,4.85c0-1.72-.38-4.07-1.92-5.16a1.2,1.2,0,0,0,.08-.25,2.46,2.46,0,0,0,.15-.42.32.32,0,0,0-.34-.31c-.26,0-.37.44-.45.67a3,3,0,0,0-1.29-.24c-3,0-3.8,3.39-3.8,5.71a7.37,7.37,0,0,0,1.42,4.73s-.09.24-.14.37c-.1.29-.23.63-.23.68a.31.31,0,0,0,.33.31c.21,0,.37-.34.47-.62a1.55,1.55,0,0,0,.09-.29,3,3,0,0,0,1.86.57C136.19,25.3,136.91,21.84,136.91,19.55Zm-.64,0c0,2.14-.65,5.08-3.13,5.08a2.5,2.5,0,0,1-1.63-.53c.69-1.93,2.56-7.1,3.26-9C136,16,136.27,18,136.27,19.55Z" transform="translate(0 0)" stroke="#006688" fill="none" stroke-width="0.14px"/>
        <path class="cls-5" d="M146.62,14.52,143.74,19c-.05.06-.2.26-.28.29l3,5.26c0,.06.08.14.07.16a.28.28,0,0,1-.28.39.38.38,0,0,1-.31-.18l-3-5.37a1.36,1.36,0,0,1-.51.09h-1.55V24.8a.33.33,0,0,1-.65,0V14.32a.33.33,0,0,1,.65,0V19h1.55a.9.9,0,0,0,.8-.33l2.94-4.55a.31.31,0,0,1,.26-.14.29.29,0,0,1,.31.29.7.7,0,0,1-.09.23" transform="translate(0 0)" fill="#006688"/>
        <path class="cls-9" d="M146.62,14.52,143.74,19c-.05.06-.2.26-.28.29l3,5.26c0,.06.08.14.07.16a.28.28,0,0,1-.28.39.38.38,0,0,1-.31-.18l-3-5.37a1.36,1.36,0,0,1-.51.09h-1.55V24.8a.33.33,0,0,1-.65,0V14.32a.33.33,0,0,1,.65,0V19h1.55a.9.9,0,0,0,.8-.33l2.94-4.55a.31.31,0,0,1,.26-.14.29.29,0,0,1,.31.29A.7.7,0,0,1,146.62,14.52Z" transform="translate(0 0)" stroke="#006688" fill="none" stroke-width="0.14px"/>
        <path class="cls-5" d="M156.7,19.55c0-2.68-1-5.71-3.83-5.71s-3.84,3-3.84,5.71,1,5.75,3.84,5.75,3.83-3.07,3.83-5.75m-.68,0c0,2.31-.76,5.08-3.15,5.08s-3.15-2.76-3.15-5.08.78-5.05,3.15-5.05S156,17.25,156,19.55" transform="translate(0 0)" fill="#006688"/>
        <path class="cls-9" d="M156.7,19.55c0-2.68-1-5.71-3.83-5.71s-3.84,3-3.84,5.71,1,5.75,3.84,5.75S156.7,22.23,156.7,19.55Zm-.68,0c0,2.31-.76,5.08-3.15,5.08s-3.15-2.76-3.15-5.08.78-5.05,3.15-5.05S156,17.25,156,19.55Z" transform="translate(0 0)" stroke="#006688" fill="none" stroke-width="0.14px"/>
        <path class="cls-5" d="M166.76,25.14a.39.39,0,0,1-.29-.2l-5.79-9.46V24.8a.33.33,0,0,1-.65,0V14.32a.35.35,0,0,1,.36-.34c.12,0,.2.08.27.2l5.79,9.46V14.32a.32.32,0,0,1,.33-.32.31.31,0,0,1,.3.32V24.83a.33.33,0,0,1-.32.31" transform="translate(0 0)" fill="#006688"/>
        <path class="cls-9" d="M166.76,25.14a.39.39,0,0,1-.29-.2l-5.79-9.46V24.8a.33.33,0,0,1-.65,0V14.32a.35.35,0,0,1,.36-.34c.12,0,.2.08.27.2l5.79,9.46V14.32a.32.32,0,0,1,.33-.32.31.31,0,0,1,.3.32V24.83A.33.33,0,0,1,166.76,25.14Z" transform="translate(0 0)" stroke="#006688" fill="none" stroke-width="0.14px"/>
        <path class="cls-5" d="M178.1,19.55c0-2.68-1-5.71-3.83-5.71s-3.84,3-3.84,5.71,1,5.75,3.84,5.75,3.83-3.07,3.83-5.75m-.68,0c0,2.31-.76,5.08-3.15,5.08s-3.14-2.76-3.14-5.08.77-5.05,3.14-5.05,3.15,2.75,3.15,5.05" transform="translate(0 0)" fill="#006688"/>
        <path class="cls-9" d="M178.1,19.55c0-2.68-1-5.71-3.83-5.71s-3.84,3-3.84,5.71,1,5.75,3.84,5.75S178.1,22.23,178.1,19.55Zm-.68,0c0,2.31-.76,5.08-3.15,5.08s-3.14-2.76-3.14-5.08.77-5.05,3.14-5.05S177.42,17.25,177.42,19.55Z" transform="translate(0 0)" stroke="#006688" fill="none" stroke-width="0.14px"/>
        <path class="cls-5" d="M189.43,25.12a.33.33,0,0,1-.32-.32v-9L186,22.28a.33.33,0,0,1-.63,0l-3.13-6.53V24.8a.33.33,0,0,1-.65,0V14.32a.32.32,0,0,1,.32-.32.37.37,0,0,1,.33.24l3.45,7.21,3.42-7.21a.35.35,0,0,1,.32-.24.32.32,0,0,1,.33.32V24.8a.33.33,0,0,1-.33.32" transform="translate(0 0)" fill="#006688"/>
        <path class="cls-9" d="M189.43,25.12a.33.33,0,0,1-.32-.32v-9L186,22.28a.33.33,0,0,1-.63,0l-3.13-6.53V24.8a.33.33,0,0,1-.65,0V14.32a.32.32,0,0,1,.32-.32.37.37,0,0,1,.33.24l3.45,7.21,3.42-7.21a.35.35,0,0,1,.32-.24.32.32,0,0,1,.33.32V24.8A.33.33,0,0,1,189.43,25.12Z" transform="translate(0 0)" stroke="#006688" fill="none" stroke-width="0.14px"/>
        <path class="cls-5" d="M198.39,25.12h-1.92a1.87,1.87,0,0,1-1.24-.55l-1-1a1.77,1.77,0,0,1-.67-1.18V14.32a.33.33,0,0,1,.32-.32h4.55a.32.32,0,0,1,.31.32.31.31,0,0,1-.31.31h-4.23v4.3h3.57a.31.31,0,0,1,.3.33.29.29,0,0,1-.3.32h-3.57v2.7a1.22,1.22,0,0,0,.47.86l1.08,1a1,1,0,0,0,.82.36h1.86a.33.33,0,0,1,0,.65" transform="translate(0 0)" fill="#006688"/>
        <path class="cls-9" d="M198.39,25.12h-1.92a1.87,1.87,0,0,1-1.24-.55l-1-1a1.77,1.77,0,0,1-.67-1.18V14.32a.33.33,0,0,1,.32-.32h4.55a.32.32,0,0,1,.31.32.31.31,0,0,1-.31.31h-4.23v4.3h3.57a.31.31,0,0,1,.3.33.29.29,0,0,1-.3.32h-3.57v2.7a1.22,1.22,0,0,0,.47.86l1.08,1a1,1,0,0,0,.82.36h1.86a.33.33,0,0,1,0,.65Z" transform="translate(0 0)" stroke="#006688" fill="none" stroke-width="0.14px"/>
        <path class="cls-5" d="M208.61,25.14a.41.41,0,0,1-.29-.2l-5.79-9.46V24.8a.33.33,0,0,1-.65,0V14.32a.35.35,0,0,1,.36-.34.3.3,0,0,1,.27.2l5.8,9.46V14.32a.32.32,0,0,1,.32-.32.31.31,0,0,1,.31.32V24.83a.34.34,0,0,1-.33.31" transform="translate(0 0)" fill="#006688"/>
        <path class="cls-9" d="M208.61,25.14a.41.41,0,0,1-.29-.2l-5.79-9.46V24.8a.33.33,0,0,1-.65,0V14.32a.35.35,0,0,1,.36-.34.3.3,0,0,1,.27.2l5.8,9.46V14.32a.32.32,0,0,1,.32-.32.31.31,0,0,1,.31.32V24.83A.34.34,0,0,1,208.61,25.14Z" transform="translate(0 0)" stroke="#006688" fill="none" stroke-width="0.14px"/>
        <path class="cls-5" d="M217.19,25.12h-1.92a1.91,1.91,0,0,1-1.25-.55l-1-1a1.78,1.78,0,0,1-.68-1.18V14.32a.33.33,0,0,1,.33-.32h4.55a.31.31,0,0,1,.3.32.3.3,0,0,1-.3.31H213v4.3h3.57a.31.31,0,0,1,.3.33.3.3,0,0,1-.3.32H213v2.7a1.19,1.19,0,0,0,.47.86l1.08,1a1,1,0,0,0,.82.36h1.86a.33.33,0,0,1,0,.65" transform="translate(0 0)" fill="#006688"/>
        <path class="cls-9" d="M217.19,25.12h-1.92a1.91,1.91,0,0,1-1.25-.55l-1-1a1.78,1.78,0,0,1-.68-1.18V14.32a.33.33,0,0,1,.33-.32h4.55a.31.31,0,0,1,.3.32.3.3,0,0,1-.3.31H213v4.3h3.57a.31.31,0,0,1,.3.33.3.3,0,0,1-.3.32H213v2.7a1.19,1.19,0,0,0,.47.86l1.08,1a1,1,0,0,0,.82.36h1.86a.33.33,0,0,1,0,.65Z" transform="translate(0 0)" stroke="#006688" fill="none" stroke-width="0.14px"/>
      </g>
    </g>
  </g>
</svg>