<?xml version="1.0" encoding="utf-8"?>
<svg viewBox="0 1.4552 1063.0001 197.0896" width="1063.0001" height="197.0896" xmlns="http://www.w3.org/2000/svg">
  <defs>
    <clipPath id="clipPath18" clipPathUnits="userSpaceOnUse">
      <path id="path16" d="M 0,102.62 H 334.477 V 0 H 0 Z"/>
    </clipPath>
  </defs>
  <g transform="matrix(3.7353711128234863, 0, 0, -3.7353711128234863, -92.82283020019531, 291.36947631835943)" id="g10" style="">
    <g id="g12">
      <g clip-path="url(#clipPath18)" id="g14">
        <g transform="translate(263.7977,46.5302)" id="g20">
          <path id="path22" style="fill:#2b2b2a;fill-opacity:1;fill-rule:nonzero;stroke:none" d="M 0,0 C 0.093,0 0.168,0.075 0.168,0.168 V 2.569 C 0.168,2.662 0.093,2.737 0,2.737 h -9.064 c -0.092,0 -0.168,-0.075 -0.168,-0.168 v -23.65 c 0,-0.092 0.076,-0.168 0.168,-0.168 H 0 c 0.093,0 0.168,0.076 0.168,0.168 v 2.401 c 0,0.093 -0.075,0.168 -0.168,0.168 h -6.242 v 8.428 h 4.477 c 0.093,0 0.168,0.075 0.168,0.168 v 2.293 c 0,0.093 -0.075,0.168 -0.168,0.168 H -6.242 V 0 Z m -14.512,2.737 h -2.509 c -0.093,0 -0.168,-0.075 -0.168,-0.168 v -16.002 l -1.476,4.069 -4.677,11.994 c -0.025,0.064 -0.087,0.107 -0.156,0.107 h -2.274 c -0.093,0 -0.168,-0.075 -0.168,-0.168 v -23.65 c 0,-0.092 0.075,-0.168 0.168,-0.168 h 2.509 c 0.093,0 0.168,0.076 0.168,0.168 v 15.787 l 1.585,-4.034 4.962,-11.818 c 0.027,-0.062 0.088,-0.103 0.155,-0.103 h 1.881 c 0.093,0 0.168,0.076 0.168,0.168 v 23.65 c 0,0.093 -0.075,0.168 -0.168,0.168 m -21.006,-8.716 c 0,-1.512 -0.793,-2.34 -2.125,-2.34 h -2.522 v 8.355 h 2.809 c 1.297,0 1.838,-0.756 1.838,-2.017 z m 3.776,-13.354 c -0.499,0.045 -0.68,0.337 -0.68,0.93 v 5.114 c 0,1.729 -0.792,3.349 -2.665,3.745 1.909,0.469 2.558,1.765 2.558,3.818 v 3.637 c 0,3.314 -1.729,4.826 -4.791,4.826 h -5.702 c -0.093,0 -0.168,-0.075 -0.168,-0.168 v -23.65 c 0,-0.092 0.075,-0.168 0.168,-0.168 h 2.857 v 10.516 h 2.702 c 1.404,0 2.052,-0.936 2.052,-2.376 v -5.474 c 0,-2.234 0.829,-2.881 3.025,-2.881 h 0.625 c 0.093,0 0.168,0.075 0.168,0.167 v 1.798 c 0,0.085 -0.064,0.158 -0.149,0.166 m -17.389,22.07 h -9.064 c -0.092,0 -0.168,-0.075 -0.168,-0.168 v -23.65 c 0,-0.092 0.076,-0.168 0.168,-0.168 h 9.064 c 0.093,0 0.168,0.076 0.168,0.168 v 2.401 c 0,0.093 -0.075,0.168 -0.168,0.168 h -6.242 v 8.428 h 4.477 c 0.093,0 0.168,0.075 0.168,0.168 v 2.293 c 0,0.093 -0.075,0.168 -0.168,0.168 h -4.477 V 0 h 6.242 c 0.093,0 0.168,0.075 0.168,0.168 v 2.401 c 0,0.093 -0.075,0.168 -0.168,0.168 m -14.55,0 h -10.721 c -0.092,0 -0.168,-0.075 -0.168,-0.168 V 0.132 c 0,-0.093 0.076,-0.168 0.168,-0.168 h 3.902 v -21.045 c 0,-0.092 0.075,-0.168 0.168,-0.168 h 2.653 c 0.093,0 0.168,0.076 0.168,0.168 v 21.045 h 3.83 c 0.093,0 0.168,0.075 0.168,0.168 v 2.437 c 0,0.093 -0.075,0.168 -0.168,0.168 m -16.388,0 h -2.689 c -0.093,0 -0.168,-0.075 -0.168,-0.168 v -23.65 c 0,-0.092 0.075,-0.168 0.168,-0.168 h 2.689 c 0.093,0 0.168,0.076 0.168,0.168 v 23.65 c 0,0.093 -0.075,0.168 -0.168,0.168 m -8.998,0 h -2.643 c -0.082,0 -0.152,-0.059 -0.166,-0.14 l -3.145,-18.3 -3.002,18.299 c -0.013,0.081 -0.084,0.141 -0.166,0.141 h -2.787 c -0.106,0 -0.185,-0.096 -0.165,-0.2 l 4.545,-23.649 c 0.015,-0.079 0.084,-0.137 0.165,-0.137 h 2.677 c 0.08,0 0.149,0.057 0.164,0.136 l 4.688,23.649 c 0.02,0.104 -0.059,0.201 -0.165,0.201 m -20.631,-10.912 c -2.809,2.557 -3.745,3.925 -3.745,6.266 0,1.513 0.828,2.449 2.413,2.449 1.764,0 2.557,-1.26 2.557,-3.097 v -1.741 c 0,-0.092 0.075,-0.168 0.168,-0.168 h 2.509 c 0.092,0 0.168,0.076 0.168,0.168 v 2.065 c 0,3.169 -2.089,5.402 -5.33,5.402 -3.566,0 -5.439,-2.449 -5.439,-5.654 0,-3.133 2.413,-5.906 4.61,-7.851 2.449,-2.197 3.349,-3.818 3.349,-6.051 0,-1.656 -0.864,-2.773 -2.629,-2.773 -1.692,0 -2.629,1.153 -2.629,3.17 v 1.704 c 0,0.093 -0.075,0.168 -0.168,0.168 h -2.617 c -0.092,0 -0.168,-0.075 -0.168,-0.168 v -2.028 c 0,-3.134 2.197,-5.366 5.582,-5.366 2.99,0 5.583,1.944 5.583,5.833 0,2.918 -1.441,5.187 -4.214,7.672 m -12.874,10.912 h -2.509 c -0.093,0 -0.168,-0.075 -0.168,-0.168 v -16.002 l -1.476,4.069 -4.677,11.994 c -0.025,0.064 -0.087,0.107 -0.156,0.107 h -2.274 c -0.093,0 -0.168,-0.075 -0.168,-0.168 v -23.65 c 0,-0.092 0.075,-0.168 0.168,-0.168 h 2.509 c 0.093,0 0.168,0.076 0.168,0.168 v 15.787 l 1.585,-4.034 4.962,-11.818 c 0.026,-0.062 0.087,-0.103 0.155,-0.103 h 1.881 c 0.093,0 0.168,0.076 0.168,0.168 v 23.65 c 0,0.093 -0.075,0.168 -0.168,0.168 m -18.302,0 h -2.51 c -0.092,0 -0.168,-0.075 -0.168,-0.168 v -16.002 l -1.477,4.069 -4.675,11.994 c -0.026,0.064 -0.088,0.107 -0.157,0.107 h -2.275 c -0.092,0 -0.168,-0.075 -0.168,-0.168 v -23.65 c 0,-0.092 0.076,-0.168 0.168,-0.168 h 2.51 c 0.092,0 0.168,0.076 0.168,0.168 v 15.787 l 1.584,-4.034 4.963,-11.818 c 0.026,-0.062 0.087,-0.103 0.155,-0.103 h 1.882 c 0.092,0 0.167,0.076 0.167,0.168 v 23.65 c 0,0.093 -0.075,0.168 -0.167,0.168 m -18.01,0 h -2.617 c -0.093,0 -0.168,-0.075 -0.168,-0.168 v -18.812 c 0,-1.52 -1.241,-2.776 -2.76,-2.735 -1.677,0.046 -2.499,0.98 -2.499,2.735 V 2.569 c 0,0.093 -0.075,0.168 -0.168,0.168 h -2.653 c -0.093,0 -0.168,-0.075 -0.168,-0.168 V -16.17 c 0,-3.458 2.342,-5.51 5.583,-5.51 3.277,0 5.618,2.052 5.618,5.51 V 2.569 c 0,0.093 -0.075,0.168 -0.168,0.168 m -16.5,0 h -8.918 c -0.093,0 -0.169,-0.076 -0.169,-0.17 v -23.648 c 0,-0.092 0.075,-0.168 0.168,-0.168 h 2.689 c 0.093,0 0.168,0.076 0.168,0.168 v 10.637 h 4.659 c 0.092,0 0.168,0.075 0.168,0.168 v 2.293 c 0,0.093 -0.076,0.168 -0.169,0.168 h -4.658 v 7.851 h 6.061 c 0.094,0 0.17,0.076 0.17,0.17 v 2.362 c 0,0.093 -0.076,0.169 -0.169,0.169 m -16.1,0 h -3.866 c -0.082,0 -0.151,-0.058 -0.166,-0.138 l -2.64,-14.736 -0.756,-4.393 -0.793,4.357 -2.674,14.764 c -0.015,0.084 -0.089,0.146 -0.175,0.146 h -3.936 c -0.091,0 -0.165,-0.074 -0.165,-0.166 v -23.656 c 0,-0.09 0.073,-0.164 0.163,-0.164 h 2.335 c 0.092,0 0.167,0.075 0.167,0.167 v 18.237 l 0.792,-4.358 2.711,-13.909 c 0.015,-0.079 0.085,-0.137 0.166,-0.137 h 2.6 c 0.082,0 0.152,0.058 0.168,0.139 l 2.711,13.907 0.792,4.358 v -18.239 c 0,-0.091 0.073,-0.165 0.164,-0.165 h 2.401 c 0.095,0 0.171,0.077 0.171,0.172 V 2.567 c 0,0.094 -0.076,0.17 -0.17,0.17 m -28.001,-15.81 1.692,10.264 1.621,-10.264 z m 3.212,15.81 h -2.894 c -0.08,0 -0.149,-0.057 -0.164,-0.136 l -4.439,-23.652 c -0.019,-0.103 0.059,-0.198 0.163,-0.198 h 2.504 c 0.082,0 0.151,0.059 0.166,0.139 l 0.983,5.372 h 4.25 l 0.949,-5.373 c 0.014,-0.08 0.083,-0.138 0.163,-0.138 h 2.719 c 0.105,0 0.185,0.096 0.166,0.2 l -4.404,23.651 c -0.014,0.078 -0.082,0.135 -0.162,0.135 m -15.724,-10.912 c -2.809,2.557 -3.746,3.925 -3.746,6.266 0,1.513 0.829,2.449 2.414,2.449 1.764,0 2.556,-1.26 2.556,-3.097 v -1.741 c 0,-0.093 0.075,-0.168 0.168,-0.168 h 2.507 c 0.094,0 0.17,0.077 0.17,0.171 v 2.062 c 0,3.169 -2.088,5.402 -5.33,5.402 -3.565,0 -5.437,-2.449 -5.437,-5.654 0,-3.133 2.412,-5.906 4.609,-7.851 2.45,-2.197 3.35,-3.818 3.35,-6.051 0,-1.656 -0.865,-2.773 -2.629,-2.773 -1.693,0 -2.629,1.153 -2.629,3.17 v 1.706 c 0,0.092 -0.075,0.166 -0.167,0.166 h -2.617 c -0.094,0 -0.17,-0.076 -0.17,-0.169 v -2.027 c 0,-3.134 2.197,-5.366 5.583,-5.366 2.989,0 5.582,1.944 5.582,5.833 0,2.918 -1.441,5.187 -4.214,7.672"/>
        </g>
        <g transform="translate(303.3878,69.7198)" id="g24">
          <path id="path26" style="fill:#EF2D37;fill-opacity:1;fill-rule:nonzero;stroke:none" d="m 0,0 -7.466,-4.311 c -0.04,-0.023 -0.04,-0.081 0,-0.104 l 4.431,-2.558 c 0.019,-0.011 0.031,-0.031 0.031,-0.053 v -5.187 c 0,-0.022 -0.012,-0.042 -0.031,-0.053 l -7.526,-4.345 c -0.019,-0.011 -0.042,-0.011 -0.061,0 l -5.947,3.434 c -0.041,0.023 -0.092,-0.006 -0.092,-0.053 v -3.363 c 0,-0.021 -0.012,-0.042 -0.031,-0.053 l -6.008,-3.468 c -0.019,-0.011 -0.031,-0.032 -0.031,-0.054 l -10e-4,-3.432 c 0,-0.022 -0.012,-0.042 -0.031,-0.053 l -6.005,-3.469 c -0.02,-0.012 -0.032,-0.033 -0.032,-0.056 v -3.362 c 0,-0.047 0.05,-0.076 0.091,-0.053 L 0,-14.017 c 0.019,0.011 0.03,0.031 0.03,0.052 v 6.938 c 0,0.022 0.012,0.043 0.031,0.054 l 5.947,3.433 c 0.041,0.024 0.041,0.083 0,0.106 L 0.061,0 C 0.042,0.011 0.019,0.011 0,0"/>
        </g>
        <g transform="translate(299.2452,58.1637)" id="g28">
          <path id="path30" style="fill:#EF2D37;fill-opacity:1;fill-rule:nonzero;stroke:none" d="m 0,0 v 3.872 c 0,0.022 -0.012,0.043 -0.031,0.054 l -18.526,10.696 c -0.019,0.011 -0.043,0.011 -0.062,0 L -28.36,8.998 c -0.041,-0.024 -0.041,-0.082 0,-0.105 L -6.479,-3.741 c 0.019,-0.01 0.042,-0.01 0.061,0 l 6.388,3.688 C -0.012,-0.042 0,-0.022 0,0"/>
        </g>
        <g transform="translate(280.6876,74.1)" id="g32">
          <path id="path34" style="fill:#EF2D37;fill-opacity:1;fill-rule:nonzero;stroke:none" d="m 0,0 13.975,-8.068 c 0.019,-0.011 0.042,-0.011 0.061,0 l 2.912,1.681 c 0.041,0.024 0.041,0.083 0,0.107 L 0.001,3.505 c -0.019,0.011 -0.043,0.011 -0.062,0 l -8.981,-5.186 c -0.041,-0.024 -0.041,-0.083 0,-0.107 l 2.912,-1.681 c 0.019,-0.011 0.042,-0.011 0.061,0 L -0.061,0 C -0.042,0.011 -0.019,0.011 0,0"/>
        </g>
      </g>
    </g>
  </g>
</svg>